Uncut Sans-Light Italic.ufo
<glyph name="exclam" format="2">
	<advance width="333"/>
	<unicode hex="0021"/>
	<outline>
		<contour>
			<point x="85" y="166" type="line"/>
			<point x="123" y="166" type="line"/>
			<point x="295" y="700" type="line"/>
			<point x="237" y="700" type="line"/>
		</contour>
		<contour>
			<point x="36" y="0" type="line"/>
			<point x="106" y="0" type="line"/>
			<point x="120" y="70" type="line"/>
			<point x="50" y="70" type="line"/>
		</contour>
	</outline>
</glyph>
<glyph name="numbersign" format="2">
	<advance width="702"/>
	<unicode hex="0023"/>
	<outline>
		<contour>
			<point x="279" y="0" type="line"/>
			<point x="332" y="0" type="line"/>
			<point x="679" y="716" type="line"/>
			<point x="626" y="716" type="line"/>
		</contour>
		<contour>
			<point x="12" y="182" type="line"/>
			<point x="563" y="182" type="line"/>
			<point x="573" y="230" type="line"/>
			<point x="22" y="230" type="line"/>
		</contour>
		<contour>
			<point x="24" y="0" type="line"/>
			<point x="77" y="0" type="line"/>
			<point x="424" y="716" type="line"/>
			<point x="371" y="716" type="line"/>
		</contour>
		<contour>
			<point x="125" y="452" type="line"/>
			<point x="676" y="452" type="line"/>
			<point x="685" y="500" type="line"/>
			<point x="134" y="500" type="line"/>
		</contour>
	</outline>
</glyph>
<glyph name="dollar" format="2">
	<advance width="578"/>
	<unicode hex="0024"/>
	<outline>
		<contour>
			<point x="273" y="-16" type="curve" smooth="yes"/>
			<point x="383" y="-16"/>
			<point x="486" y="61"/>
			<point x="486" y="181" type="curve" smooth="yes"/>
			<point x="486" y="416"/>
			<point x="186" y="388"/>
			<point x="186" y="548" type="curve" smooth="yes"/>
			<point x="186" y="608"/>
			<point x="235" y="663"/>
			<point x="335" y="663" type="curve" smooth="yes"/>
			<point x="435" y="663"/>
			<point x="471" y="577"/>
			<point x="471" y="507" type="curve"/>
			<point x="530" y="517" type="line"/>
			<point x="530" y="607"/>
			<point x="475" y="716"/>
			<point x="335" y="716" type="curve" smooth="yes"/>
			<point x="215" y="716"/>
			<point x="130" y="648"/>
			<point x="130" y="548" type="curve" smooth="yes"/>
			<point x="130" y="348"/>
			<point x="430" y="377"/>
			<point x="430" y="181" type="curve" smooth="yes"/>
			<point x="430" y="91"/>
			<point x="363" y="37"/>
			<point x="273" y="37" type="curve" smooth="yes"/>
			<point x="143" y="37"/>
			<point x="90" y="137"/>
			<point x="90" y="267" type="curve"/>
			<point x="31" y="257" type="line"/>
			<point x="31" y="117"/>
			<point x="103" y="-16"/>
		</contour>
		<contour>
			<point x="181" y="-116" type="line"/>
			<point x="224" y="-116" type="line"/>
			<point x="402" y="800" type="line"/>
			<point x="359" y="800" type="line"/>
		</contour>
	</outline>
</glyph>
<glyph name="percent" format="2">
	<advance width="791"/>
	<unicode hex="0025"/>
	<outline>
		<contour>
			<point x="41" y="0" type="line"/>
			<point x="107" y="0" type="line"/>
			<point x="755" y="716" type="line"/>
			<point x="689" y="716" type="line"/>
		</contour>
		<contour>
			<point x="231" y="396" type="curve" smooth="yes"/>
			<point x="326" y="396"/>
			<point x="397" y="468"/>
			<point x="405" y="556" type="curve" smooth="yes"/>
			<point x="413" y="644"/>
			<point x="347" y="716"/>
			<point x="259" y="716" type="curve" smooth="yes"/>
			<point x="164" y="716"/>
			<point x="93" y="644"/>
			<point x="85" y="556" type="curve" smooth="yes"/>
			<point x="77" y="468"/>
			<point x="143" y="396"/>
		</contour>
		<contour>
			<point x="236" y="449" type="curve" smooth="yes"/>
			<point x="177" y="449"/>
			<point x="133" y="491"/>
			<point x="138" y="556" type="curve" smooth="yes"/>
			<point x="143" y="615"/>
			<point x="195" y="663"/>
			<point x="254" y="663" type="curve" smooth="yes"/>
			<point x="313" y="663"/>
			<point x="357" y="621"/>
			<point x="352" y="556" type="curve" smooth="yes"/>
			<point x="347" y="497"/>
			<point x="295" y="449"/>
		</contour>
		<contour>
			<point x="530" y="-16" type="curve" smooth="yes"/>
			<point x="625" y="-16"/>
			<point x="696" y="56"/>
			<point x="704" y="144" type="curve" smooth="yes"/>
			<point x="712" y="232"/>
			<point x="646" y="304"/>
			<point x="558" y="304" type="curve" smooth="yes"/>
			<point x="463" y="304"/>
			<point x="392" y="232"/>
			<point x="384" y="144" type="curve" smooth="yes"/>
			<point x="376" y="56"/>
			<point x="442" y="-16"/>
		</contour>
		<contour>
			<point x="535" y="37" type="curve" smooth="yes"/>
			<point x="476" y="37"/>
			<point x="432" y="79"/>
			<point x="437" y="144" type="curve" smooth="yes"/>
			<point x="442" y="203"/>
			<point x="494" y="251"/>
			<point x="553" y="251" type="curve" smooth="yes"/>
			<point x="612" y="251"/>
			<point x="656" y="209"/>
			<point x="651" y="144" type="curve" smooth="yes"/>
			<point x="646" y="85"/>
			<point x="594" y="37"/>
		</contour>
	</outline>
</glyph>
<glyph name="ampersand" format="2">
	<advance width="655"/>
	<unicode hex="0026"/>
	<outline>
		<contour>
			<point x="229" y="-16" type="curve" smooth="yes"/>
			<point x="439" y="-16"/>
			<point x="543" y="207"/>
			<point x="574" y="364" type="curve"/>
			<point x="516" y="364" type="line"/>
			<point x="493" y="246"/>
			<point x="409" y="37"/>
			<point x="229" y="37" type="curve" smooth="yes"/>
			<point x="149" y="37"/>
			<point x="83" y="100"/>
			<point x="100" y="188" type="curve" smooth="yes"/>
			<point x="135" y="368"/>
			<point x="496" y="382"/>
			<point x="531" y="562" type="curve" smooth="yes"/>
			<point x="547" y="642"/>
			<point x="483" y="716"/>
			<point x="363" y="716" type="curve" smooth="yes"/>
			<point x="283" y="716"/>
			<point x="192" y="660"/>
			<point x="171" y="552" type="curve" smooth="yes"/>
			<point x="160" y="493"/>
			<point x="185" y="432"/>
			<point x="233" y="368" type="curve" smooth="yes"/>
			<point x="507" y="0" type="line"/>
			<point x="571" y="0" type="line"/>
			<point x="278" y="395" type="line" smooth="yes"/>
			<point x="224" y="467"/>
			<point x="221" y="513"/>
			<point x="229" y="552" type="curve" smooth="yes"/>
			<point x="245" y="630"/>
			<point x="313" y="663"/>
			<point x="363" y="663" type="curve" smooth="yes"/>
			<point x="443" y="663"/>
			<point x="485" y="622"/>
			<point x="473" y="562" type="curve" smooth="yes"/>
			<point x="446" y="425"/>
			<point x="83" y="398"/>
			<point x="43" y="188" type="curve" smooth="yes"/>
			<point x="20" y="70"/>
			<point x="109" y="-16"/>
		</contour>
	</outline>
</glyph>
<glyph name="quotesingle" format="2">
	<advance width="251"/>
	<unicode hex="0027"/>
	<outline>
		<contour>
			<point x="136" y="499" type="line"/>
			<point x="171" y="499" type="line"/>
			<point x="223" y="699" type="line"/>
			<point x="162" y="699" type="line"/>
		</contour>
	</outline>
</glyph>
<glyph name="parenleft" format="2">
	<advance width="313"/>
	<unicode hex="0028"/>
	<outline>
		<contour>
			<point x="146" y="-110" type="curve"/>
			<point x="198" y="-110" type="line"/>
			<point x="159" y="-47"/>
			<point x="95" y="109"/>
			<point x="133" y="303" type="curve" smooth="yes"/>
			<point x="171" y="497"/>
			<point x="295" y="653"/>
			<point x="358" y="716" type="curve"/>
			<point x="306" y="716" type="line"/>
			<point x="250" y="663"/>
			<point x="114" y="505"/>
			<point x="75" y="303" type="curve" smooth="yes"/>
			<point x="36" y="101"/>
			<point x="110" y="-57"/>
		</contour>
	</outline>
</glyph>
<glyph name="parenright" format="2">
	<advance width="314"/>
	<unicode hex="0029"/>
	<outline>
		<contour>
			<point x="-64" y="-110" type="curve"/>
			<point x="-12" y="-110" type="line"/>
			<point x="44" y="-57"/>
			<point x="180" y="101"/>
			<point x="219" y="303" type="curve" smooth="yes"/>
			<point x="258" y="505"/>
			<point x="184" y="663"/>
			<point x="148" y="716" type="curve"/>
			<point x="96" y="716" type="line"/>
			<point x="135" y="653"/>
			<point x="199" y="497"/>
			<point x="161" y="303" type="curve" smooth="yes"/>
			<point x="123" y="109"/>
			<point x="-1" y="-47"/>
		</contour>
	</outline>
</glyph>
<glyph name="asterisk" format="2">
	<advance width="518"/>
	<unicode hex="002A"/>
	<outline>
		<contour>
			<point x="367" y="380" type="line"/>
			<point x="407" y="414" type="line"/>
			<point x="291" y="533" type="line"/>
			<point x="198" y="673" type="line"/>
			<point x="157" y="640" type="line"/>
			<point x="274" y="520" type="line"/>
		</contour>
		<contour>
			<point x="142" y="380" type="line"/>
			<point x="288" y="520" type="line"/>
			<point x="451" y="640" type="line"/>
			<point x="425" y="673" type="line"/>
			<point x="278" y="533" type="line"/>
			<point x="114" y="413" type="line"/>
		</contour>
		<contour>
			<point x="222" y="342" type="line"/>
			<point x="270" y="342" type="line"/>
			<point x="291" y="526" type="line"/>
			<point x="342" y="710" type="line"/>
			<point x="294" y="710" type="line"/>
			<point x="273" y="526" type="line"/>
		</contour>
		<contour>
			<point x="94" y="502" type="line"/>
			<point x="280" y="517" type="line"/>
			<point x="462" y="502" type="line"/>
			<point x="471" y="549" type="line"/>
			<point x="284" y="534" type="line"/>
			<point x="103" y="549" type="line"/>
		</contour>
	</outline>
</glyph>
<glyph name="plus" format="2">
	<advance width="589"/>
	<unicode hex="002B"/>
	<outline>
		<contour>
			<point x="217" y="87" type="line"/>
			<point x="270" y="87" type="line"/>
			<point x="351" y="506" type="line"/>
			<point x="298" y="506" type="line"/>
		</contour>
		<contour>
			<point x="69" y="269" type="line"/>
			<point x="488" y="269" type="line"/>
			<point x="499" y="322" type="line"/>
			<point x="80" y="322" type="line"/>
		</contour>
	</outline>
</glyph>
<glyph name="comma" format="2">
	<advance width="231"/>
	<unicode hex="002C"/>
	<outline>
		<contour>
			<point x="-33" y="-128" type="line"/>
			<point x="27" y="-128"/>
			<point x="74" y="-90"/>
			<point x="92" y="0" type="curve"/>
			<point x="60" y="0" type="line"/>
			<point x="48" y="-60"/>
			<point x="22" y="-105"/>
			<point x="-28" y="-105" type="curve"/>
		</contour>
		<contour>
			<point x="12" y="0" type="line"/>
			<point x="92" y="0" type="line"/>
			<point x="108" y="80" type="line"/>
			<point x="28" y="80" type="line"/>
		</contour>
	</outline>
</glyph>
<glyph name="hyphen" format="2">
	<advance width="485"/>
	<unicode hex="002D"/>
	<outline>
		<contour>
			<point x="69" y="269" type="line"/>
			<point x="384" y="269" type="line"/>
			<point x="395" y="322" type="line"/>
			<point x="80" y="322" type="line"/>
		</contour>
	</outline>
</glyph>
<glyph name="period" format="2">
	<advance width="220"/>
	<unicode hex="002E"/>
	<outline>
		<contour>
			<point x="1" y="0" type="line"/>
			<point x="81" y="0" type="line"/>
			<point x="97" y="80" type="line"/>
			<point x="17" y="80" type="line"/>
		</contour>
	</outline>
</glyph>
<glyph name="slash" format="2">
	<advance width="473"/>
	<unicode hex="002F"/>
	<outline>
		<contour>
			<point x="-35" y="-110" type="line"/>
			<point x="22" y="-110" type="line"/>
			<point x="489" y="716" type="line"/>
			<point x="432" y="716" type="line"/>
		</contour>
	</outline>
</glyph>
<glyph name="zero" format="2">
	<advance width="656"/>
	<unicode hex="0030"/>
	<outline>
		<contour>
			<point x="256" y="-16" type="curve" smooth="yes"/>
			<point x="426" y="-16"/>
			<point x="546" y="124"/>
			<point x="590" y="350" type="curve" smooth="yes"/>
			<point x="633" y="570"/>
			<point x="568" y="716"/>
			<point x="398" y="716" type="curve" smooth="yes"/>
			<point x="228" y="716"/>
			<point x="108" y="576"/>
			<point x="64" y="350" type="curve" smooth="yes"/>
			<point x="21" y="130"/>
			<point x="86" y="-16"/>
		</contour>
		<contour>
			<point x="256" y="37" type="curve" smooth="yes"/>
			<point x="116" y="37"/>
			<point x="89" y="180"/>
			<point x="122" y="350" type="curve" smooth="yes"/>
			<point x="154" y="517"/>
			<point x="248" y="663"/>
			<point x="398" y="663" type="curve" smooth="yes"/>
			<point x="538" y="663"/>
			<point x="565" y="520"/>
			<point x="532" y="350" type="curve" smooth="yes"/>
			<point x="500" y="183"/>
			<point x="406" y="37"/>
		</contour>
	</outline>
</glyph>
<glyph name="one" format="2">
	<advance width="539"/>
	<unicode hex="0031"/>
	<outline>
		<contour>
			<point x="203" y="33" type="line"/>
			<point x="261" y="33" type="line"/>
			<point x="391" y="700" type="line"/>
			<point x="333" y="700" type="line"/>
			<point x="306" y="560"/>
			<point x="223" y="500"/>
			<point x="143" y="500" type="curve" smooth="yes"/>
			<point x="114" y="500" type="line"/>
			<point x="104" y="447" type="line"/>
			<point x="133" y="447" type="line" smooth="yes"/>
			<point x="203" y="447"/>
			<point x="298" y="483"/>
			<point x="324" y="620" type="curve"/>
			<point x="314" y="600" type="line"/>
		</contour>
		<contour>
			<point x="17" y="0" type="line"/>
			<point x="435" y="0" type="line"/>
			<point x="445" y="53" type="line"/>
			<point x="27" y="53" type="line"/>
		</contour>
	</outline>
</glyph>
<glyph name="two" format="2">
	<advance width="591"/>
	<unicode hex="0032"/>
	<outline>
		<contour>
			<point x="-3" y="0" type="line"/>
			<point x="457" y="0" type="line"/>
			<point x="467" y="53" type="line"/>
			<point x="65" y="53" type="line"/>
			<point x="99" y="48" type="line"/>
			<point x="265" y="128"/>
			<point x="496" y="284"/>
			<point x="536" y="490" type="curve" smooth="yes"/>
			<point x="561" y="618"/>
			<point x="482" y="716"/>
			<point x="352" y="716" type="curve" smooth="yes"/>
			<point x="202" y="716"/>
			<point x="117" y="620"/>
			<point x="96" y="510" type="curve"/>
			<point x="152" y="501" type="line"/>
			<point x="172" y="601"/>
			<point x="242" y="663"/>
			<point x="352" y="663" type="curve" smooth="yes"/>
			<point x="452" y="663"/>
			<point x="498" y="588"/>
			<point x="478" y="490" type="curve" smooth="yes"/>
			<point x="443" y="310"/>
			<point x="223" y="157"/>
			<point x="7" y="53" type="curve"/>
		</contour>
	</outline>
</glyph>
<glyph name="three" format="2">
	<advance width="606"/>
	<unicode hex="0033"/>
	<outline>
		<contour>
			<point x="227" y="-16" type="curve" smooth="yes"/>
			<point x="387" y="-16"/>
			<point x="485" y="71"/>
			<point x="507" y="179" type="curve" smooth="yes"/>
			<point x="526" y="277"/>
			<point x="446" y="366"/>
			<point x="376" y="366" type="curve"/>
			<point x="385" y="362" type="line"/>
			<point x="445" y="362"/>
			<point x="533" y="436"/>
			<point x="550" y="527" type="curve" smooth="yes"/>
			<point x="569" y="625"/>
			<point x="489" y="716"/>
			<point x="369" y="716" type="curve" smooth="yes"/>
			<point x="219" y="716"/>
			<point x="141" y="617"/>
			<point x="120" y="550" type="curve"/>
			<point x="176" y="540" type="line"/>
			<point x="198" y="609"/>
			<point x="269" y="663"/>
			<point x="359" y="663" type="curve" smooth="yes"/>
			<point x="449" y="663"/>
			<point x="507" y="603"/>
			<point x="492" y="527" type="curve" smooth="yes"/>
			<point x="477" y="450"/>
			<point x="400" y="391"/>
			<point x="296" y="391" type="curve" smooth="yes"/>
			<point x="236" y="391" type="line"/>
			<point x="226" y="338" type="line"/>
			<point x="286" y="338" type="line" smooth="yes"/>
			<point x="379" y="338"/>
			<point x="470" y="286"/>
			<point x="449" y="179" type="curve" smooth="yes"/>
			<point x="432" y="92"/>
			<point x="338" y="39"/>
			<point x="238" y="39" type="curve" smooth="yes"/>
			<point x="148" y="39"/>
			<point x="68" y="88"/>
			<point x="81" y="193" type="curve"/>
			<point x="22" y="183" type="line"/>
			<point x="2" y="85"/>
			<point x="77" y="-16"/>
		</contour>
	</outline>
</glyph>
<glyph name="four" format="2">
	<advance width="700"/>
	<unicode hex="0034"/>
	<outline>
		<contour>
			<point x="16" y="203" type="line"/>
			<point x="620" y="203" type="line"/>
			<point x="631" y="256" type="line"/>
			<point x="76" y="256" type="line"/>
			<point x="60" y="231" type="line"/>
			<point x="290" y="360"/>
			<point x="336" y="530"/>
			<point x="369" y="700" type="curve"/>
			<point x="311" y="700" type="line"/>
			<point x="278" y="530"/>
			<point x="233" y="380"/>
			<point x="27" y="256" type="curve"/>
		</contour>
		<contour>
			<point x="403" y="0" type="line"/>
			<point x="461" y="0" type="line"/>
			<point x="597" y="700" type="line"/>
			<point x="539" y="700" type="line"/>
		</contour>
	</outline>
</glyph>
<glyph name="five" format="2">
	<advance width="597"/>
	<unicode hex="0035"/>
	<outline>
		<contour>
			<point x="236" y="-16" type="curve" smooth="yes"/>
			<point x="376" y="-16"/>
			<point x="479" y="78"/>
			<point x="508" y="228" type="curve" smooth="yes"/>
			<point x="533" y="356"/>
			<point x="470" y="468"/>
			<point x="320" y="468" type="curve" smooth="yes"/>
			<point x="230" y="468"/>
			<point x="165" y="422"/>
			<point x="121" y="368" type="curve"/>
			<point x="135" y="353" type="line"/>
			<point x="213" y="647" type="line"/>
			<point x="537" y="647" type="line"/>
			<point x="547" y="700" type="line"/>
			<point x="172" y="700" type="line"/>
			<point x="71" y="322" type="line"/>
			<point x="132" y="322" type="line"/>
			<point x="144" y="340"/>
			<point x="210" y="419"/>
			<point x="320" y="419" type="curve" smooth="yes"/>
			<point x="420" y="419"/>
			<point x="474" y="346"/>
			<point x="450" y="228" type="curve" smooth="yes"/>
			<point x="433" y="140"/>
			<point x="366" y="36"/>
			<point x="236" y="36" type="curve" smooth="yes"/>
			<point x="106" y="36"/>
			<point x="80" y="134"/>
			<point x="91" y="193" type="curve"/>
			<point x="32" y="183" type="line"/>
			<point x="14" y="95"/>
			<point x="86" y="-16"/>
		</contour>
	</outline>
</glyph>
<glyph name="six" format="2">
	<advance width="618"/>
	<unicode hex="0036"/>
	<outline>
		<contour>
			<point x="256" y="-16" type="curve" smooth="yes"/>
			<point x="376" y="-16"/>
			<point x="493" y="63"/>
			<point x="523" y="220" type="curve" smooth="yes"/>
			<point x="550" y="360"/>
			<point x="467" y="455"/>
			<point x="327" y="455" type="curve" smooth="yes"/>
			<point x="217" y="455"/>
			<point x="119" y="375"/>
			<point x="90" y="259" type="curve"/>
			<point x="100" y="251" type="line"/>
			<point x="125" y="510"/>
			<point x="258" y="663"/>
			<point x="388" y="663" type="curve" smooth="yes"/>
			<point x="498" y="663"/>
			<point x="515" y="579"/>
			<point x="525" y="530" type="curve"/>
			<point x="589" y="540" type="line"/>
			<point x="578" y="619"/>
			<point x="528" y="716"/>
			<point x="388" y="716" type="curve" smooth="yes"/>
			<point x="248" y="716"/>
			<point x="110" y="589"/>
			<point x="65" y="353" type="curve" smooth="yes"/>
			<point x="27" y="157"/>
			<point x="56" y="-16"/>
		</contour>
		<contour>
			<point x="256" y="37" type="curve" smooth="yes"/>
			<point x="156" y="37"/>
			<point x="92" y="102"/>
			<point x="116" y="220" type="curve" smooth="yes"/>
			<point x="135" y="320"/>
			<point x="227" y="402"/>
			<point x="327" y="402" type="curve" smooth="yes"/>
			<point x="427" y="402"/>
			<point x="484" y="320"/>
			<point x="465" y="220" type="curve" smooth="yes"/>
			<point x="445" y="120"/>
			<point x="362" y="37"/>
		</contour>
	</outline>
</glyph>
<glyph name="seven" format="2">
	<advance width="540"/>
	<unicode hex="0037"/>
	<outline>
		<contour>
			<point x="117" y="0" type="curve"/>
			<point x="175" y="0" type="line"/>
			<point x="229" y="280"/>
			<point x="296" y="501"/>
			<point x="552" y="647" type="curve"/>
			<point x="562" y="700" type="line"/>
			<point x="102" y="700" type="line"/>
			<point x="92" y="647" type="line"/>
			<point x="511" y="647" type="line"/>
			<point x="524" y="672" type="line"/>
			<point x="269" y="555"/>
			<point x="171" y="280"/>
		</contour>
	</outline>
</glyph>
<glyph name="eight" format="2">
	<advance width="608"/>
	<unicode hex="0038"/>
	<outline>
		<contour>
			<point x="242" y="-16" type="curve" smooth="yes"/>
			<point x="372" y="-16"/>
			<point x="496" y="60"/>
			<point x="521" y="188" type="curve" smooth="yes"/>
			<point x="540" y="286"/>
			<point x="466" y="366"/>
			<point x="396" y="366" type="curve"/>
			<point x="396" y="363" type="line"/>
			<point x="456" y="363"/>
			<point x="543" y="439"/>
			<point x="560" y="527" type="curve" smooth="yes"/>
			<point x="578" y="615"/>
			<point x="514" y="716"/>
			<point x="364" y="716" type="curve" smooth="yes"/>
			<point x="224" y="716"/>
			<point x="134" y="625"/>
			<point x="114" y="527" type="curve" smooth="yes"/>
			<point x="99" y="447"/>
			<point x="156" y="364"/>
			<point x="216" y="364" type="curve"/>
			<point x="216" y="366" type="line"/>
			<point x="146" y="366"/>
			<point x="46" y="306"/>
			<point x="23" y="188" type="curve" smooth="yes"/>
			<point x="1" y="80"/>
			<point x="92" y="-16"/>
		</contour>
		<contour>
			<point x="242" y="37" type="curve" smooth="yes"/>
			<point x="132" y="37"/>
			<point x="65" y="110"/>
			<point x="81" y="188" type="curve" smooth="yes"/>
			<point x="98" y="278"/>
			<point x="181" y="338"/>
			<point x="301" y="338" type="curve" smooth="yes"/>
			<point x="411" y="338"/>
			<point x="482" y="286"/>
			<point x="463" y="188" type="curve" smooth="yes"/>
			<point x="445" y="98"/>
			<point x="352" y="37"/>
		</contour>
		<contour>
			<point x="311" y="391" type="curve" smooth="yes"/>
			<point x="202" y="391"/>
			<point x="159" y="457"/>
			<point x="172" y="527" type="curve" smooth="yes"/>
			<point x="186" y="597"/>
			<point x="254" y="663"/>
			<point x="364" y="663" type="curve" smooth="yes"/>
			<point x="474" y="663"/>
			<point x="516" y="597"/>
			<point x="502" y="527" type="curve" smooth="yes"/>
			<point x="489" y="457"/>
			<point x="421" y="391"/>
		</contour>
	</outline>
</glyph>
<glyph name="nine" format="2">
	<advance width="598"/>
	<unicode hex="0039"/>
	<outline>
		<contour>
			<point x="229" y="-16" type="curve" smooth="yes"/>
			<point x="369" y="-16"/>
			<point x="507" y="111"/>
			<point x="552" y="347" type="curve" smooth="yes"/>
			<point x="590" y="543"/>
			<point x="561" y="716"/>
			<point x="361" y="716" type="curve" smooth="yes"/>
			<point x="241" y="716"/>
			<point x="124" y="637"/>
			<point x="94" y="480" type="curve" smooth="yes"/>
			<point x="67" y="340"/>
			<point x="150" y="245"/>
			<point x="290" y="245" type="curve" smooth="yes"/>
			<point x="400" y="245"/>
			<point x="498" y="325"/>
			<point x="527" y="441" type="curve"/>
			<point x="517" y="449" type="line"/>
			<point x="492" y="190"/>
			<point x="359" y="37"/>
			<point x="229" y="37" type="curve" smooth="yes"/>
			<point x="119" y="37"/>
			<point x="102" y="121"/>
			<point x="92" y="170" type="curve"/>
			<point x="28" y="160" type="line"/>
			<point x="39" y="81"/>
			<point x="89" y="-16"/>
		</contour>
		<contour>
			<point x="290" y="298" type="curve" smooth="yes"/>
			<point x="190" y="298"/>
			<point x="133" y="380"/>
			<point x="152" y="480" type="curve" smooth="yes"/>
			<point x="172" y="580"/>
			<point x="255" y="663"/>
			<point x="361" y="663" type="curve" smooth="yes"/>
			<point x="461" y="663"/>
			<point x="525" y="598"/>
			<point x="501" y="480" type="curve" smooth="yes"/>
			<point x="482" y="380"/>
			<point x="390" y="298"/>
		</contour>
	</outline>
</glyph>
<glyph name="less" format="2">
	<advance width="589"/>
	<unicode hex="003C"/>
	<outline>
		<contour>
			<point x="441" y="26" type="line"/>
			<point x="453" y="83" type="line"/>
			<point x="112" y="293" type="line"/>
			<point x="109" y="283" type="line"/>
			<point x="532" y="492" type="line"/>
			<point x="544" y="555" type="line"/>
			<point x="80" y="326" type="line"/>
			<point x="67" y="255" type="line"/>
		</contour>
	</outline>
</glyph>
<glyph name="equal" format="2">
	<advance width="589"/>
	<unicode hex="003D"/>
	<outline>
		<contour>
			<point x="88" y="366" type="line"/>
			<point x="507" y="366" type="line"/>
			<point x="517" y="419" type="line"/>
			<point x="98" y="419" type="line"/>
		</contour>
		<contour>
			<point x="51" y="173" type="line"/>
			<point x="470" y="173" type="line"/>
			<point x="480" y="226" type="line"/>
			<point x="61" y="226" type="line"/>
		</contour>
	</outline>
</glyph>
<glyph name="greater" format="2">
	<advance width="589"/>
	<unicode hex="003E"/>
	<outline>
		<contour>
			<point x="22" y="26" type="line"/>
			<point x="486" y="255" type="line"/>
			<point x="499" y="326" type="line"/>
			<point x="125" y="555" type="line"/>
			<point x="113" y="498" type="line"/>
			<point x="456" y="289" type="line"/>
			<point x="457" y="299" type="line"/>
			<point x="34" y="89" type="line"/>
		</contour>
	</outline>
</glyph>
<glyph name="question" format="2">
	<advance width="520"/>
	<unicode hex="003F"/>
	<outline>
		<contour>
			<point x="171" y="166" type="line"/>
			<point x="224" y="166" type="line"/>
			<point x="254" y="320" type="line"/>
			<point x="244" y="310" type="line"/>
			<point x="339" y="310"/>
			<point x="476" y="385"/>
			<point x="501" y="512" type="curve" smooth="yes"/>
			<point x="523" y="620"/>
			<point x="453" y="716"/>
			<point x="328" y="716" type="curve" smooth="yes"/>
			<point x="208" y="716"/>
			<point x="100" y="633"/>
			<point x="73" y="496" type="curve"/>
			<point x="124" y="486" type="line"/>
			<point x="148" y="604"/>
			<point x="238" y="663"/>
			<point x="318" y="663" type="curve" smooth="yes"/>
			<point x="423" y="663"/>
			<point x="459" y="591"/>
			<point x="444" y="512" type="curve" smooth="yes"/>
			<point x="427" y="429"/>
			<point x="337" y="350"/>
			<point x="207" y="350" type="curve"/>
		</contour>
		<contour>
			<point x="129" y="0" type="line"/>
			<point x="203" y="0" type="line"/>
			<point x="217" y="74" type="line"/>
			<point x="143" y="74" type="line"/>
		</contour>
	</outline>
</glyph>
<glyph name="at" format="2">
	<advance width="877"/>
	<unicode hex="0040"/>
	<outline>
		<contour>
			<point x="362" y="-103" type="curve" smooth="yes"/>
			<point x="462" y="-103"/>
			<point x="554" y="-64"/>
			<point x="634" y="0" type="curve"/>
			<point x="565" y="0" type="line"/>
			<point x="504" y="-38"/>
			<point x="433" y="-60"/>
			<point x="362" y="-60" type="curve" smooth="yes"/>
			<point x="182" y="-60"/>
			<point x="50" y="103"/>
			<point x="89" y="299" type="curve" smooth="yes"/>
			<point x="125" y="486"/>
			<point x="296" y="617"/>
			<point x="484" y="617" type="curve" smooth="yes"/>
			<point x="680" y="617"/>
			<point x="801" y="466"/>
			<point x="765" y="279" type="curve"/>
			<point x="808" y="279" type="line"/>
			<point x="848" y="485"/>
			<point x="714" y="660"/>
			<point x="484" y="660" type="curve" smooth="yes"/>
			<point x="282" y="660"/>
			<point x="89" y="525"/>
			<point x="45" y="299" type="curve" smooth="yes"/>
			<point x="3" y="83"/>
			<point x="152" y="-103"/>
		</contour>
		<contour>
			<point x="376" y="141" type="curve" smooth="yes"/>
			<point x="342" y="141"/>
			<point x="308" y="166"/>
			<point x="317" y="212" type="curve" smooth="yes"/>
			<point x="325" y="257"/>
			<point x="384" y="276"/>
			<point x="439" y="279" type="curve" smooth="yes"/>
			<point x="486" y="280"/>
			<point x="547" y="292"/>
			<point x="548" y="369" type="curve"/>
			<point x="524" y="321" type="line"/>
			<point x="515" y="275" type="line" smooth="yes"/>
			<point x="498" y="188"/>
			<point x="444" y="141"/>
		</contour>
		<contour>
			<point x="625" y="99" type="curve" smooth="yes"/>
			<point x="715" y="99"/>
			<point x="787" y="171"/>
			<point x="808" y="279" type="curve"/>
			<point x="765" y="279" type="line"/>
			<point x="750" y="200"/>
			<point x="694" y="144"/>
			<point x="634" y="144" type="curve" smooth="yes"/>
			<point x="578" y="144"/>
			<point x="546" y="170"/>
			<point x="552" y="224" type="curve"/>
			<point x="577" y="347" type="line" smooth="yes"/>
			<point x="594" y="433"/>
			<point x="540" y="476"/>
			<point x="461" y="476" type="curve" smooth="yes"/>
			<point x="373" y="476"/>
			<point x="319" y="422"/>
			<point x="305" y="358" type="curve"/>
			<point x="349" y="349" type="line"/>
			<point x="361" y="397"/>
			<point x="398" y="431"/>
			<point x="461" y="431" type="curve" smooth="yes"/>
			<point x="502" y="431"/>
			<point x="534" y="410"/>
			<point x="534" y="377" type="curve" smooth="yes"/>
			<point x="534" y="350"/>
			<point x="516" y="326"/>
			<point x="455" y="324" type="curve" smooth="yes"/>
			<point x="385" y="321"/>
			<point x="287" y="304"/>
			<point x="268" y="214" type="curve" smooth="yes"/>
			<point x="256" y="148"/>
			<point x="304" y="96"/>
			<point x="369" y="96" type="curve" smooth="yes"/>
			<point x="437" y="96"/>
			<point x="499" y="145"/>
			<point x="519" y="223" type="curve"/>
			<point x="510" y="216" type="line"/>
			<point x="501" y="163"/>
			<point x="526" y="99"/>
		</contour>
	</outline>
</glyph>
<glyph name="A" format="2">
	<advance width="627"/>
	<unicode hex="0041"/>
	<outline>
		<contour>
			<point x="-44" y="0" type="line"/>
			<point x="17" y="0" type="line"/>
			<point x="386" y="678" type="line"/>
			<point x="374" y="678" type="line"/>
			<point x="478" y="0" type="line"/>
			<point x="533" y="0" type="line"/>
			<point x="425" y="700" type="line"/>
			<point x="336" y="700" type="line"/>
		</contour>
		<contour>
			<point x="132" y="236" type="line"/>
			<point x="455" y="236" type="line"/>
			<point x="465" y="289" type="line"/>
			<point x="142" y="289" type="line"/>
		</contour>
	</outline>
</glyph>
<glyph name="B" format="2">
	<advance width="585"/>
	<unicode hex="0042"/>
	<outline>
		<contour>
			<point x="54" y="0" type="line"/>
			<point x="231" y="0" type="line" smooth="yes"/>
			<point x="330" y="0"/>
			<point x="460" y="39"/>
			<point x="489" y="191" type="curve" smooth="yes"/>
			<point x="509" y="294"/>
			<point x="449" y="361"/>
			<point x="339" y="361" type="curve"/>
			<point x="338" y="357" type="line"/>
			<point x="438" y="357"/>
			<point x="498" y="441"/>
			<point x="512" y="515" type="curve" smooth="yes"/>
			<point x="538" y="648"/>
			<point x="435" y="700"/>
			<point x="327" y="700" type="curve" smooth="yes"/>
			<point x="170" y="700" type="line"/>
			<point x="160" y="647" type="line"/>
			<point x="317" y="647" type="line" smooth="yes"/>
			<point x="421" y="647"/>
			<point x="471" y="601"/>
			<point x="454" y="515" type="curve" smooth="yes"/>
			<point x="437" y="429"/>
			<point x="369" y="382"/>
			<point x="265" y="382" type="curve" smooth="yes"/>
			<point x="108" y="382" type="line"/>
			<point x="98" y="329" type="line"/>
			<point x="295" y="329" type="line" smooth="yes"/>
			<point x="389" y="329"/>
			<point x="450" y="288"/>
			<point x="431" y="191" type="curve" smooth="yes"/>
			<point x="412" y="94"/>
			<point x="335" y="53"/>
			<point x="241" y="53" type="curve" smooth="yes"/>
			<point x="64" y="53" type="line"/>
		</contour>
		<contour>
			<point x="21" y="0" type="line"/>
			<point x="74" y="0" type="line"/>
			<point x="210" y="700" type="line"/>
			<point x="157" y="700" type="line"/>
		</contour>
	</outline>
</glyph>
<glyph name="C" format="2">
	<advance width="731"/>
	<unicode hex="0043"/>
	<outline>
		<contour>
			<point x="305" y="-16" type="curve" smooth="yes"/>
			<point x="455" y="-16"/>
			<point x="592" y="99"/>
			<point x="642" y="258" type="curve"/>
			<point x="585" y="266" type="line"/>
			<point x="547" y="147"/>
			<point x="445" y="37"/>
			<point x="315" y="37" type="curve" smooth="yes"/>
			<point x="155" y="37"/>
			<point x="89" y="180"/>
			<point x="122" y="350" type="curve" smooth="yes"/>
			<point x="155" y="520"/>
			<point x="277" y="662"/>
			<point x="437" y="662" type="curve" smooth="yes"/>
			<point x="567" y="662"/>
			<point x="621" y="547"/>
			<point x="615" y="428" type="curve"/>
			<point x="677" y="437" type="line"/>
			<point x="689" y="596"/>
			<point x="597" y="716"/>
			<point x="447" y="716" type="curve" smooth="yes"/>
			<point x="277" y="716"/>
			<point x="109" y="580"/>
			<point x="64" y="350" type="curve" smooth="yes"/>
			<point x="19" y="120"/>
			<point x="135" y="-16"/>
		</contour>
	</outline>
</glyph>
<glyph name="D" format="2">
	<advance width="648"/>
	<unicode hex="0044"/>
	<outline>
		<contour>
			<point x="69" y="0" type="line"/>
			<point x="211" y="0" type="line" smooth="yes"/>
			<point x="411" y="0"/>
			<point x="540" y="110"/>
			<point x="587" y="350" type="curve" smooth="yes"/>
			<point x="634" y="590"/>
			<point x="547" y="700"/>
			<point x="347" y="700" type="curve" smooth="yes"/>
			<point x="205" y="700" type="line"/>
			<point x="195" y="647" type="line"/>
			<point x="337" y="647" type="line" smooth="yes"/>
			<point x="507" y="647"/>
			<point x="568" y="550"/>
			<point x="529" y="350" type="curve" smooth="yes"/>
			<point x="490" y="150"/>
			<point x="391" y="53"/>
			<point x="221" y="53" type="curve" smooth="yes"/>
			<point x="79" y="53" type="line"/>
		</contour>
		<contour>
			<point x="21" y="0" type="line"/>
			<point x="79" y="0" type="line"/>
			<point x="215" y="700" type="line"/>
			<point x="157" y="700" type="line"/>
		</contour>
	</outline>
</glyph>
<glyph name="E" format="2">
	<advance width="538"/>
	<unicode hex="0045"/>
	<outline>
		<contour>
			<point x="21" y="0" type="line"/>
			<point x="79" y="0" type="line"/>
			<point x="215" y="700" type="line"/>
			<point x="157" y="700" type="line"/>
		</contour>
		<contour>
			<point x="69" y="0" type="line"/>
			<point x="409" y="0" type="line"/>
			<point x="419" y="53" type="line"/>
			<point x="79" y="53" type="line"/>
		</contour>
		<contour>
			<point x="134" y="337" type="line"/>
			<point x="414" y="337" type="line"/>
			<point x="425" y="390" type="line"/>
			<point x="145" y="390" type="line"/>
		</contour>
		<contour>
			<point x="195" y="647" type="line"/>
			<point x="535" y="647" type="line"/>
			<point x="545" y="700" type="line"/>
			<point x="205" y="700" type="line"/>
		</contour>
	</outline>
</glyph>
<glyph name="F" format="2">
	<advance width="523"/>
	<unicode hex="0046"/>
	<outline>
		<contour>
			<point x="21" y="0" type="line"/>
			<point x="79" y="0" type="line"/>
			<point x="215" y="700" type="line"/>
			<point x="157" y="700" type="line"/>
		</contour>
		<contour>
			<point x="134" y="337" type="line"/>
			<point x="424" y="337" type="line"/>
			<point x="435" y="390" type="line"/>
			<point x="145" y="390" type="line"/>
		</contour>
		<contour>
			<point x="195" y="647" type="line"/>
			<point x="535" y="647" type="line"/>
			<point x="545" y="700" type="line"/>
			<point x="205" y="700" type="line"/>
		</contour>
	</outline>
</glyph>
<glyph name="G" format="2">
	<advance width="775"/>
	<unicode hex="0047"/>
	<outline>
		<contour>
			<point x="305" y="-16" type="curve" smooth="yes"/>
			<point x="425" y="-16"/>
			<point x="595" y="71"/>
			<point x="659" y="301" type="curve"/>
			<point x="653" y="309" type="line"/>
			<point x="579" y="0" type="line"/>
			<point x="631" y="0" type="line"/>
			<point x="698" y="344" type="line"/>
			<point x="390" y="344" type="line"/>
			<point x="380" y="291" type="line"/>
			<point x="624" y="291" type="line"/>
			<point x="581" y="148"/>
			<point x="439" y="37"/>
			<point x="315" y="37" type="curve" smooth="yes"/>
			<point x="159" y="37"/>
			<point x="90" y="186"/>
			<point x="122" y="350" type="curve" smooth="yes"/>
			<point x="154" y="514"/>
			<point x="281" y="662"/>
			<point x="437" y="662" type="curve" smooth="yes"/>
			<point x="579" y="662"/>
			<point x="641" y="543"/>
			<point x="631" y="432" type="curve"/>
			<point x="690" y="440" type="line"/>
			<point x="705" y="600"/>
			<point x="597" y="715"/>
			<point x="447" y="715" type="curve" smooth="yes"/>
			<point x="281" y="715"/>
			<point x="108" y="576"/>
			<point x="64" y="350" type="curve" smooth="yes"/>
			<point x="20" y="124"/>
			<point x="139" y="-16"/>
		</contour>
	</outline>
</glyph>
<glyph name="H" format="2">
	<advance width="656"/>
	<unicode hex="0048"/>
	<outline>
		<contour>
			<point x="439" y="0" type="line"/>
			<point x="497" y="0" type="line"/>
			<point x="633" y="700" type="line"/>
			<point x="575" y="700" type="line"/>
		</contour>
		<contour>
			<point x="21" y="0" type="line"/>
			<point x="79" y="0" type="line"/>
			<point x="215" y="700" type="line"/>
			<point x="157" y="700" type="line"/>
		</contour>
		<contour>
			<point x="124" y="337" type="line"/>
			<point x="524" y="337" type="line"/>
			<point x="535" y="390" type="line"/>
			<point x="135" y="390" type="line"/>
		</contour>
	</outline>
</glyph>
<glyph name="I" format="2">
	<advance width="238"/>
	<unicode hex="0049"/>
	<outline>
		<contour>
			<point x="21" y="0" type="line"/>
			<point x="79" y="0" type="line"/>
			<point x="215" y="700" type="line"/>
			<point x="157" y="700" type="line"/>
		</contour>
	</outline>
</glyph>
<glyph name="J" format="2">
	<advance width="546"/>
	<unicode hex="004A"/>
	<outline>
		<contour>
			<point x="202" y="-16" type="curve" smooth="yes"/>
			<point x="322" y="-16"/>
			<point x="400" y="45"/>
			<point x="431" y="202" type="curve" smooth="yes"/>
			<point x="528" y="700" type="line"/>
			<point x="470" y="700" type="line"/>
			<point x="373" y="202" type="line" smooth="yes"/>
			<point x="348" y="74"/>
			<point x="282" y="37"/>
			<point x="202" y="37" type="curve" smooth="yes"/>
			<point x="122" y="37"/>
			<point x="51" y="84"/>
			<point x="74" y="202" type="curve" smooth="yes"/>
			<point x="87" y="270" type="line"/>
			<point x="29" y="270" type="line"/>
			<point x="16" y="202" type="line" smooth="yes"/>
			<point x="-8" y="74"/>
			<point x="72" y="-16"/>
		</contour>
	</outline>
</glyph>
<glyph name="K" format="2">
	<advance width="587"/>
	<unicode hex="004B"/>
	<outline>
		<contour>
			<point x="127" y="248" type="line"/>
			<point x="597" y="700" type="line"/>
			<point x="529" y="700" type="line"/>
			<point x="91" y="281" type="line"/>
		</contour>
		<contour>
			<point x="21" y="0" type="line"/>
			<point x="79" y="0" type="line"/>
			<point x="215" y="700" type="line"/>
			<point x="157" y="700" type="line"/>
		</contour>
		<contour>
			<point x="427" y="0" type="line"/>
			<point x="493" y="0" type="line"/>
			<point x="296" y="437" type="line"/>
			<point x="255" y="388" type="line"/>
		</contour>
	</outline>
</glyph>
<glyph name="L" format="2">
	<advance width="498"/>
	<unicode hex="004C"/>
	<outline>
		<contour>
			<point x="21" y="0" type="line"/>
			<point x="79" y="0" type="line"/>
			<point x="215" y="700" type="line"/>
			<point x="157" y="700" type="line"/>
		</contour>
		<contour>
			<point x="64" y="0" type="line"/>
			<point x="404" y="0" type="line"/>
			<point x="414" y="53" type="line"/>
			<point x="74" y="53" type="line"/>
		</contour>
	</outline>
</glyph>
<glyph name="M" format="2">
	<advance width="818"/>
	<unicode hex="004D"/>
	<outline>
		<contour>
			<point x="21" y="0" type="line"/>
			<point x="79" y="0" type="line"/>
			<point x="202" y="632" type="line"/>
			<point x="199" y="632" type="line"/>
			<point x="317" y="0" type="line"/>
			<point x="363" y="0" type="line"/>
			<point x="727" y="632" type="line"/>
			<point x="724" y="632" type="line"/>
			<point x="601" y="0" type="line"/>
			<point x="659" y="0" type="line"/>
			<point x="795" y="700" type="line"/>
			<point x="708" y="700" type="line"/>
			<point x="352" y="81" type="line"/>
			<point x="360" y="81" type="line"/>
			<point x="243" y="700" type="line"/>
			<point x="157" y="700" type="line"/>
		</contour>
	</outline>
</glyph>
<glyph name="N" format="2">
	<advance width="701"/>
	<unicode hex="004E"/>
	<outline>
		<contour>
			<point x="464" y="0" type="line"/>
			<point x="524" y="0" type="line"/>
			<point x="235" y="700" type="line"/>
			<point x="175" y="700" type="line"/>
		</contour>
		<contour>
			<point x="21" y="0" type="line"/>
			<point x="80" y="0" type="line"/>
			<point x="216" y="700" type="line"/>
			<point x="157" y="700" type="line"/>
		</contour>
		<contour>
			<point x="483" y="0" type="line"/>
			<point x="542" y="0" type="line"/>
			<point x="678" y="700" type="line"/>
			<point x="619" y="700" type="line"/>
		</contour>
	</outline>
</glyph>
<glyph name="O" format="2">
	<advance width="754"/>
	<unicode hex="004F"/>
	<outline>
		<contour>
			<point x="305" y="-16" type="curve" smooth="yes"/>
			<point x="475" y="-16"/>
			<point x="642" y="114"/>
			<point x="688" y="350" type="curve" smooth="yes"/>
			<point x="730" y="566"/>
			<point x="617" y="716"/>
			<point x="447" y="716" type="curve" smooth="yes"/>
			<point x="277" y="716"/>
			<point x="110" y="586"/>
			<point x="64" y="350" type="curve" smooth="yes"/>
			<point x="22" y="134"/>
			<point x="135" y="-16"/>
		</contour>
		<contour>
			<point x="315" y="37" type="curve" smooth="yes"/>
			<point x="155" y="37"/>
			<point x="89" y="180"/>
			<point x="122" y="350" type="curve" smooth="yes"/>
			<point x="155" y="520"/>
			<point x="277" y="663"/>
			<point x="437" y="663" type="curve" smooth="yes"/>
			<point x="597" y="663"/>
			<point x="663" y="520"/>
			<point x="630" y="350" type="curve" smooth="yes"/>
			<point x="597" y="180"/>
			<point x="475" y="37"/>
		</contour>
	</outline>
</glyph>
<glyph name="Q" format="2">
	<advance width="775"/>
	<unicode hex="0051"/>
	<outline>
		<contour>
			<point x="587" y="-66" type="line"/>
			<point x="649" y="-66" type="line"/>
			<point x="400" y="346" type="line"/>
			<point x="338" y="346" type="line"/>
		</contour>
		<component base="O"/>
	</outline>
</glyph>
<glyph name="R" format="2">
	<advance width="600"/>
	<unicode hex="0052"/>
	<outline>
		<contour>
			<point x="21" y="0" type="line"/>
			<point x="79" y="0" type="line"/>
			<point x="143" y="329" type="line"/>
			<point x="316" y="329" type="line" smooth="yes"/>
			<point x="440" y="329"/>
			<point x="440" y="268"/>
			<point x="428" y="185" type="curve" smooth="yes"/>
			<point x="401" y="0" type="line"/>
			<point x="461" y="0" type="line"/>
			<point x="485" y="168" type="line" smooth="yes"/>
			<point x="506" y="317"/>
			<point x="480" y="352"/>
			<point x="354" y="352" type="curve"/>
			<point x="354" y="350" type="line"/>
			<point x="442" y="350"/>
			<point x="530" y="401"/>
			<point x="552" y="514" type="curve" smooth="yes"/>
			<point x="577" y="643"/>
			<point x="494" y="700"/>
			<point x="367" y="700" type="curve" smooth="yes"/>
			<point x="157" y="700" type="line"/>
		</contour>
		<contour>
			<point x="153" y="382" type="line"/>
			<point x="205" y="647" type="line"/>
			<point x="357" y="647" type="line" smooth="yes"/>
			<point x="451" y="647"/>
			<point x="513" y="611"/>
			<point x="494" y="514" type="curve" smooth="yes"/>
			<point x="475" y="417"/>
			<point x="399" y="382"/>
			<point x="305" y="382" type="curve" smooth="yes"/>
		</contour>
	</outline>
</glyph>
<glyph name="T" format="2">
	<advance width="608"/>
	<unicode hex="0054"/>
	<outline>
		<contour>
			<point x="206" y="0" type="line"/>
			<point x="264" y="0" type="line"/>
			<point x="392" y="657" type="line"/>
			<point x="334" y="657" type="line"/>
		</contour>
		<contour>
			<point x="82" y="647" type="line"/>
			<point x="640" y="647" type="line"/>
			<point x="650" y="700" type="line"/>
			<point x="92" y="700" type="line"/>
		</contour>
	</outline>
</glyph>
<glyph name="U" format="2">
	<advance width="645"/>
	<unicode hex="0055"/>
	<outline>
		<contour>
			<point x="251" y="-16" type="curve" smooth="yes"/>
			<point x="391" y="-16"/>
			<point x="502" y="55"/>
			<point x="538" y="242" type="curve" smooth="yes"/>
			<point x="627" y="700" type="line"/>
			<point x="569" y="700" type="line"/>
			<point x="480" y="242" type="line" smooth="yes"/>
			<point x="449" y="85"/>
			<point x="351" y="37"/>
			<point x="261" y="37" type="curve" smooth="yes"/>
			<point x="161" y="37"/>
			<point x="90" y="85"/>
			<point x="121" y="242" type="curve" smooth="yes"/>
			<point x="210" y="700" type="line"/>
			<point x="152" y="700" type="line"/>
			<point x="63" y="242" type="line" smooth="yes"/>
			<point x="29" y="67"/>
			<point x="121" y="-16"/>
		</contour>
	</outline>
</glyph>
<glyph name="V" format="2">
	<advance width="584"/>
	<unicode hex="0056"/>
	<outline>
		<contour>
			<point x="182" y="0" type="line"/>
			<point x="264" y="0" type="line"/>
			<point x="626" y="700" type="line"/>
			<point x="564" y="700" type="line"/>
			<point x="221" y="36" type="line"/>
			<point x="233" y="36" type="line"/>
			<point x="149" y="700" type="line"/>
			<point x="92" y="700" type="line"/>
		</contour>
	</outline>
</glyph>
<glyph name="W" format="2">
	<advance width="819"/>
	<unicode hex="0057"/>
	<outline>
		<contour>
			<point x="138" y="0" type="line"/>
			<point x="207" y="0" type="line"/>
			<point x="455" y="587" type="line"/>
			<point x="454" y="587" type="line"/>
			<point x="474" y="0" type="line"/>
			<point x="543" y="0" type="line"/>
			<point x="846" y="700" type="line"/>
			<point x="786" y="700" type="line"/>
			<point x="503" y="38" type="line"/>
			<point x="526" y="38" type="line"/>
			<point x="505" y="700" type="line"/>
			<point x="447" y="700" type="line"/>
			<point x="168" y="38" type="line"/>
			<point x="192" y="38" type="line"/>
			<point x="163" y="700" type="line"/>
			<point x="107" y="700" type="line"/>
		</contour>
	</outline>
</glyph>
<glyph name="X" format="2">
	<advance width="569"/>
	<unicode hex="0058"/>
	<outline>
		<contour>
			<point x="423" y="0" type="line"/>
			<point x="480" y="0" type="line"/>
			<point x="159" y="700" type="line"/>
			<point x="102" y="700" type="line"/>
		</contour>
		<contour>
			<point x="-44" y="0" type="line"/>
			<point x="23" y="0" type="line"/>
			<point x="616" y="700" type="line"/>
			<point x="549" y="700" type="line"/>
		</contour>
	</outline>
</glyph>
<glyph name="Y" format="2">
	<advance width="530"/>
	<unicode hex="0059"/>
	<outline>
		<contour>
			<point x="81" y="0" type="line"/>
			<point x="139" y="0" type="line"/>
			<point x="572" y="700" type="line"/>
			<point x="514" y="700" type="line"/>
		</contour>
		<contour>
			<point x="211" y="187" type="line"/>
			<point x="256" y="247" type="line"/>
			<point x="150" y="700" type="line"/>
			<point x="92" y="700" type="line"/>
		</contour>
	</outline>
</glyph>
<glyph name="Z" format="2">
	<advance width="571"/>
	<unicode hex="005A"/>
	<outline>
		<contour>
			<point x="7" y="53" type="line"/>
			<point x="70" y="53" type="line"/>
			<point x="553" y="647" type="line"/>
			<point x="490" y="647" type="line"/>
		</contour>
		<contour>
			<point x="-3" y="0" type="line"/>
			<point x="427" y="0" type="line"/>
			<point x="437" y="53" type="line"/>
			<point x="7" y="53" type="line"/>
		</contour>
		<contour>
			<point x="123" y="647" type="line"/>
			<point x="553" y="647" type="line"/>
			<point x="563" y="700" type="line"/>
			<point x="133" y="700" type="line"/>
		</contour>
	</outline>
</glyph>
<glyph name="bracketleft" format="2">
	<advance width="364"/>
	<unicode hex="005B"/>
	<outline>
		<contour>
			<point x="16" y="-110" type="line"/>
			<point x="71" y="-110" type="line"/>
			<point x="231" y="716" type="line"/>
			<point x="176" y="716" type="line"/>
		</contour>
		<contour>
			<point x="61" y="-110" type="line"/>
			<point x="219" y="-110" type="line"/>
			<point x="229" y="-57" type="line"/>
			<point x="71" y="-57" type="line"/>
		</contour>
		<contour>
			<point x="211" y="664" type="line"/>
			<point x="369" y="664" type="line"/>
			<point x="379" y="716" type="line"/>
			<point x="221" y="716" type="line"/>
		</contour>
	</outline>
</glyph>
<glyph name="backslash" format="2">
	<advance width="475"/>
	<unicode hex="005C"/>
	<outline>
		<contour>
			<point x="273" y="-110" type="line"/>
			<point x="330" y="-110" type="line"/>
			<point x="183" y="716" type="line"/>
			<point x="126" y="716" type="line"/>
		</contour>
	</outline>
</glyph>
<glyph name="bracketright" format="2">
	<advance width="364"/>
	<unicode hex="005D"/>
	<outline>
		<contour>
			<point x="114" y="-110" type="line"/>
			<point x="169" y="-110" type="line"/>
			<point x="329" y="716" type="line"/>
			<point x="274" y="716" type="line"/>
		</contour>
		<contour>
			<point x="-34" y="-110" type="line"/>
			<point x="124" y="-110" type="line"/>
			<point x="134" y="-57" type="line"/>
			<point x="-24" y="-57" type="line"/>
		</contour>
		<contour>
			<point x="116" y="664" type="line"/>
			<point x="274" y="664" type="line"/>
			<point x="284" y="716" type="line"/>
			<point x="126" y="716" type="line"/>
		</contour>
	</outline>
</glyph>
<glyph name="underscore" format="2">
	<advance width="315"/>
	<unicode hex="005F"/>
	<outline>
		<contour>
			<point x="-82" y="-69" type="line"/>
			<point x="233" y="-69" type="line"/>
			<point x="243" y="-16" type="line"/>
			<point x="-72" y="-16" type="line"/>
		</contour>
	</outline>
</glyph>
<glyph name="grave" format="2">
	<advance width="400"/>
	<unicode hex="0060"/>
	<outline>
		<contour>
			<point x="264" y="590" type="line"/>
			<point x="306" y="590" type="line"/>
			<point x="279" y="720" type="line"/>
			<point x="211" y="720" type="line"/>
		</contour>
	</outline>
</glyph>
<glyph name="a" format="2">
	<advance width="517"/>
	<unicode hex="0061"/>
	<outline>
		<contour>
			<point x="153" y="-16" type="curve" smooth="yes"/>
			<point x="253" y="-16"/>
			<point x="345" y="63"/>
			<point x="368" y="180" type="curve"/>
			<point x="348" y="129" type="line"/>
			<point x="323" y="0" type="line"/>
			<point x="378" y="0" type="line"/>
			<point x="444" y="339" type="line" smooth="yes"/>
			<point x="467" y="457"/>
			<point x="395" y="516"/>
			<point x="285" y="516" type="curve" smooth="yes"/>
			<point x="165" y="516"/>
			<point x="90" y="444"/>
			<point x="69" y="357" type="curve"/>
			<point x="121" y="347" type="line"/>
			<point x="139" y="415"/>
			<point x="195" y="463"/>
			<point x="285" y="463" type="curve" smooth="yes"/>
			<point x="345" y="463"/>
			<point x="395" y="430"/>
			<point x="395" y="380" type="curve" smooth="yes"/>
			<point x="395" y="340"/>
			<point x="366" y="302"/>
			<point x="276" y="298" type="curve" smooth="yes"/>
			<point x="176" y="294"/>
			<point x="40" y="272"/>
			<point x="15" y="145" type="curve" smooth="yes"/>
			<point x="-2" y="56"/>
			<point x="63" y="-16"/>
		</contour>
		<contour>
			<point x="163" y="37" type="curve" smooth="yes"/>
			<point x="113" y="37"/>
			<point x="60" y="76"/>
			<point x="73" y="145" type="curve" smooth="yes"/>
			<point x="86" y="213"/>
			<point x="173" y="242"/>
			<point x="253" y="245" type="curve" smooth="yes"/>
			<point x="313" y="247"/>
			<point x="385" y="260"/>
			<point x="400" y="339" type="curve"/>
			<point x="381" y="299" type="line"/>
			<point x="368" y="233" type="line" smooth="yes"/>
			<point x="343" y="107"/>
			<point x="263" y="37"/>
		</contour>
	</outline>
</glyph>
<glyph name="b" format="2">
	<advance width="571"/>
	<unicode hex="0062"/>
	<outline>
		<contour>
			<point x="11" y="0" type="line"/>
			<point x="66" y="0" type="line"/>
			<point x="202" y="700" type="line"/>
			<point x="147" y="700" type="line"/>
		</contour>
		<contour>
			<point x="237" y="-16" type="curve" smooth="yes"/>
			<point x="367" y="-16"/>
			<point x="470" y="93"/>
			<point x="501" y="250" type="curve" smooth="yes"/>
			<point x="525" y="378"/>
			<point x="460" y="516"/>
			<point x="330" y="516" type="curve" smooth="yes"/>
			<point x="210" y="516"/>
			<point x="139" y="428"/>
			<point x="120" y="330" type="curve" smooth="yes"/>
			<point x="89" y="170" type="line" smooth="yes"/>
			<point x="70" y="72"/>
			<point x="137" y="-16"/>
		</contour>
		<contour>
			<point x="237" y="37" type="curve" smooth="yes"/>
			<point x="147" y="37"/>
			<point x="87" y="110"/>
			<point x="115" y="250" type="curve" smooth="yes"/>
			<point x="142" y="390"/>
			<point x="230" y="463"/>
			<point x="320" y="463" type="curve" smooth="yes"/>
			<point x="410" y="463"/>
			<point x="469" y="388"/>
			<point x="443" y="250" type="curve" smooth="yes"/>
			<point x="416" y="113"/>
			<point x="327" y="37"/>
		</contour>
	</outline>
</glyph>
<glyph name="c" format="2">
	<advance width="536"/>
	<unicode hex="0063"/>
	<outline>
		<contour>
			<point x="215" y="-16" type="curve" smooth="yes"/>
			<point x="325" y="-16"/>
			<point x="417" y="69"/>
			<point x="454" y="188" type="curve"/>
			<point x="397" y="196" type="line"/>
			<point x="375" y="119"/>
			<point x="315" y="37"/>
			<point x="215" y="37" type="curve" smooth="yes"/>
			<point x="105" y="37"/>
			<point x="67" y="140"/>
			<point x="92" y="268" type="curve" smooth="yes"/>
			<point x="109" y="356"/>
			<point x="178" y="463"/>
			<point x="298" y="463" type="curve" smooth="yes"/>
			<point x="398" y="463"/>
			<point x="425" y="388"/>
			<point x="417" y="298" type="curve"/>
			<point x="476" y="306" type="line"/>
			<point x="486" y="416"/>
			<point x="428" y="516"/>
			<point x="298" y="516" type="curve" smooth="yes"/>
			<point x="178" y="516"/>
			<point x="64" y="425"/>
			<point x="34" y="268" type="curve" smooth="yes"/>
			<point x="0" y="91"/>
			<point x="85" y="-16"/>
		</contour>
	</outline>
</glyph>
<glyph name="e" format="2">
	<advance width="532"/>
	<unicode hex="0065"/>
	<outline>
		<contour>
			<point x="225" y="-16" type="curve" smooth="yes"/>
			<point x="335" y="-16"/>
			<point x="397" y="53"/>
			<point x="434" y="135" type="curve"/>
			<point x="377" y="145" type="line"/>
			<point x="350" y="91"/>
			<point x="315" y="37"/>
			<point x="225" y="37" type="curve" smooth="yes"/>
			<point x="115" y="37"/>
			<point x="70" y="152"/>
			<point x="87" y="240" type="curve"/>
			<point x="460" y="240" type="line"/>
			<point x="461" y="248" type="line" smooth="yes"/>
			<point x="483" y="427"/>
			<point x="389" y="516"/>
			<point x="279" y="516" type="curve" smooth="yes"/>
			<point x="159" y="516"/>
			<point x="63" y="415"/>
			<point x="34" y="268" type="curve" smooth="yes"/>
			<point x="5" y="121"/>
			<point x="85" y="-16"/>
		</contour>
		<contour>
			<point x="96" y="288" type="line"/>
			<point x="115" y="386"/>
			<point x="189" y="463"/>
			<point x="279" y="463" type="curve" smooth="yes"/>
			<point x="379" y="463"/>
			<point x="426" y="367"/>
			<point x="411" y="288" type="curve"/>
		</contour>
	</outline>
</glyph>
<glyph name="f" format="2">
	<advance width="364"/>
	<unicode hex="0066"/>
	<outline>
		<contour>
			<point x="65" y="0" type="line"/>
			<point x="120" y="0" type="line"/>
			<point x="234" y="587" type="line" smooth="yes"/>
			<point x="243" y="632"/>
			<point x="273" y="657"/>
			<point x="318" y="657" type="curve" smooth="yes"/>
			<point x="398" y="657" type="line"/>
			<point x="408" y="710" type="line"/>
			<point x="333" y="710" type="line" smooth="yes"/>
			<point x="247" y="710"/>
			<point x="194" y="666"/>
			<point x="178" y="580" type="curve" smooth="yes"/>
		</contour>
		<contour>
			<point x="44" y="447" type="line"/>
			<point x="357" y="447" type="line"/>
			<point x="367" y="500" type="line"/>
			<point x="54" y="500" type="line"/>
		</contour>
	</outline>
</glyph>
<glyph name="h" format="2">
	<advance width="538"/>
	<unicode hex="0068"/>
	<outline>
		<contour>
			<point x="339" y="0" type="line"/>
			<point x="394" y="0" type="line"/>
			<point x="460" y="339" type="line" smooth="yes"/>
			<point x="483" y="459"/>
			<point x="431" y="516"/>
			<point x="341" y="516" type="curve" smooth="yes"/>
			<point x="241" y="516"/>
			<point x="143" y="449"/>
			<point x="118" y="319" type="curve"/>
			<point x="113" y="243" type="line"/>
			<point x="144" y="403"/>
			<point x="231" y="463"/>
			<point x="316" y="463" type="curve" smooth="yes"/>
			<point x="396" y="463"/>
			<point x="418" y="409"/>
			<point x="399" y="309" type="curve" smooth="yes"/>
		</contour>
		<contour>
			<point x="11" y="0" type="line"/>
			<point x="66" y="0" type="line"/>
			<point x="202" y="700" type="line"/>
			<point x="147" y="700" type="line"/>
		</contour>
	</outline>
</glyph>
<glyph name="k" format="2">
	<advance width="498"/>
	<unicode hex="006B"/>
	<outline>
		<contour>
			<point x="58" y="127" type="line"/>
			<point x="478" y="500" type="line"/>
			<point x="411" y="500" type="line"/>
			<point x="72" y="201" type="line"/>
		</contour>
		<contour>
			<point x="11" y="0" type="line"/>
			<point x="66" y="0" type="line"/>
			<point x="202" y="700" type="line"/>
			<point x="147" y="700" type="line"/>
		</contour>
		<contour>
			<point x="335" y="0" type="line"/>
			<point x="399" y="0" type="line"/>
			<point x="266" y="343" type="line"/>
			<point x="226" y="290" type="line"/>
		</contour>
	</outline>
</glyph>
<glyph name="l" format="2">
	<advance width="215"/>
	<unicode hex="006C"/>
	<outline>
		<contour>
			<point x="11" y="0" type="line"/>
			<point x="66" y="0" type="line"/>
			<point x="204" y="710" type="line"/>
			<point x="149" y="710" type="line"/>
		</contour>
	</outline>
</glyph>
<glyph name="m" format="2">
	<advance width="847"/>
	<unicode hex="006D"/>
	<outline>
		<contour>
			<point x="12" y="0" type="line"/>
			<point x="67" y="0" type="line"/>
			<point x="164" y="500" type="line"/>
			<point x="109" y="500" type="line"/>
		</contour>
		<contour>
			<point x="330" y="0" type="line"/>
			<point x="385" y="0" type="line"/>
			<point x="451" y="339" type="line" smooth="yes"/>
			<point x="474" y="459"/>
			<point x="422" y="516"/>
			<point x="332" y="516" type="curve" smooth="yes"/>
			<point x="232" y="516"/>
			<point x="144" y="449"/>
			<point x="119" y="319" type="curve"/>
			<point x="114" y="243" type="line"/>
			<point x="145" y="403"/>
			<point x="222" y="463"/>
			<point x="307" y="463" type="curve" smooth="yes"/>
			<point x="387" y="463"/>
			<point x="409" y="409"/>
			<point x="390" y="309" type="curve" smooth="yes"/>
		</contour>
		<contour>
			<point x="648" y="0" type="line"/>
			<point x="703" y="0" type="line"/>
			<point x="769" y="339" type="line" smooth="yes"/>
			<point x="792" y="459"/>
			<point x="740" y="516"/>
			<point x="650" y="516" type="curve" smooth="yes"/>
			<point x="550" y="516"/>
			<point x="462" y="449"/>
			<point x="437" y="319" type="curve"/>
			<point x="432" y="243" type="line"/>
			<point x="463" y="403"/>
			<point x="540" y="463"/>
			<point x="625" y="463" type="curve" smooth="yes"/>
			<point x="705" y="463"/>
			<point x="727" y="409"/>
			<point x="708" y="309" type="curve" smooth="yes"/>
		</contour>
	</outline>
</glyph>
<glyph name="n" format="2">
	<advance width="539"/>
	<unicode hex="006E"/>
	<outline>
		<contour>
			<point x="340" y="0" type="line"/>
			<point x="395" y="0" type="line"/>
			<point x="461" y="339" type="line" smooth="yes"/>
			<point x="484" y="459"/>
			<point x="432" y="516"/>
			<point x="342" y="516" type="curve" smooth="yes"/>
			<point x="242" y="516"/>
			<point x="144" y="449"/>
			<point x="119" y="319" type="curve"/>
			<point x="114" y="243" type="line"/>
			<point x="145" y="403"/>
			<point x="232" y="463"/>
			<point x="317" y="463" type="curve" smooth="yes"/>
			<point x="397" y="463"/>
			<point x="419" y="409"/>
			<point x="400" y="309" type="curve" smooth="yes"/>
		</contour>
		<contour>
			<point x="12" y="0" type="line"/>
			<point x="67" y="0" type="line"/>
			<point x="164" y="500" type="line"/>
			<point x="109" y="500" type="line"/>
		</contour>
	</outline>
</glyph>
<glyph name="o" format="2">
	<advance width="551"/>
	<unicode hex="006F"/>
	<outline>
		<contour>
			<point x="215" y="-16" type="curve" smooth="yes"/>
			<point x="345" y="-16"/>
			<point x="449" y="81"/>
			<point x="481" y="248" type="curve" smooth="yes"/>
			<point x="507" y="385"/>
			<point x="448" y="516"/>
			<point x="298" y="516" type="curve" smooth="yes"/>
			<point x="168" y="516"/>
			<point x="62" y="415"/>
			<point x="30" y="248" type="curve" smooth="yes"/>
			<point x="4" y="111"/>
			<point x="65" y="-16"/>
		</contour>
		<contour>
			<point x="225" y="37" type="curve" smooth="yes"/>
			<point x="105" y="37"/>
			<point x="65" y="130"/>
			<point x="88" y="248" type="curve" smooth="yes"/>
			<point x="113" y="376"/>
			<point x="188" y="463"/>
			<point x="288" y="463" type="curve" smooth="yes"/>
			<point x="408" y="463"/>
			<point x="447" y="366"/>
			<point x="424" y="248" type="curve" smooth="yes"/>
			<point x="399" y="120"/>
			<point x="325" y="37"/>
		</contour>
	</outline>
</glyph>
<glyph name="p" format="2">
	<advance width="571"/>
	<unicode hex="0070"/>
	<outline>
		<contour>
			<point x="237" y="-16" type="curve" smooth="yes"/>
			<point x="367" y="-16"/>
			<point x="470" y="93"/>
			<point x="501" y="250" type="curve" smooth="yes"/>
			<point x="525" y="378"/>
			<point x="460" y="516"/>
			<point x="330" y="516" type="curve" smooth="yes"/>
			<point x="210" y="516"/>
			<point x="139" y="428"/>
			<point x="120" y="330" type="curve" smooth="yes"/>
			<point x="89" y="170" type="line" smooth="yes"/>
			<point x="70" y="72"/>
			<point x="137" y="-16"/>
		</contour>
		<contour>
			<point x="237" y="37" type="curve" smooth="yes"/>
			<point x="147" y="37"/>
			<point x="87" y="110"/>
			<point x="115" y="250" type="curve" smooth="yes"/>
			<point x="142" y="390"/>
			<point x="230" y="463"/>
			<point x="320" y="463" type="curve" smooth="yes"/>
			<point x="410" y="463"/>
			<point x="469" y="388"/>
			<point x="443" y="250" type="curve" smooth="yes"/>
			<point x="416" y="113"/>
			<point x="327" y="37"/>
		</contour>
		<contour>
			<point x="-27" y="-200" type="line"/>
			<point x="28" y="-200" type="line"/>
			<point x="164" y="500" type="line"/>
			<point x="109" y="500" type="line"/>
		</contour>
	</outline>
</glyph>
<glyph name="q" format="2">
	<advance width="571"/>
	<unicode hex="0071"/>
	<outline>
		<contour>
			<point x="329" y="-200" type="line"/>
			<point x="384" y="-200" type="line"/>
			<point x="520" y="500" type="line"/>
			<point x="465" y="500" type="line"/>
		</contour>
		<contour>
			<point x="201" y="-16" type="curve" smooth="yes"/>
			<point x="321" y="-16"/>
			<point x="392" y="72"/>
			<point x="411" y="170" type="curve" smooth="yes"/>
			<point x="442" y="330" type="line" smooth="yes"/>
			<point x="461" y="428"/>
			<point x="394" y="516"/>
			<point x="294" y="516" type="curve" smooth="yes"/>
			<point x="164" y="516"/>
			<point x="61" y="407"/>
			<point x="30" y="250" type="curve" smooth="yes"/>
			<point x="6" y="122"/>
			<point x="71" y="-16"/>
		</contour>
		<contour>
			<point x="211" y="37" type="curve" smooth="yes"/>
			<point x="121" y="37"/>
			<point x="62" y="112"/>
			<point x="88" y="250" type="curve" smooth="yes"/>
			<point x="115" y="387"/>
			<point x="204" y="463"/>
			<point x="294" y="463" type="curve" smooth="yes"/>
			<point x="384" y="463"/>
			<point x="444" y="390"/>
			<point x="416" y="250" type="curve" smooth="yes"/>
			<point x="389" y="110"/>
			<point x="301" y="37"/>
		</contour>
	</outline>
</glyph>
<glyph name="r" format="2">
	<advance width="369"/>
	<unicode hex="0072"/>
	<outline>
		<contour>
			<point x="17" y="0" type="line"/>
			<point x="72" y="0" type="line"/>
			<point x="118" y="238" type="line" smooth="yes"/>
			<point x="144" y="372"/>
			<point x="203" y="447"/>
			<point x="290" y="447" type="curve" smooth="yes"/>
			<point x="362" y="447" type="line"/>
			<point x="372" y="500" type="line"/>
			<point x="290" y="500" type="line" smooth="yes"/>
			<point x="217" y="500"/>
			<point x="144" y="413"/>
			<point x="119" y="285" type="curve"/>
			<point x="139" y="346" type="line"/>
			<point x="169" y="500" type="line"/>
			<point x="114" y="500" type="line"/>
		</contour>
	</outline>
</glyph>
<glyph name="s" format="2">
	<advance width="488"/>
	<unicode hex="0073"/>
	<outline>
		<contour>
			<point x="205" y="-16" type="curve" smooth="yes"/>
			<point x="335" y="-16"/>
			<point x="408" y="56"/>
			<point x="408" y="136" type="curve" smooth="yes"/>
			<point x="408" y="316"/>
			<point x="128" y="253"/>
			<point x="128" y="373" type="curve" smooth="yes"/>
			<point x="128" y="433"/>
			<point x="188" y="463"/>
			<point x="258" y="463" type="curve" smooth="yes"/>
			<point x="338" y="463"/>
			<point x="378" y="421"/>
			<point x="378" y="371" type="curve"/>
			<point x="434" y="381" type="line"/>
			<point x="434" y="461"/>
			<point x="358" y="516"/>
			<point x="258" y="516" type="curve" smooth="yes"/>
			<point x="148" y="516"/>
			<point x="70" y="453"/>
			<point x="70" y="373" type="curve" smooth="yes"/>
			<point x="70" y="203"/>
			<point x="350" y="276"/>
			<point x="350" y="136" type="curve" smooth="yes"/>
			<point x="350" y="76"/>
			<point x="295" y="37"/>
			<point x="205" y="37" type="curve" smooth="yes"/>
			<point x="117" y="37"/>
			<point x="63" y="91"/>
			<point x="63" y="171" type="curve"/>
			<point x="8" y="161" type="line"/>
			<point x="8" y="61"/>
			<point x="83" y="-16"/>
		</contour>
	</outline>
</glyph>
<glyph name="t" format="2">
	<advance width="369"/>
	<unicode hex="0074"/>
	<outline>
		<contour>
			<point x="190" y="0" type="curve" smooth="yes"/>
			<point x="265" y="0" type="line"/>
			<point x="275" y="53" type="line"/>
			<point x="195" y="53" type="line" smooth="yes"/>
			<point x="150" y="53"/>
			<point x="130" y="78"/>
			<point x="139" y="123" type="curve" smooth="yes"/>
			<point x="243" y="660" type="line"/>
			<point x="188" y="660" type="line"/>
			<point x="85" y="130" type="line" smooth="yes"/>
			<point x="69" y="44"/>
			<point x="104" y="0"/>
		</contour>
		<contour>
			<point x="39" y="447" type="line"/>
			<point x="352" y="447" type="line"/>
			<point x="362" y="500" type="line"/>
			<point x="49" y="500" type="line"/>
		</contour>
	</outline>
</glyph>
<glyph name="u" format="2">
	<advance width="534"/>
	<unicode hex="0075"/>
	<outline>
		<contour>
			<point x="152" y="-16" type="curve" smooth="yes"/>
			<point x="252" y="-16"/>
			<point x="350" y="51"/>
			<point x="375" y="181" type="curve"/>
			<point x="380" y="257" type="line"/>
			<point x="349" y="97"/>
			<point x="262" y="37"/>
			<point x="177" y="37" type="curve" smooth="yes"/>
			<point x="97" y="37"/>
			<point x="75" y="91"/>
			<point x="94" y="191" type="curve" smooth="yes"/>
			<point x="154" y="500" type="line"/>
			<point x="99" y="500" type="line"/>
			<point x="33" y="161" type="line" smooth="yes"/>
			<point x="10" y="41"/>
			<point x="62" y="-16"/>
		</contour>
		<contour>
			<point x="330" y="0" type="line"/>
			<point x="385" y="0" type="line"/>
			<point x="482" y="500" type="line"/>
			<point x="427" y="500" type="line"/>
		</contour>
	</outline>
</glyph>
<glyph name="v" format="2">
	<advance width="472"/>
	<unicode hex="0076"/>
	<outline>
		<contour>
			<point x="128" y="0" type="line"/>
			<point x="198" y="0" type="line"/>
			<point x="481" y="500" type="line"/>
			<point x="422" y="500" type="line"/>
			<point x="151" y="22" type="line"/>
			<point x="180" y="17" type="line"/>
			<point x="104" y="500" type="line"/>
			<point x="49" y="500" type="line"/>
		</contour>
	</outline>
</glyph>
<glyph name="w" format="2">
	<advance width="757"/>
	<unicode hex="0077"/>
	<outline>
		<contour>
			<point x="89" y="0" type="line"/>
			<point x="167" y="0" type="line"/>
			<point x="403" y="446" type="line"/>
			<point x="393" y="446" type="line"/>
			<point x="454" y="0" type="line"/>
			<point x="532" y="0" type="line"/>
			<point x="751" y="500" type="line"/>
			<point x="694" y="500" type="line"/>
			<point x="493" y="41" type="line"/>
			<point x="500" y="40" type="line"/>
			<point x="436" y="500" type="line"/>
			<point x="379" y="500" type="line"/>
			<point x="137" y="40" type="line"/>
			<point x="144" y="41" type="line"/>
			<point x="121" y="500" type="line"/>
			<point x="64" y="500" type="line"/>
		</contour>
	</outline>
</glyph>
<glyph name="x" format="2">
	<advance width="465"/>
	<unicode hex="0078"/>
	<outline>
		<contour>
			<point x="309" y="0" type="line"/>
			<point x="371" y="0" type="line"/>
			<point x="116" y="500" type="line"/>
			<point x="54" y="500" type="line"/>
		</contour>
		<contour>
			<point x="-43" y="0" type="line"/>
			<point x="19" y="0" type="line"/>
			<point x="468" y="500" type="line"/>
			<point x="406" y="500" type="line"/>
		</contour>
	</outline>
</glyph>
<glyph name="y" format="2">
	<advance width="487"/>
	<unicode hex="0079"/>
	<outline>
		<contour>
			<point x="139" y="0" type="line"/>
			<point x="195" y="0" type="line"/>
			<point x="106" y="500" type="line"/>
			<point x="49" y="500" type="line"/>
		</contour>
		<contour>
			<point x="19" y="-200" type="line"/>
			<point x="75" y="-200" type="line"/>
			<point x="496" y="500" type="line"/>
			<point x="440" y="500" type="line"/>
		</contour>
	</outline>
</glyph>
<glyph name="z" format="2">
	<advance width="473"/>
	<unicode hex="007A"/>
	<outline>
		<contour>
			<point x="-9" y="48" type="line"/>
			<point x="57" y="48" type="line"/>
			<point x="447" y="452" type="line"/>
			<point x="382" y="452" type="line"/>
		</contour>
		<contour>
			<point x="-18" y="0" type="line"/>
			<point x="359" y="0" type="line"/>
			<point x="368" y="48" type="line"/>
			<point x="-9" y="48" type="line"/>
		</contour>
		<contour>
			<point x="70" y="452" type="line"/>
			<point x="447" y="452" type="line"/>
			<point x="456" y="500" type="line"/>
			<point x="79" y="500" type="line"/>
		</contour>
	</outline>
</glyph>
<glyph name="braceleft" format="2">
	<advance width="435"/>
	<unicode hex="007B"/>
	<outline>
		<contour>
			<point x="97" y="308" type="line"/>
			<point x="156" y="303" type="line"/>
			<point x="200" y="323"/>
			<point x="251" y="358"/>
			<point x="266" y="438" type="curve"/>
			<point x="298" y="601" type="line" smooth="yes"/>
			<point x="308" y="650"/>
			<point x="335" y="663"/>
			<point x="372" y="663" type="curve" smooth="yes"/>
			<point x="440" y="663" type="line"/>
			<point x="450" y="716" type="line"/>
			<point x="382" y="716" type="line" smooth="yes"/>
			<point x="318" y="716"/>
			<point x="266" y="684"/>
			<point x="250" y="602" type="curve" smooth="yes"/>
			<point x="220" y="448" type="line"/>
			<point x="201" y="348"/>
			<point x="112" y="332"/>
			<point x="102" y="332" type="curve"/>
		</contour>
		<contour>
			<point x="222" y="-110" type="curve" smooth="yes"/>
			<point x="290" y="-110" type="line"/>
			<point x="300" y="-57" type="line"/>
			<point x="232" y="-57" type="line" smooth="yes"/>
			<point x="195" y="-57"/>
			<point x="172" y="-44"/>
			<point x="182" y="5" type="curve" smooth="yes"/>
			<point x="214" y="158" type="line"/>
			<point x="227" y="227"/>
			<point x="192" y="283"/>
			<point x="156" y="303" type="curve"/>
			<point x="97" y="308" type="line"/>
			<point x="92" y="284" type="line"/>
			<point x="102" y="284"/>
			<point x="181" y="246"/>
			<point x="164" y="158" type="curve"/>
			<point x="134" y="4" type="line" smooth="yes"/>
			<point x="118" y="-78"/>
			<point x="158" y="-110"/>
		</contour>
	</outline>
</glyph>
<glyph name="bar" format="2">
	<advance width="264"/>
	<unicode hex="007C"/>
	<outline>
		<contour>
			<point x="18" y="-96" type="line"/>
			<point x="71" y="-96" type="line"/>
			<point x="242" y="780" type="line"/>
			<point x="189" y="780" type="line"/>
		</contour>
	</outline>
</glyph>
<glyph name="braceright" format="2">
	<advance width="425"/>
	<unicode hex="007D"/>
	<outline>
		<contour>
			<point x="260" y="303" type="curve"/>
			<point x="319" y="298" type="line"/>
			<point x="324" y="322" type="line"/>
			<point x="314" y="322"/>
			<point x="235" y="360"/>
			<point x="252" y="448" type="curve"/>
			<point x="282" y="602" type="line" smooth="yes"/>
			<point x="298" y="684"/>
			<point x="258" y="716"/>
			<point x="194" y="716" type="curve" smooth="yes"/>
			<point x="126" y="716" type="line"/>
			<point x="116" y="663" type="line"/>
			<point x="184" y="663" type="line" smooth="yes"/>
			<point x="221" y="663"/>
			<point x="244" y="650"/>
			<point x="234" y="601" type="curve" smooth="yes"/>
			<point x="202" y="448" type="line"/>
			<point x="189" y="379"/>
			<point x="224" y="323"/>
		</contour>
		<contour>
			<point x="-34" y="-110" type="line"/>
			<point x="34" y="-110" type="line" smooth="yes"/>
			<point x="98" y="-110"/>
			<point x="150" y="-78"/>
			<point x="166" y="4" type="curve" smooth="yes"/>
			<point x="196" y="158" type="line"/>
			<point x="215" y="258"/>
			<point x="304" y="274"/>
			<point x="314" y="274" type="curve"/>
			<point x="319" y="298" type="line"/>
			<point x="260" y="303" type="line"/>
			<point x="216" y="283"/>
			<point x="165" y="248"/>
			<point x="150" y="168" type="curve"/>
			<point x="118" y="5" type="line" smooth="yes"/>
			<point x="108" y="-44"/>
			<point x="81" y="-57"/>
			<point x="44" y="-57" type="curve" smooth="yes"/>
			<point x="-24" y="-57" type="line"/>
		</contour>
	</outline>
</glyph>
<glyph name="asciitilde" format="2">
	<advance width="482"/>
	<unicode hex="007E"/>
	<outline>
		<contour>
			<point x="101" y="236" type="line"/>
			<point x="108" y="261"/>
			<point x="123" y="301"/>
			<point x="159" y="301" type="curve" smooth="yes"/>
			<point x="204" y="301"/>
			<point x="237" y="245"/>
			<point x="303" y="245" type="curve" smooth="yes"/>
			<point x="356" y="245"/>
			<point x="396" y="284"/>
			<point x="411" y="345" type="curve"/>
			<point x="360" y="353" type="line"/>
			<point x="355" y="328"/>
			<point x="344" y="288"/>
			<point x="301" y="288" type="curve" smooth="yes"/>
			<point x="256" y="288"/>
			<point x="224" y="344"/>
			<point x="158" y="344" type="curve" smooth="yes"/>
			<point x="103" y="344"/>
			<point x="64" y="305"/>
			<point x="49" y="244" type="curve"/>
		</contour>
	</outline>
</glyph>
<glyph name="cent" format="2">
	<advance width="535"/>
	<unicode hex="00A2"/>
	<outline>
		<contour>
			<point x="232" y="76" type="curve" smooth="yes"/>
			<point x="342" y="76"/>
			<point x="434" y="161"/>
			<point x="471" y="280" type="curve"/>
			<point x="414" y="288" type="line"/>
			<point x="392" y="211"/>
			<point x="332" y="129"/>
			<point x="232" y="129" type="curve" smooth="yes"/>
			<point x="112" y="129"/>
			<point x="85" y="236"/>
			<point x="105" y="340" type="curve" smooth="yes"/>
			<point x="125" y="443"/>
			<point x="195" y="555"/>
			<point x="315" y="555" type="curve" smooth="yes"/>
			<point x="415" y="555"/>
			<point x="442" y="480"/>
			<point x="434" y="390" type="curve"/>
			<point x="493" y="398" type="line"/>
			<point x="503" y="508"/>
			<point x="445" y="608"/>
			<point x="315" y="608" type="curve" smooth="yes"/>
			<point x="205" y="608"/>
			<point x="82" y="520"/>
			<point x="47" y="340" type="curve" smooth="yes"/>
			<point x="15" y="173"/>
			<point x="102" y="76"/>
		</contour>
		<contour>
			<point x="163" y="-116" type="line"/>
			<point x="206" y="-116" type="line"/>
			<point x="384" y="800" type="line"/>
			<point x="341" y="800" type="line"/>
		</contour>
	</outline>
</glyph>
<glyph name="sterling" format="2">
	<advance width="672"/>
	<unicode hex="00A3"/>
	<outline>
		<contour>
			<point x="17" y="0" type="line"/>
			<point x="499" y="0" type="line"/>
			<point x="509" y="53" type="line"/>
			<point x="82" y="53" type="line"/>
			<point x="71" y="44" type="line"/>
			<point x="309" y="189"/>
			<point x="193" y="316"/>
			<point x="232" y="514" type="curve" smooth="yes"/>
			<point x="250" y="607"/>
			<point x="334" y="663"/>
			<point x="426" y="663" type="curve" smooth="yes"/>
			<point x="546" y="663"/>
			<point x="571" y="570"/>
			<point x="562" y="496" type="curve"/>
			<point x="617" y="506" type="line"/>
			<point x="631" y="600"/>
			<point x="576" y="716"/>
			<point x="436" y="716" type="curve" smooth="yes"/>
			<point x="290" y="716"/>
			<point x="195" y="625"/>
			<point x="174" y="513" type="curve" smooth="yes"/>
			<point x="131" y="295"/>
			<point x="257" y="221"/>
			<point x="28" y="58" type="curve"/>
		</contour>
		<contour>
			<point x="17" y="307" type="line"/>
			<point x="436" y="307" type="line"/>
			<point x="446" y="360" type="line"/>
			<point x="27" y="360" type="line"/>
		</contour>
	</outline>
</glyph>
<glyph name="currency" format="2">
	<advance width="629"/>
	<unicode hex="00A4"/>
	<outline>
		<contour>
			<point x="263" y="88" type="curve" smooth="yes"/>
			<point x="377" y="88"/>
			<point x="487" y="180"/>
			<point x="509" y="294" type="curve" smooth="yes"/>
			<point x="531" y="408"/>
			<point x="457" y="500"/>
			<point x="343" y="500" type="curve" smooth="yes"/>
			<point x="229" y="500"/>
			<point x="119" y="408"/>
			<point x="97" y="294" type="curve" smooth="yes"/>
			<point x="75" y="180"/>
			<point x="149" y="88"/>
		</contour>
		<contour>
			<point x="67" y="65" type="line"/>
			<point x="157" y="139" type="line"/>
			<point x="139" y="188" type="line"/>
			<point x="37" y="103" type="line"/>
		</contour>
		<contour>
			<point x="451" y="65" type="line"/>
			<point x="495" y="103" type="line"/>
			<point x="433" y="180" type="line"/>
			<point x="384" y="148" type="line"/>
		</contour>
		<contour>
			<point x="274" y="141" type="curve" smooth="yes"/>
			<point x="189" y="141"/>
			<point x="134" y="210"/>
			<point x="150" y="295" type="curve" smooth="yes"/>
			<point x="167" y="379"/>
			<point x="249" y="448"/>
			<point x="334" y="448" type="curve" smooth="yes"/>
			<point x="418" y="448"/>
			<point x="474" y="379"/>
			<point x="457" y="295" type="curve" smooth="yes"/>
			<point x="441" y="210"/>
			<point x="358" y="141"/>
		</contour>
		<contour>
			<point x="174" y="408" type="line"/>
			<point x="221" y="442" type="line"/>
			<point x="157" y="523" type="line"/>
			<point x="111" y="486" type="line"/>
		</contour>
		<contour>
			<point x="479" y="410" type="line"/>
			<point x="569" y="486" type="line"/>
			<point x="539" y="523" type="line"/>
			<point x="447" y="446" type="line"/>
		</contour>
	</outline>
</glyph>
<glyph name="yen" format="2">
	<advance width="602"/>
	<unicode hex="00A5"/>
	<outline>
		<contour>
			<point x="299" y="260" type="line"/>
			<point x="644" y="700" type="line"/>
			<point x="580" y="700" type="line"/>
			<point x="281" y="319" type="line"/>
		</contour>
		<contour>
			<point x="75" y="270" type="line"/>
			<point x="493" y="270" type="line"/>
			<point x="502" y="313" type="line"/>
			<point x="84" y="313" type="line"/>
		</contour>
		<contour>
			<point x="52" y="147" type="line"/>
			<point x="470" y="147" type="line"/>
			<point x="478" y="190" type="line"/>
			<point x="60" y="190" type="line"/>
		</contour>
		<contour>
			<point x="203" y="0" type="line"/>
			<point x="261" y="0" type="line"/>
			<point x="324" y="324" type="line"/>
			<point x="266" y="324" type="line"/>
		</contour>
		<contour>
			<point x="267" y="260" type="line"/>
			<point x="307" y="319" type="line"/>
			<point x="156" y="700" type="line"/>
			<point x="92" y="700" type="line"/>
		</contour>
	</outline>
</glyph>
<glyph name="brokenbar" format="2">
	<advance width="264"/>
	<unicode hex="00A6"/>
	<outline>
		<contour>
			<point x="113" y="392" type="line"/>
			<point x="166" y="392" type="line"/>
			<point x="242" y="780" type="line"/>
			<point x="189" y="780" type="line"/>
		</contour>
		<contour>
			<point x="18" y="-96" type="line"/>
			<point x="71" y="-96" type="line"/>
			<point x="147" y="292" type="line"/>
			<point x="94" y="292" type="line"/>
		</contour>
	</outline>
</glyph>
<glyph name="section" format="2">
	<advance width="470"/>
	<unicode hex="00A7"/>
	<outline>
		<contour>
			<point x="265" y="182" type="line"/>
			<point x="286" y="184"/>
			<point x="385" y="202"/>
			<point x="402" y="288" type="curve" smooth="yes"/>
			<point x="435" y="457"/>
			<point x="142" y="437"/>
			<point x="167" y="568" type="curve" smooth="yes"/>
			<point x="176" y="613"/>
			<point x="225" y="663"/>
			<point x="291" y="663" type="curve" smooth="yes"/>
			<point x="353" y="663"/>
			<point x="393" y="620"/>
			<point x="385" y="551" type="curve"/>
			<point x="445" y="559" type="line"/>
			<point x="456" y="642"/>
			<point x="403" y="716"/>
			<point x="301" y="716" type="curve" smooth="yes"/>
			<point x="196" y="716"/>
			<point x="124" y="644"/>
			<point x="109" y="568" type="curve" smooth="yes"/>
			<point x="75" y="390"/>
			<point x="372" y="430"/>
			<point x="344" y="288" type="curve" smooth="yes"/>
			<point x="335" y="241"/>
			<point x="290" y="208"/>
			<point x="244" y="198" type="curve"/>
		</contour>
		<contour>
			<point x="154" y="-84" type="curve" smooth="yes"/>
			<point x="259" y="-84"/>
			<point x="331" y="-12"/>
			<point x="345" y="64" type="curve" smooth="yes"/>
			<point x="380" y="242"/>
			<point x="83" y="202"/>
			<point x="111" y="344" type="curve" smooth="yes"/>
			<point x="120" y="391"/>
			<point x="164" y="424"/>
			<point x="210" y="434" type="curve"/>
			<point x="189" y="450" type="line"/>
			<point x="169" y="448"/>
			<point x="70" y="430"/>
			<point x="53" y="344" type="curve" smooth="yes"/>
			<point x="20" y="175"/>
			<point x="313" y="195"/>
			<point x="287" y="64" type="curve" smooth="yes"/>
			<point x="279" y="19"/>
			<point x="230" y="-31"/>
			<point x="164" y="-31" type="curve" smooth="yes"/>
			<point x="102" y="-31"/>
			<point x="61" y="12"/>
			<point x="70" y="81" type="curve"/>
			<point x="10" y="73" type="line"/>
			<point x="-1" y="-10"/>
			<point x="52" y="-84"/>
		</contour>
	</outline>
</glyph>
<glyph name="dieresis" format="2">
	<advance width="459"/>
	<unicode hex="00A8"/>
	<outline>
		<contour>
			<point x="305" y="590" type="line"/>
			<point x="365" y="590" type="line"/>
			<point x="376" y="650" type="line"/>
			<point x="316" y="650" type="line"/>
		</contour>
		<contour>
			<point x="187" y="590" type="line"/>
			<point x="247" y="590" type="line"/>
			<point x="258" y="650" type="line"/>
			<point x="198" y="650" type="line"/>
		</contour>
	</outline>
</glyph>
<glyph name="copyright" format="2">
	<advance width="845"/>
	<unicode hex="00A9"/>
	<outline>
		<contour>
			<point x="383" y="146" type="curve" smooth="yes"/>
			<point x="476" y="146"/>
			<point x="548" y="213"/>
			<point x="575" y="296" type="curve"/>
			<point x="524" y="296" type="line"/>
			<point x="506" y="245"/>
			<point x="465" y="193"/>
			<point x="391" y="193" type="curve" smooth="yes"/>
			<point x="304" y="193"/>
			<point x="284" y="270"/>
			<point x="299" y="347" type="curve" smooth="yes"/>
			<point x="314" y="423"/>
			<point x="365" y="505"/>
			<point x="453" y="505" type="curve" smooth="yes"/>
			<point x="527" y="505"/>
			<point x="545" y="450"/>
			<point x="538" y="397" type="curve"/>
			<point x="590" y="397" type="line"/>
			<point x="600" y="480"/>
			<point x="554" y="553"/>
			<point x="460" y="553" type="curve" smooth="yes"/>
			<point x="368" y="553"/>
			<point x="274" y="486"/>
			<point x="248" y="349" type="curve" smooth="yes"/>
			<point x="222" y="211"/>
			<point x="291" y="146"/>
		</contour>
		<component base="whiteCircle" xOffset="-30"/>
	</outline>
</glyph>
<glyph name="registered" format="2">
	<advance width="540"/>
	<unicode hex="00AE"/>
	<outline>
		<contour>
			<point x="258" y="286" type="curve" smooth="yes"/>
			<point x="378" y="286"/>
			<point x="491" y="381"/>
			<point x="514" y="501" type="curve" smooth="yes"/>
			<point x="538" y="621"/>
			<point x="461" y="716"/>
			<point x="341" y="716" type="curve" smooth="yes"/>
			<point x="222" y="716"/>
			<point x="108" y="621"/>
			<point x="84" y="501" type="curve" smooth="yes"/>
			<point x="61" y="381"/>
			<point x="139" y="286"/>
		</contour>
		<contour>
			<point x="263" y="313" type="curve" smooth="yes"/>
			<point x="158" y="313"/>
			<point x="91" y="396"/>
			<point x="111" y="501" type="curve" smooth="yes"/>
			<point x="132" y="607"/>
			<point x="231" y="689"/>
			<point x="336" y="689" type="curve" smooth="yes"/>
			<point x="443" y="689"/>
			<point x="508" y="607"/>
			<point x="487" y="501" type="curve" smooth="yes"/>
			<point x="467" y="396"/>
			<point x="370" y="313"/>
		</contour>
		<contour>
			<point x="210" y="393" type="line"/>
			<point x="237" y="393" type="line"/>
			<point x="256" y="490" type="line"/>
			<point x="303" y="490" type="line" smooth="yes"/>
			<point x="337" y="490"/>
			<point x="336" y="476"/>
			<point x="333" y="451" type="curve" smooth="yes"/>
			<point x="324" y="393" type="line"/>
			<point x="352" y="393" type="line"/>
			<point x="360" y="446" type="line" smooth="yes"/>
			<point x="366" y="494"/>
			<point x="357" y="502"/>
			<point x="312" y="502" type="curve"/>
			<point x="311" y="501" type="line"/>
			<point x="341" y="501"/>
			<point x="372" y="510"/>
			<point x="380" y="550" type="curve" smooth="yes"/>
			<point x="388" y="592"/>
			<point x="361" y="611"/>
			<point x="321" y="611" type="curve" smooth="yes"/>
			<point x="253" y="611" type="line"/>
		</contour>
		<contour>
			<point x="261" y="516" type="line"/>
			<point x="275" y="585" type="line"/>
			<point x="316" y="585" type="line" smooth="yes"/>
			<point x="343" y="585"/>
			<point x="358" y="576"/>
			<point x="353" y="550" type="curve" smooth="yes"/>
			<point x="348" y="524"/>
			<point x="329" y="516"/>
			<point x="302" y="516" type="curve" smooth="yes"/>
		</contour>
	</outline>
</glyph>
<glyph name="macron" format="2">
	<advance width="542"/>
	<unicode hex="00AF"/>
	<outline>
		<contour>
			<point x="186" y="590" type="line"/>
			<point x="448" y="590" type="line"/>
			<point x="456" y="633" type="line"/>
			<point x="194" y="633" type="line"/>
		</contour>
	</outline>
</glyph>
<glyph name="degree" format="2">
	<advance width="432"/>
	<unicode hex="00B0"/>
	<outline>
		<contour>
			<point x="242" y="392" type="curve" smooth="yes"/>
			<point x="336" y="392"/>
			<point x="418" y="469"/>
			<point x="427" y="562" type="curve" smooth="yes"/>
			<point x="435" y="656"/>
			<point x="365" y="732"/>
			<point x="271" y="732" type="curve" smooth="yes"/>
			<point x="178" y="732"/>
			<point x="95" y="656"/>
			<point x="87" y="562" type="curve" smooth="yes"/>
			<point x="78" y="469"/>
			<point x="149" y="392"/>
		</contour>
		<contour>
			<point x="246" y="445" type="curve" smooth="yes"/>
			<point x="184" y="445"/>
			<point x="134" y="500"/>
			<point x="140" y="562" type="curve" smooth="yes"/>
			<point x="145" y="624"/>
			<point x="205" y="679"/>
			<point x="267" y="679" type="curve" smooth="yes"/>
			<point x="329" y="679"/>
			<point x="379" y="624"/>
			<point x="374" y="562" type="curve" smooth="yes"/>
			<point x="368" y="500"/>
			<point x="308" y="445"/>
		</contour>
	</outline>
</glyph>
<glyph name="plusminus" format="2">
	<advance width="589"/>
	<unicode hex="00B1"/>
	<outline>
		<contour>
			<point x="231" y="160" type="line"/>
			<point x="284" y="160" type="line"/>
			<point x="366" y="579" type="line"/>
			<point x="313" y="579" type="line"/>
		</contour>
		<contour>
			<point x="17" y="-1" type="line"/>
			<point x="436" y="-1" type="line"/>
			<point x="446" y="52" type="line"/>
			<point x="27" y="52" type="line"/>
		</contour>
		<contour>
			<point x="83" y="342" type="line"/>
			<point x="502" y="342" type="line"/>
			<point x="513" y="395" type="line"/>
			<point x="94" y="395" type="line"/>
		</contour>
	</outline>
</glyph>
<glyph name="acute" format="2">
	<advance width="400"/>
	<unicode hex="00B4"/>
	<outline>
		<contour>
			<point x="186" y="590" type="line"/>
			<point x="228" y="590" type="line"/>
			<point x="331" y="720" type="line"/>
			<point x="263" y="720" type="line"/>
		</contour>
	</outline>
</glyph>
<glyph name="paragraph" format="2">
	<advance width="670"/>
	<unicode hex="00B6"/>
	<outline>
		<contour>
			<point x="272" y="329" type="curve" smooth="yes"/>
			<point x="356" y="329" type="line"/>
			<point x="366" y="382" type="line"/>
			<point x="282" y="382" type="line" smooth="yes"/>
			<point x="188" y="382"/>
			<point x="126" y="418"/>
			<point x="145" y="515" type="curve" smooth="yes"/>
			<point x="162" y="603"/>
			<point x="240" y="647"/>
			<point x="334" y="647" type="curve" smooth="yes"/>
			<point x="662" y="647" type="line"/>
			<point x="672" y="700" type="line"/>
			<point x="344" y="700" type="line" smooth="yes"/>
			<point x="214" y="700"/>
			<point x="110" y="634"/>
			<point x="87" y="515" type="curve" smooth="yes"/>
			<point x="66" y="407"/>
			<point x="142" y="329"/>
		</contour>
		<contour>
			<point x="246" y="-70" type="line"/>
			<point x="304" y="-70" type="line"/>
			<point x="454" y="700" type="line"/>
			<point x="396" y="700" type="line"/>
		</contour>
		<contour>
			<point x="404" y="-70" type="line"/>
			<point x="462" y="-70" type="line"/>
			<point x="612" y="700" type="line"/>
			<point x="554" y="700" type="line"/>
		</contour>
	</outline>
</glyph>
<glyph name="periodcentered" format="2">
	<advance width="231"/>
	<unicode hex="00B7"/>
	<outline>
		<contour>
			<point x="76" y="305" type="line"/>
			<point x="136" y="305" type="line"/>
			<point x="154" y="395" type="line"/>
			<point x="94" y="395" type="line"/>
		</contour>
	</outline>
</glyph>
<glyph name="cedilla" format="2">
	<advance width="436"/>
	<unicode hex="00B8"/>
	<outline>
		<contour>
			<point x="109" y="-206" type="curve" smooth="yes"/>
			<point x="153" y="-206"/>
			<point x="195" y="-171"/>
			<point x="203" y="-127" type="curve" smooth="yes"/>
			<point x="212" y="-83"/>
			<point x="184" y="-48"/>
			<point x="140" y="-48" type="curve" smooth="yes"/>
			<point x="113" y="-48"/>
			<point x="86" y="-62"/>
			<point x="67" y="-83" type="curve"/>
			<point x="97" y="-98" type="line"/>
			<point x="107" y="-89"/>
			<point x="119" y="-84"/>
			<point x="133" y="-84" type="curve" smooth="yes"/>
			<point x="158" y="-84"/>
			<point x="173" y="-101"/>
			<point x="168" y="-127" type="curve" smooth="yes"/>
			<point x="163" y="-152"/>
			<point x="141" y="-171"/>
			<point x="116" y="-171" type="curve" smooth="yes"/>
			<point x="98" y="-171"/>
			<point x="86" y="-161"/>
			<point x="82" y="-146" type="curve"/>
			<point x="42" y="-153" type="line"/>
			<point x="44" y="-187"/>
			<point x="71" y="-206"/>
		</contour>
		<contour>
			<point x="95" y="-97" type="line"/>
			<point x="177" y="15" type="line"/>
			<point x="138" y="15" type="line"/>
			<point x="65" y="-83" type="line"/>
		</contour>
	</outline>
</glyph>
<glyph name="AE" format="2">
	<advance width="846"/>
	<unicode hex="00C6"/>
	<outline>
		<contour>
			<point x="402" y="647" type="line"/>
			<point x="843" y="647" type="line"/>
			<point x="853" y="700" type="line"/>
			<point x="412" y="700" type="line"/>
		</contour>
		<component base="A"/>
		<contour>
			<point x="491" y="0" type="line"/>
			<point x="717" y="0" type="line"/>
			<point x="727" y="53" type="line"/>
			<point x="501" y="53" type="line"/>
		</contour>
		<contour>
			<point x="442" y="337" type="line"/>
			<point x="722" y="337" type="line"/>
			<point x="733" y="390" type="line"/>
			<point x="453" y="390" type="line"/>
		</contour>
	</outline>
</glyph>
<glyph name="Eth" format="2">
	<advance width="648"/>
	<unicode hex="00D0"/>
	<outline>
		<contour>
			<point x="16" y="330" type="line"/>
			<point x="306" y="330" type="line"/>
			<point x="314" y="370" type="line"/>
			<point x="24" y="370" type="line"/>
		</contour>
		<component base="D"/>
	</outline>
</glyph>
<glyph name="multiply" format="2">
	<advance width="532"/>
	<unicode hex="00D7"/>
	<outline>
		<contour>
			<point x="78" y="116" type="line"/>
			<point x="465" y="440" type="line"/>
			<point x="436" y="478" type="line"/>
			<point x="48" y="153" type="line"/>
		</contour>
		<contour>
			<point x="364" y="115" type="line"/>
			<point x="409" y="152" type="line"/>
			<point x="148" y="477" type="line"/>
			<point x="102" y="440" type="line"/>
		</contour>
	</outline>
</glyph>
<glyph name="Oslash" format="2">
	<advance width="732"/>
	<unicode hex="00D8"/>
	<outline>
		<contour>
			<point x="-64" y="-56" type="line"/>
			<point x="-2" y="-56" type="line"/>
			<point x="795" y="755" type="line"/>
			<point x="733" y="755" type="line"/>
		</contour>
		<component base="O" xOffset="-11"/>
	</outline>
</glyph>
<glyph name="Thorn" format="2">
	<advance width="586"/>
	<unicode hex="00DE"/>
	<outline>
		<contour>
			<point x="86" y="165" type="line"/>
			<point x="263" y="165" type="line" smooth="yes"/>
			<point x="390" y="165"/>
			<point x="497" y="231"/>
			<point x="520" y="350" type="curve" smooth="yes"/>
			<point x="545" y="479"/>
			<point x="462" y="536"/>
			<point x="335" y="536" type="curve" smooth="yes"/>
			<point x="158" y="536" type="line"/>
			<point x="148" y="483" type="line"/>
			<point x="325" y="483" type="line" smooth="yes"/>
			<point x="419" y="483"/>
			<point x="481" y="447"/>
			<point x="462" y="350" type="curve" smooth="yes"/>
			<point x="443" y="253"/>
			<point x="367" y="218"/>
			<point x="273" y="218" type="curve" smooth="yes"/>
			<point x="96" y="218" type="line"/>
		</contour>
		<contour>
			<point x="21" y="0" type="line"/>
			<point x="79" y="0" type="line"/>
			<point x="215" y="700" type="line"/>
			<point x="157" y="700" type="line"/>
		</contour>
	</outline>
</glyph>
<glyph name="germandbls" format="2">
	<advance width="547"/>
	<unicode hex="00DF"/>
	<outline>
		<contour>
			<point x="177" y="0" type="line"/>
			<point x="207" y="0" type="line" smooth="yes"/>
			<point x="371" y="0"/>
			<point x="450" y="109"/>
			<point x="467" y="196" type="curve" smooth="yes"/>
			<point x="484" y="281"/>
			<point x="446" y="366"/>
			<point x="319" y="370" type="curve"/>
			<point x="318" y="366" type="line"/>
			<point x="408" y="372"/>
			<point x="484" y="458"/>
			<point x="499" y="535" type="curve" smooth="yes"/>
			<point x="521" y="650"/>
			<point x="443" y="716"/>
			<point x="346" y="716" type="curve" smooth="yes"/>
			<point x="242" y="716"/>
			<point x="142" y="648"/>
			<point x="111" y="510" type="curve"/>
			<point x="166" y="510" type="line"/>
			<point x="189" y="609"/>
			<point x="254" y="663"/>
			<point x="336" y="663" type="curve" smooth="yes"/>
			<point x="414" y="663"/>
			<point x="456" y="611"/>
			<point x="441" y="535" type="curve" smooth="yes"/>
			<point x="426" y="460"/>
			<point x="362" y="392"/>
			<point x="278" y="392" type="curve" smooth="yes"/>
			<point x="253" y="392" type="line"/>
			<point x="243" y="339" type="line"/>
			<point x="283" y="339" type="line" smooth="yes"/>
			<point x="390" y="339"/>
			<point x="422" y="260"/>
			<point x="409" y="196" type="curve" smooth="yes"/>
			<point x="397" y="132"/>
			<point x="334" y="53"/>
			<point x="227" y="53" type="curve" smooth="yes"/>
			<point x="187" y="53" type="line"/>
		</contour>
		<contour>
			<point x="12" y="0" type="line"/>
			<point x="67" y="0" type="line"/>
			<point x="166" y="510" type="line"/>
			<point x="111" y="510" type="line"/>
		</contour>
	</outline>
</glyph>
<glyph name="ae" format="2">
	<advance width="873"/>
	<unicode hex="00E6"/>
	<outline>
		<contour>
			<point x="566" y="-16" type="curve" smooth="yes"/>
			<point x="676" y="-16"/>
			<point x="738" y="53"/>
			<point x="775" y="135" type="curve"/>
			<point x="718" y="145" type="line"/>
			<point x="691" y="91"/>
			<point x="656" y="37"/>
			<point x="566" y="37" type="curve" smooth="yes"/>
			<point x="456" y="37"/>
			<point x="411" y="152"/>
			<point x="428" y="240" type="curve"/>
			<point x="801" y="240" type="line"/>
			<point x="802" y="248" type="line" smooth="yes"/>
			<point x="824" y="427"/>
			<point x="730" y="516"/>
			<point x="620" y="516" type="curve" smooth="yes"/>
			<point x="500" y="516"/>
			<point x="404" y="415"/>
			<point x="375" y="268" type="curve" smooth="yes"/>
			<point x="346" y="121"/>
			<point x="426" y="-16"/>
		</contour>
		<contour>
			<point x="163" y="37" type="curve" smooth="yes"/>
			<point x="103" y="37"/>
			<point x="60" y="76"/>
			<point x="71" y="135" type="curve" smooth="yes"/>
			<point x="86" y="213"/>
			<point x="163" y="242"/>
			<point x="253" y="245" type="curve" smooth="yes"/>
			<point x="313" y="247"/>
			<point x="385" y="260"/>
			<point x="400" y="339" type="curve"/>
			<point x="381" y="299" type="line"/>
			<point x="368" y="233" type="line" smooth="yes"/>
			<point x="343" y="107"/>
			<point x="263" y="37"/>
		</contour>
		<contour>
			<point x="153" y="-16" type="curve" smooth="yes"/>
			<point x="273" y="-16"/>
			<point x="365" y="63"/>
			<point x="388" y="180" type="curve"/>
			<point x="444" y="339" type="line"/>
			<point x="467" y="457"/>
			<point x="395" y="516"/>
			<point x="285" y="516" type="curve" smooth="yes"/>
			<point x="165" y="516"/>
			<point x="90" y="444"/>
			<point x="69" y="357" type="curve"/>
			<point x="121" y="347" type="line"/>
			<point x="139" y="415"/>
			<point x="195" y="463"/>
			<point x="285" y="463" type="curve" smooth="yes"/>
			<point x="345" y="463"/>
			<point x="395" y="430"/>
			<point x="395" y="380" type="curve" smooth="yes"/>
			<point x="395" y="340"/>
			<point x="366" y="302"/>
			<point x="276" y="298" type="curve" smooth="yes"/>
			<point x="136" y="292"/>
			<point x="36" y="253"/>
			<point x="13" y="135" type="curve" smooth="yes"/>
			<point x="-2" y="56"/>
			<point x="63" y="-16"/>
		</contour>
		<contour>
			<point x="437" y="288" type="line"/>
			<point x="456" y="386"/>
			<point x="530" y="463"/>
			<point x="620" y="463" type="curve" smooth="yes"/>
			<point x="720" y="463"/>
			<point x="767" y="367"/>
			<point x="752" y="288" type="curve"/>
		</contour>
	</outline>
</glyph>
<glyph name="eth" format="2">
	<advance width="579"/>
	<unicode hex="00F0"/>
	<outline>
		<contour>
			<point x="220" y="-16" type="curve" smooth="yes"/>
			<point x="370" y="-16"/>
			<point x="467" y="109"/>
			<point x="496" y="256" type="curve" smooth="yes"/>
			<point x="557" y="570"/>
			<point x="420" y="706"/>
			<point x="240" y="706" type="curve"/>
			<point x="231" y="658" type="line"/>
			<point x="401" y="658"/>
			<point x="499" y="530"/>
			<point x="451" y="285" type="curve"/>
			<point x="456" y="289" type="line"/>
			<point x="474" y="377"/>
			<point x="404" y="454"/>
			<point x="291" y="454" type="curve" smooth="yes"/>
			<point x="161" y="454"/>
			<point x="51" y="357"/>
			<point x="26" y="230" type="curve" smooth="yes"/>
			<point x="1" y="102"/>
			<point x="80" y="-16"/>
		</contour>
		<contour>
			<point x="220" y="37" type="curve" smooth="yes"/>
			<point x="130" y="37"/>
			<point x="61" y="112"/>
			<point x="84" y="230" type="curve" smooth="yes"/>
			<point x="102" y="318"/>
			<point x="181" y="401"/>
			<point x="291" y="401" type="curve" smooth="yes"/>
			<point x="381" y="401"/>
			<point x="453" y="328"/>
			<point x="432" y="220" type="curve" smooth="yes"/>
			<point x="412" y="122"/>
			<point x="330" y="37"/>
		</contour>
		<contour>
			<point x="224" y="505" type="line"/>
			<point x="550" y="645" type="line"/>
			<point x="539" y="681" type="line"/>
			<point x="213" y="541" type="line"/>
		</contour>
	</outline>
</glyph>
<glyph name="divide" format="2">
	<advance width="589"/>
	<unicode hex="00F7"/>
	<outline>
		<contour>
			<point x="69" y="269" type="line"/>
			<point x="488" y="269" type="line"/>
			<point x="499" y="322" type="line"/>
			<point x="80" y="322" type="line"/>
		</contour>
		<contour>
			<point x="244" y="89" type="curve" smooth="yes"/>
			<point x="267" y="89"/>
			<point x="288" y="106"/>
			<point x="292" y="129" type="curve" smooth="yes"/>
			<point x="297" y="152"/>
			<point x="283" y="169"/>
			<point x="260" y="169" type="curve" smooth="yes"/>
			<point x="237" y="169"/>
			<point x="217" y="152"/>
			<point x="212" y="129" type="curve" smooth="yes"/>
			<point x="208" y="106"/>
			<point x="221" y="89"/>
		</contour>
		<contour>
			<point x="309" y="422" type="curve" smooth="yes"/>
			<point x="332" y="422"/>
			<point x="352" y="439"/>
			<point x="357" y="462" type="curve" smooth="yes"/>
			<point x="361" y="485"/>
			<point x="348" y="502"/>
			<point x="325" y="502" type="curve" smooth="yes"/>
			<point x="302" y="502"/>
			<point x="281" y="485"/>
			<point x="277" y="462" type="curve" smooth="yes"/>
			<point x="272" y="439"/>
			<point x="286" y="422"/>
		</contour>
	</outline>
</glyph>
<glyph name="oslash" format="2">
	<advance width="545"/>
	<unicode hex="00F8"/>
	<outline>
		<contour>
			<point x="-64" y="-56" type="line"/>
			<point x="-12" y="-56" type="line"/>
			<point x="564" y="556" type="line"/>
			<point x="512" y="556" type="line"/>
		</contour>
		<component base="o" xOffset="-6"/>
	</outline>
</glyph>
<glyph name="thorn" format="2">
	<advance width="572"/>
	<unicode hex="00FE"/>
	<outline>
		<contour>
			<point x="-27" y="-200" type="line"/>
			<point x="28" y="-200" type="line"/>
			<point x="203" y="700" type="line"/>
			<point x="148" y="700" type="line"/>
		</contour>
		<contour>
			<point x="238" y="-16" type="curve" smooth="yes"/>
			<point x="368" y="-16"/>
			<point x="471" y="93"/>
			<point x="502" y="250" type="curve" smooth="yes"/>
			<point x="526" y="378"/>
			<point x="461" y="516"/>
			<point x="331" y="516" type="curve" smooth="yes"/>
			<point x="211" y="516"/>
			<point x="140" y="428"/>
			<point x="121" y="330" type="curve" smooth="yes"/>
			<point x="90" y="170" type="line" smooth="yes"/>
			<point x="71" y="72"/>
			<point x="138" y="-16"/>
		</contour>
		<contour>
			<point x="238" y="37" type="curve" smooth="yes"/>
			<point x="148" y="37"/>
			<point x="88" y="110"/>
			<point x="116" y="250" type="curve" smooth="yes"/>
			<point x="143" y="390"/>
			<point x="231" y="463"/>
			<point x="321" y="463" type="curve" smooth="yes"/>
			<point x="411" y="463"/>
			<point x="470" y="388"/>
			<point x="444" y="250" type="curve" smooth="yes"/>
			<point x="417" y="113"/>
			<point x="328" y="37"/>
		</contour>
	</outline>
</glyph>
<glyph name="Dcroat" format="2">
	<advance width="663"/>
	<unicode hex="0110"/>
	<outline>
		<contour>
			<point x="16" y="330" type="line"/>
			<point x="306" y="330" type="line"/>
			<point x="314" y="370" type="line"/>
			<point x="24" y="370" type="line"/>
		</contour>
		<component base="D" xOffset="15"/>
	</outline>
</glyph>
<glyph name="dcroat" format="2">
	<advance width="585"/>
	<unicode hex="0111"/>
	<outline>
		<contour>
			<point x="299" y="583" type="line"/>
			<point x="639" y="583" type="line"/>
			<point x="646" y="617" type="line"/>
			<point x="306" y="617" type="line"/>
		</contour>
		<component base="d"/>
	</outline>
</glyph>
<glyph name="Hbar" format="2">
	<advance width="666"/>
	<unicode hex="0126"/>
	<outline>
		<contour>
			<point x="61" y="540" type="line"/>
			<point x="677" y="540" type="line"/>
			<point x="685" y="580" type="line"/>
			<point x="69" y="580" type="line"/>
		</contour>
		<component base="H" xOffset="4"/>
	</outline>
</glyph>
<glyph name="ibreve" format="2">
	<advance width="160"/>
	<unicode hex="012D"/>
	<outline>
		<contour>
			<point x="126" y="590" type="curve" smooth="yes"/>
			<point x="200" y="590"/>
			<point x="243" y="644"/>
			<point x="261" y="720" type="curve"/>
			<point x="217" y="720" type="line"/>
			<point x="203" y="664"/>
			<point x="175" y="634"/>
			<point x="134" y="634" type="curve" smooth="yes"/>
			<point x="93" y="634"/>
			<point x="77" y="664"/>
			<point x="85" y="720" type="curve"/>
			<point x="41" y="720" type="line"/>
			<point x="29" y="644"/>
			<point x="51" y="590"/>
		</contour>
		<component base="idotless" xOffset="-28"/>
	</outline>
</glyph>
<glyph name="idotless" format="2">
	<advance width="216"/>
	<unicode hex="0131"/>
	<outline>
		<contour>
			<point x="12" y="0" type="line"/>
			<point x="67" y="0" type="line"/>
			<point x="164" y="500" type="line"/>
			<point x="109" y="500" type="line"/>
		</contour>
	</outline>
</glyph>
<glyph name="Lslash" format="2">
	<advance width="497"/>
	<unicode hex="0141"/>
	<outline>
		<contour>
			<point x="-8" y="260" type="line"/>
			<point x="339" y="402" type="line"/>
			<point x="346" y="440" type="line"/>
			<point x="-1" y="298" type="line"/>
		</contour>
		<component base="L" xOffset="-1"/>
	</outline>
</glyph>
<glyph name="lslash" format="2">
	<advance width="280"/>
	<unicode hex="0142"/>
	<outline>
		<component base="l" xOffset="32"/>
		<contour>
			<point x="36" y="283" type="line"/>
			<point x="237" y="391" type="line"/>
			<point x="244" y="427" type="line"/>
			<point x="43" y="319" type="line"/>
		</contour>
	</outline>
</glyph>
<glyph name="Eng" format="2">
	<advance width="701"/>
	<unicode hex="014A"/>
	<outline>
		<contour>
			<point x="298" y="-200" type="line"/>
			<point x="373" y="-200" type="line" smooth="yes"/>
			<point x="459" y="-200"/>
			<point x="512" y="-156"/>
			<point x="528" y="-70" type="curve" smooth="yes"/>
			<point x="542" y="0" type="line"/>
			<point x="487" y="0" type="line"/>
			<point x="472" y="-77" type="line" smooth="yes"/>
			<point x="463" y="-122"/>
			<point x="433" y="-147"/>
			<point x="388" y="-147" type="curve" smooth="yes"/>
			<point x="308" y="-147" type="line"/>
		</contour>
		<component base="N"/>
	</outline>
</glyph>
<glyph name="eng" format="2">
	<advance width="544"/>
	<unicode hex="014B"/>
	<outline>
		<contour>
			<point x="151" y="-200" type="line"/>
			<point x="226" y="-200" type="line" smooth="yes"/>
			<point x="312" y="-200"/>
			<point x="365" y="-156"/>
			<point x="381" y="-70" type="curve" smooth="yes"/>
			<point x="395" y="0" type="line"/>
			<point x="340" y="0" type="line"/>
			<point x="325" y="-77" type="line" smooth="yes"/>
			<point x="316" y="-122"/>
			<point x="286" y="-147"/>
			<point x="241" y="-147" type="curve" smooth="yes"/>
			<point x="161" y="-147" type="line"/>
		</contour>
		<component base="n"/>
	</outline>
</glyph>
<glyph name="Tbar" format="2">
	<advance width="608"/>
	<unicode hex="0166"/>
	<outline>
		<contour>
			<point x="140" y="330" type="line"/>
			<point x="460" y="330" type="line"/>
			<point x="468" y="370" type="line"/>
			<point x="148" y="370" type="line"/>
		</contour>
		<component base="T"/>
	</outline>
</glyph>
<glyph name="tbar" format="2">
	<advance width="369"/>
	<unicode hex="0167"/>
	<outline>
		<contour>
			<point x="4" y="270" type="line"/>
			<point x="317" y="270" type="line"/>
			<point x="325" y="310" type="line"/>
			<point x="12" y="310" type="line"/>
		</contour>
		<component base="t"/>
	</outline>
</glyph>
<glyph name="florin" format="2">
	<advance width="429"/>
	<unicode hex="0192"/>
	<outline>
		<contour>
			<point x="-95" y="-216" type="line"/>
			<point x="-36" y="-216" type="line" smooth="yes"/>
			<point x="46" y="-216"/>
			<point x="88" y="-184"/>
			<point x="121" y="-71" type="curve" smooth="yes"/>
			<point x="301" y="546" type="line" smooth="yes"/>
			<point x="330" y="644"/>
			<point x="347" y="657"/>
			<point x="406" y="657" type="curve" smooth="yes"/>
			<point x="453" y="657" type="line"/>
			<point x="463" y="710" type="line"/>
			<point x="404" y="710" type="line" smooth="yes"/>
			<point x="322" y="710"/>
			<point x="280" y="678"/>
			<point x="247" y="565" type="curve" smooth="yes"/>
			<point x="67" y="-52" type="line" smooth="yes"/>
			<point x="38" y="-150"/>
			<point x="21" y="-163"/>
			<point x="-38" y="-163" type="curve" smooth="yes"/>
			<point x="-85" y="-163" type="line"/>
		</contour>
		<contour>
			<point x="89" y="357" type="line"/>
			<point x="357" y="357" type="line"/>
			<point x="368" y="410" type="line"/>
			<point x="100" y="410" type="line"/>
		</contour>
	</outline>
</glyph>
<glyph name="jdotless" format="2">
	<advance width="255"/>
	<unicode hex="0237"/>
	<outline>
		<contour>
			<point x="-137" y="-200" type="line"/>
			<point x="-62" y="-200" type="line" smooth="yes"/>
			<point x="24" y="-200"/>
			<point x="77" y="-156"/>
			<point x="93" y="-70" type="curve" smooth="yes"/>
			<point x="204" y="500" type="line"/>
			<point x="149" y="500" type="line"/>
			<point x="37" y="-77" type="line" smooth="yes"/>
			<point x="28" y="-122"/>
			<point x="-2" y="-147"/>
			<point x="-47" y="-147" type="curve" smooth="yes"/>
			<point x="-127" y="-147" type="line"/>
		</contour>
	</outline>
</glyph>
<glyph name="circumflex" format="2">
	<advance width="502"/>
	<unicode hex="02C6"/>
	<outline>
		<contour>
			<point x="186" y="590" type="line"/>
			<point x="231" y="590" type="line"/>
			<point x="322" y="700" type="line"/>
			<point x="371" y="590" type="line"/>
			<point x="408" y="590" type="line"/>
			<point x="373" y="720" type="line"/>
			<point x="271" y="720" type="line"/>
		</contour>
	</outline>
</glyph>
<glyph name="caron" format="2">
	<advance width="502"/>
	<unicode hex="02C7"/>
	<outline>
		<contour>
			<point x="246" y="590" type="line"/>
			<point x="348" y="590" type="line"/>
			<point x="433" y="720" type="line"/>
			<point x="388" y="720" type="line"/>
			<point x="297" y="610" type="line"/>
			<point x="248" y="720" type="line"/>
			<point x="211" y="720" type="line"/>
		</contour>
	</outline>
</glyph>
<glyph name="breve" format="2">
	<advance width="560"/>
	<unicode hex="02D8"/>
	<outline>
		<contour>
			<point x="326" y="590" type="curve" smooth="yes"/>
			<point x="402" y="590"/>
			<point x="471" y="645"/>
			<point x="491" y="720" type="curve"/>
			<point x="446" y="720" type="line"/>
			<point x="431" y="671"/>
			<point x="383" y="634"/>
			<point x="334" y="634" type="curve" smooth="yes"/>
			<point x="285" y="634"/>
			<point x="251" y="671"/>
			<point x="256" y="720" type="curve"/>
			<point x="211" y="720" type="line"/>
			<point x="201" y="645"/>
			<point x="250" y="590"/>
		</contour>
	</outline>
</glyph>
<glyph name="dotaccent" format="2">
	<advance width="354"/>
	<unicode hex="02D9"/>
	<outline>
		<contour>
			<point x="186" y="590" type="line"/>
			<point x="260" y="590" type="line"/>
			<point x="274" y="664" type="line"/>
			<point x="200" y="664" type="line"/>
		</contour>
	</outline>
</glyph>
<glyph name="ring" format="2">
	<advance width="471"/>
	<unicode hex="02DA"/>
	<outline>
		<contour>
			<point x="291" y="586" type="curve" smooth="yes"/>
			<point x="344" y="586"/>
			<point x="389" y="628"/>
			<point x="394" y="681" type="curve" smooth="yes"/>
			<point x="399" y="734"/>
			<point x="360" y="776"/>
			<point x="307" y="776" type="curve" smooth="yes"/>
			<point x="254" y="776"/>
			<point x="209" y="734"/>
			<point x="204" y="681" type="curve" smooth="yes"/>
			<point x="199" y="628"/>
			<point x="238" y="586"/>
		</contour>
		<contour>
			<point x="295" y="631" type="curve" smooth="yes"/>
			<point x="267" y="631"/>
			<point x="247" y="653"/>
			<point x="249" y="681" type="curve" smooth="yes"/>
			<point x="251" y="709"/>
			<point x="275" y="731"/>
			<point x="303" y="731" type="curve" smooth="yes"/>
			<point x="331" y="731"/>
			<point x="351" y="709"/>
			<point x="349" y="681" type="curve" smooth="yes"/>
			<point x="347" y="653"/>
			<point x="323" y="631"/>
		</contour>
	</outline>
</glyph>
<glyph name="ogonek" format="2">
	<advance width="418"/>
	<unicode hex="02DB"/>
	<outline>
		<contour>
			<point x="107" y="-158" type="curve" smooth="yes"/>
			<point x="167" y="-158"/>
			<point x="188" y="-109"/>
			<point x="194" y="-79" type="curve"/>
			<point x="158" y="-69" type="line"/>
			<point x="152" y="-99"/>
			<point x="136" y="-113"/>
			<point x="116" y="-113" type="curve" smooth="yes"/>
			<point x="96" y="-113"/>
			<point x="92" y="-97"/>
			<point x="96" y="-77" type="curve" smooth="yes"/>
			<point x="102" y="-47"/>
			<point x="131" y="-16"/>
			<point x="171" y="0" type="curve"/>
			<point x="133" y="0" type="line"/>
			<point x="103" y="-10"/>
			<point x="61" y="-49"/>
			<point x="54" y="-89" type="curve" smooth="yes"/>
			<point x="46" y="-129"/>
			<point x="67" y="-158"/>
		</contour>
	</outline>
</glyph>
<glyph name="tilde" format="2">
	<advance width="582"/>
	<unicode hex="02DC"/>
	<outline>
		<contour>
			<point x="241" y="591" type="line"/>
			<point x="247" y="611"/>
			<point x="263" y="646"/>
			<point x="297" y="646" type="curve" smooth="yes"/>
			<point x="334" y="646"/>
			<point x="347" y="590"/>
			<point x="400" y="590" type="curve" smooth="yes"/>
			<point x="452" y="590"/>
			<point x="492" y="628"/>
			<point x="506" y="680" type="curve"/>
			<point x="455" y="688" type="line"/>
			<point x="451" y="668"/>
			<point x="438" y="633"/>
			<point x="398" y="633" type="curve" smooth="yes"/>
			<point x="361" y="633"/>
			<point x="348" y="689"/>
			<point x="295" y="689" type="curve" smooth="yes"/>
			<point x="240" y="689"/>
			<point x="202" y="651"/>
			<point x="188" y="599" type="curve"/>
		</contour>
	</outline>
</glyph>
<glyph name="commaaccentcomb" format="2">
	<advance width="371"/>
	<unicode hex="0326"/>
	<outline>
		<contour>
			<point x="30" y="-218" type="line"/>
			<point x="80" y="-218"/>
			<point x="125" y="-190"/>
			<point x="139" y="-120" type="curve"/>
			<point x="107" y="-120" type="line"/>
			<point x="97" y="-170"/>
			<point x="74" y="-195"/>
			<point x="34" y="-195" type="curve"/>
		</contour>
		<contour>
			<point x="59" y="-120" type="line"/>
			<point x="139" y="-120" type="line"/>
			<point x="150" y="-60" type="line"/>
			<point x="70" y="-60" type="line"/>
		</contour>
	</outline>
</glyph>
<glyph name="Delta" format="2">
	<advance width="760"/>
	<unicode hex="0394"/>
	<outline>
		<contour>
			<point x="36" y="0" type="line"/>
			<point x="586" y="0" type="line"/>
			<point x="486" y="700" type="line"/>
			<point x="418" y="700" type="line"/>
		</contour>
		<contour>
			<point x="120" y="42" type="line"/>
			<point x="460" y="664" type="line"/>
			<point x="434" y="664" type="line"/>
			<point x="523" y="42" type="line"/>
			<point x="533" y="53" type="line"/>
			<point x="109" y="53" type="line"/>
		</contour>
	</outline>
</glyph>
<glyph name="Omega" format="2">
	<advance width="771"/>
	<unicode hex="03A9"/>
	<outline>
		<contour>
			<point x="-21" y="10" type="line"/>
			<point x="249" y="10" type="line"/>
			<point x="260" y="69" type="line"/>
			<point x="161" y="169"/>
			<point x="108" y="261"/>
			<point x="134" y="394" type="curve" smooth="yes"/>
			<point x="160" y="529"/>
			<point x="278" y="653"/>
			<point x="444" y="653" type="curve" smooth="yes"/>
			<point x="610" y="653"/>
			<point x="681" y="529"/>
			<point x="654" y="394" type="curve" smooth="yes"/>
			<point x="627" y="262"/>
			<point x="539" y="169"/>
			<point x="400" y="69" type="curve"/>
			<point x="389" y="10" type="line"/>
			<point x="659" y="10" type="line"/>
			<point x="669" y="64" type="line"/>
			<point x="469" y="64" type="line"/>
			<point x="471" y="73" type="line"/>
			<point x="568" y="134"/>
			<point x="679" y="229"/>
			<point x="712" y="394" type="curve" smooth="yes"/>
			<point x="746" y="570"/>
			<point x="650" y="706"/>
			<point x="454" y="706" type="curve" smooth="yes"/>
			<point x="258" y="706"/>
			<point x="110" y="570"/>
			<point x="76" y="394" type="curve" smooth="yes"/>
			<point x="43" y="229"/>
			<point x="118" y="134"/>
			<point x="191" y="73" type="curve"/>
			<point x="189" y="64" type="line"/>
			<point x="-11" y="64" type="line"/>
		</contour>
	</outline>
</glyph>
<glyph name="mu" format="2">
	<advance width="544"/>
	<unicode hex="03BC"/>
	<outline>
		<contour>
			<point x="162" y="-16" type="curve" smooth="yes"/>
			<point x="262" y="-16"/>
			<point x="360" y="51"/>
			<point x="385" y="181" type="curve"/>
			<point x="390" y="257" type="line"/>
			<point x="359" y="97"/>
			<point x="272" y="37"/>
			<point x="187" y="37" type="curve" smooth="yes"/>
			<point x="107" y="37"/>
			<point x="85" y="91"/>
			<point x="104" y="191" type="curve" smooth="yes"/>
			<point x="164" y="500" type="line"/>
			<point x="109" y="500" type="line"/>
			<point x="43" y="161" type="line" smooth="yes"/>
			<point x="20" y="41"/>
			<point x="72" y="-16"/>
		</contour>
		<contour>
			<point x="-27" y="-200" type="line"/>
			<point x="28" y="-200" type="line"/>
			<point x="104" y="191" type="line"/>
			<point x="43" y="161" type="line"/>
		</contour>
		<contour>
			<point x="340" y="0" type="line"/>
			<point x="395" y="0" type="line"/>
			<point x="492" y="500" type="line"/>
			<point x="437" y="500" type="line"/>
		</contour>
	</outline>
</glyph>
<glyph name="pi" format="2">
	<advance width="681"/>
	<unicode hex="03C0"/>
	<outline>
		<contour>
			<point x="507" y="0" type="curve" smooth="yes"/>
			<point x="532" y="0" type="line"/>
			<point x="542" y="53" type="line"/>
			<point x="512" y="53" type="line" smooth="yes"/>
			<point x="467" y="53"/>
			<point x="447" y="78"/>
			<point x="456" y="123" type="curve" smooth="yes"/>
			<point x="529" y="500" type="line"/>
			<point x="474" y="500" type="line"/>
			<point x="402" y="130" type="line" smooth="yes"/>
			<point x="386" y="44"/>
			<point x="421" y="0"/>
		</contour>
		<contour>
			<point x="112" y="0" type="line"/>
			<point x="167" y="0" type="line"/>
			<point x="264" y="500" type="line"/>
			<point x="209" y="500" type="line"/>
		</contour>
		<contour>
			<point x="99" y="447" type="line"/>
			<point x="619" y="447" type="line"/>
			<point x="629" y="500" type="line"/>
			<point x="109" y="500" type="line"/>
		</contour>
	</outline>
</glyph>
<glyph name="Germandbls" format="2">
	<advance width="649"/>
	<unicode hex="1E9E"/>
	<outline>
		<contour>
			<point x="199" y="0" type="line"/>
			<point x="269" y="0" type="line" smooth="yes"/>
			<point x="439" y="0"/>
			<point x="527" y="82"/>
			<point x="551" y="207" type="curve" smooth="yes"/>
			<point x="575" y="325"/>
			<point x="491" y="410"/>
			<point x="361" y="410" type="curve"/>
			<point x="349" y="395" type="line"/>
			<point x="562" y="603" type="line" smooth="yes"/>
			<point x="609" y="648"/>
			<point x="595" y="700"/>
			<point x="537" y="700" type="curve" smooth="yes"/>
			<point x="187" y="700" type="line"/>
			<point x="177" y="647" type="line"/>
			<point x="537" y="647" type="line"/>
			<point x="310" y="419" type="line"/>
			<point x="298" y="357" type="line"/>
			<point x="348" y="357" type="line" smooth="yes"/>
			<point x="448" y="357"/>
			<point x="514" y="315"/>
			<point x="493" y="207" type="curve" smooth="yes"/>
			<point x="472" y="99"/>
			<point x="390" y="58"/>
			<point x="290" y="58" type="curve" smooth="yes"/>
			<point x="210" y="58" type="line"/>
		</contour>
		<contour>
			<point x="21" y="0" type="line"/>
			<point x="79" y="0" type="line"/>
			<point x="215" y="700" type="line"/>
			<point x="157" y="700" type="line"/>
		</contour>
	</outline>
</glyph>
<glyph name="emdash" format="2">
	<advance width="865"/>
	<unicode hex="2014"/>
	<outline>
		<contour>
			<point x="69" y="269" type="line"/>
			<point x="764" y="269" type="line"/>
			<point x="775" y="322" type="line"/>
			<point x="80" y="322" type="line"/>
		</contour>
	</outline>
</glyph>
<glyph name="dagger" format="2">
	<advance width="393"/>
	<unicode hex="2020"/>
	<outline>
		<contour>
			<point x="148" y="216" type="line"/>
			<point x="191" y="216" type="line"/>
			<point x="288" y="716" type="line"/>
			<point x="245" y="716" type="line"/>
		</contour>
		<contour>
			<point x="80" y="533" type="line"/>
			<point x="383" y="533" type="line"/>
			<point x="391" y="576" type="line"/>
			<point x="88" y="576" type="line"/>
		</contour>
	</outline>
</glyph>
<glyph name="daggerdbl" format="2">
	<advance width="394"/>
	<unicode hex="2021"/>
	<outline>
		<contour>
			<point x="149" y="216" type="line"/>
			<point x="192" y="216" type="line"/>
			<point x="289" y="716" type="line"/>
			<point x="246" y="716" type="line"/>
		</contour>
		<contour>
			<point x="46" y="356" type="line"/>
			<point x="349" y="356" type="line"/>
			<point x="358" y="399" type="line"/>
			<point x="55" y="399" type="line"/>
		</contour>
		<contour>
			<point x="81" y="533" type="line"/>
			<point x="384" y="533" type="line"/>
			<point x="392" y="576" type="line"/>
			<point x="89" y="576" type="line"/>
		</contour>
	</outline>
</glyph>
<glyph name="bullet" format="2">
	<advance width="361"/>
	<unicode hex="2022"/>
	<outline>
		<contour>
			<point x="172" y="255" type="curve" smooth="yes"/>
			<point x="225" y="255"/>
			<point x="270" y="297"/>
			<point x="275" y="350" type="curve" smooth="yes"/>
			<point x="280" y="403"/>
			<point x="241" y="445"/>
			<point x="188" y="445" type="curve" smooth="yes"/>
			<point x="135" y="445"/>
			<point x="90" y="403"/>
			<point x="85" y="350" type="curve" smooth="yes"/>
			<point x="80" y="297"/>
			<point x="119" y="255"/>
		</contour>
	</outline>
</glyph>
<glyph name="perthousand" format="2">
	<advance width="1146"/>
	<unicode hex="2030"/>
	<outline>
		<contour>
			<point x="36" y="0" type="line"/>
			<point x="102" y="0" type="line"/>
			<point x="750" y="716" type="line"/>
			<point x="684" y="716" type="line"/>
		</contour>
		<contour>
			<point x="231" y="396" type="curve" smooth="yes"/>
			<point x="326" y="396"/>
			<point x="397" y="468"/>
			<point x="405" y="556" type="curve" smooth="yes"/>
			<point x="413" y="644"/>
			<point x="347" y="716"/>
			<point x="259" y="716" type="curve" smooth="yes"/>
			<point x="164" y="716"/>
			<point x="93" y="644"/>
			<point x="85" y="556" type="curve" smooth="yes"/>
			<point x="77" y="468"/>
			<point x="143" y="396"/>
		</contour>
		<contour>
			<point x="236" y="449" type="curve" smooth="yes"/>
			<point x="177" y="449"/>
			<point x="133" y="491"/>
			<point x="138" y="556" type="curve" smooth="yes"/>
			<point x="143" y="615"/>
			<point x="195" y="663"/>
			<point x="254" y="663" type="curve" smooth="yes"/>
			<point x="313" y="663"/>
			<point x="357" y="621"/>
			<point x="352" y="556" type="curve" smooth="yes"/>
			<point x="347" y="497"/>
			<point x="295" y="449"/>
		</contour>
		<contour>
			<point x="525" y="-16" type="curve" smooth="yes"/>
			<point x="620" y="-16"/>
			<point x="691" y="56"/>
			<point x="699" y="144" type="curve" smooth="yes"/>
			<point x="707" y="232"/>
			<point x="641" y="304"/>
			<point x="553" y="304" type="curve" smooth="yes"/>
			<point x="458" y="304"/>
			<point x="387" y="232"/>
			<point x="379" y="144" type="curve" smooth="yes"/>
			<point x="371" y="56"/>
			<point x="437" y="-16"/>
		</contour>
		<contour>
			<point x="530" y="37" type="curve" smooth="yes"/>
			<point x="471" y="37"/>
			<point x="427" y="79"/>
			<point x="432" y="144" type="curve" smooth="yes"/>
			<point x="437" y="203"/>
			<point x="489" y="251"/>
			<point x="548" y="251" type="curve" smooth="yes"/>
			<point x="607" y="251"/>
			<point x="651" y="209"/>
			<point x="646" y="144" type="curve" smooth="yes"/>
			<point x="641" y="85"/>
			<point x="589" y="37"/>
		</contour>
		<contour>
			<point x="885" y="-16" type="curve" smooth="yes"/>
			<point x="980" y="-16"/>
			<point x="1051" y="56"/>
			<point x="1059" y="144" type="curve" smooth="yes"/>
			<point x="1067" y="232"/>
			<point x="1001" y="304"/>
			<point x="913" y="304" type="curve" smooth="yes"/>
			<point x="818" y="304"/>
			<point x="747" y="232"/>
			<point x="739" y="144" type="curve" smooth="yes"/>
			<point x="731" y="56"/>
			<point x="797" y="-16"/>
		</contour>
		<contour>
			<point x="890" y="37" type="curve" smooth="yes"/>
			<point x="831" y="37"/>
			<point x="787" y="79"/>
			<point x="792" y="144" type="curve" smooth="yes"/>
			<point x="797" y="203"/>
			<point x="849" y="251"/>
			<point x="908" y="251" type="curve" smooth="yes"/>
			<point x="967" y="251"/>
			<point x="1011" y="209"/>
			<point x="1006" y="144" type="curve" smooth="yes"/>
			<point x="1001" y="85"/>
			<point x="949" y="37"/>
		</contour>
	</outline>
</glyph>
<glyph name="guilsinglleft" format="2">
	<advance width="269"/>
	<unicode hex="2039"/>
	<outline>
		<contour>
			<point x="116" y="70" type="line"/>
			<point x="169" y="70" type="line"/>
			<point x="72" y="309" type="line"/>
			<point x="57" y="231" type="line"/>
			<point x="246" y="470" type="line"/>
			<point x="193" y="470" type="line"/>
			<point x="34" y="270" type="line"/>
		</contour>
	</outline>
</glyph>
<glyph name="guilsinglright" format="2">
	<advance width="268"/>
	<unicode hex="203A"/>
	<outline>
		<contour>
			<point x="-9" y="70" type="line"/>
			<point x="44" y="70" type="line"/>
			<point x="202" y="270" type="line"/>
			<point x="121" y="470" type="line"/>
			<point x="68" y="470" type="line"/>
			<point x="165" y="231" type="line"/>
			<point x="180" y="309" type="line"/>
		</contour>
	</outline>
</glyph>
<glyph name="won" format="2">
	<advance width="837"/>
	<unicode hex="20A9"/>
	<outline>
		<contour>
			<point x="138" y="0" type="line"/>
			<point x="216" y="0" type="line"/>
			<point x="464" y="587" type="line"/>
			<point x="463" y="587" type="line"/>
			<point x="483" y="0" type="line"/>
			<point x="561" y="0" type="line"/>
			<point x="864" y="700" type="line"/>
			<point x="807" y="700" type="line"/>
			<point x="524" y="38" type="line"/>
			<point x="531" y="38" type="line"/>
			<point x="510" y="700" type="line"/>
			<point x="461" y="700" type="line"/>
			<point x="182" y="38" type="line"/>
			<point x="193" y="38" type="line"/>
			<point x="164" y="700" type="line"/>
			<point x="107" y="700" type="line"/>
		</contour>
		<contour>
			<point x="26" y="224" type="line"/>
			<point x="762" y="224" type="line"/>
			<point x="770" y="267" type="line"/>
			<point x="34" y="267" type="line"/>
		</contour>
		<contour>
			<point x="57" y="387" type="line"/>
			<point x="793" y="387" type="line"/>
			<point x="802" y="430" type="line"/>
			<point x="66" y="430" type="line"/>
		</contour>
	</outline>
</glyph>
<glyph name="euro" format="2">
	<advance width="793"/>
	<unicode hex="20AC"/>
	<outline>
		<contour>
			<point x="367" y="-16" type="curve" smooth="yes"/>
			<point x="517" y="-16"/>
			<point x="654" y="99"/>
			<point x="704" y="258" type="curve"/>
			<point x="647" y="266" type="line"/>
			<point x="609" y="147"/>
			<point x="507" y="37"/>
			<point x="377" y="37" type="curve" smooth="yes"/>
			<point x="217" y="37"/>
			<point x="151" y="180"/>
			<point x="184" y="350" type="curve" smooth="yes"/>
			<point x="217" y="520"/>
			<point x="339" y="662"/>
			<point x="499" y="662" type="curve" smooth="yes"/>
			<point x="629" y="662"/>
			<point x="683" y="547"/>
			<point x="677" y="428" type="curve"/>
			<point x="739" y="437" type="line"/>
			<point x="751" y="596"/>
			<point x="659" y="716"/>
			<point x="509" y="716" type="curve" smooth="yes"/>
			<point x="339" y="716"/>
			<point x="171" y="580"/>
			<point x="126" y="350" type="curve" smooth="yes"/>
			<point x="81" y="120"/>
			<point x="197" y="-16"/>
		</contour>
		<contour>
			<point x="36" y="254" type="line"/>
			<point x="465" y="254" type="line"/>
			<point x="474" y="297" type="line"/>
			<point x="45" y="297" type="line"/>
		</contour>
		<contour>
			<point x="64" y="397" type="line"/>
			<point x="493" y="397" type="line"/>
			<point x="501" y="440" type="line"/>
			<point x="72" y="440" type="line"/>
		</contour>
	</outline>
</glyph>
<glyph name="rupeeIndian" format="2">
	<advance width="612"/>
	<unicode hex="20B9"/>
	<outline>
		<contour>
			<point x="252" y="0" type="line"/>
			<point x="320" y="0" type="line"/>
			<point x="139" y="336" type="line"/>
			<point x="135" y="329" type="line"/>
			<point x="201" y="329" type="line" smooth="yes"/>
			<point x="260" y="329"/>
			<point x="426" y="349"/>
			<point x="458" y="514" type="curve" smooth="yes"/>
			<point x="490" y="680"/>
			<point x="332" y="700"/>
			<point x="273" y="700" type="curve" smooth="yes"/>
			<point x="153" y="700" type="line"/>
			<point x="143" y="647" type="line"/>
			<point x="243" y="647" type="line" smooth="yes"/>
			<point x="357" y="647"/>
			<point x="419" y="611"/>
			<point x="400" y="514" type="curve" smooth="yes"/>
			<point x="381" y="417"/>
			<point x="305" y="382"/>
			<point x="191" y="382" type="curve" smooth="yes"/>
			<point x="91" y="382" type="line"/>
			<point x="80" y="322" type="line"/>
		</contour>
		<contour>
			<point x="115" y="502" type="line"/>
			<point x="576" y="502" type="line"/>
			<point x="584" y="545" type="line"/>
			<point x="123" y="545" type="line"/>
		</contour>
		<contour>
			<point x="145" y="657" type="line"/>
			<point x="606" y="657" type="line"/>
			<point x="614" y="700" type="line"/>
			<point x="153" y="700" type="line"/>
		</contour>
	</outline>
</glyph>
<glyph name="liraTurkish" format="2">
	<advance width="672"/>
	<unicode hex="20BA"/>
	<outline>
		<contour>
			<point x="114" y="0" type="line"/>
			<point x="337" y="0" type="line" smooth="yes"/>
			<point x="458" y="0"/>
			<point x="570" y="84"/>
			<point x="598" y="202" type="curve"/>
			<point x="547" y="210" type="line"/>
			<point x="524" y="123"/>
			<point x="436" y="53"/>
			<point x="347" y="53" type="curve" smooth="yes"/>
			<point x="182" y="53" type="line"/>
			<point x="308" y="700" type="line"/>
			<point x="250" y="700" type="line"/>
		</contour>
		<contour>
			<point x="47" y="257" type="line"/>
			<point x="488" y="372" type="line"/>
			<point x="496" y="414" type="line"/>
			<point x="55" y="299" type="line"/>
		</contour>
		<contour>
			<point x="75" y="400" type="line"/>
			<point x="516" y="515" type="line"/>
			<point x="524" y="557" type="line"/>
			<point x="83" y="442" type="line"/>
		</contour>
	</outline>
</glyph>
<glyph name="bitcoin" format="2">
	<advance width="585"/>
	<unicode hex="20BF"/>
	<outline>
		<contour>
			<point x="54" y="0" type="line"/>
			<point x="231" y="0" type="line" smooth="yes"/>
			<point x="330" y="0"/>
			<point x="460" y="39"/>
			<point x="489" y="191" type="curve" smooth="yes"/>
			<point x="509" y="294"/>
			<point x="449" y="361"/>
			<point x="339" y="361" type="curve"/>
			<point x="338" y="357" type="line"/>
			<point x="438" y="357"/>
			<point x="498" y="441"/>
			<point x="512" y="515" type="curve" smooth="yes"/>
			<point x="538" y="648"/>
			<point x="435" y="700"/>
			<point x="327" y="700" type="curve" smooth="yes"/>
			<point x="170" y="700" type="line"/>
			<point x="160" y="647" type="line"/>
			<point x="317" y="647" type="line" smooth="yes"/>
			<point x="421" y="647"/>
			<point x="471" y="601"/>
			<point x="454" y="515" type="curve" smooth="yes"/>
			<point x="437" y="429"/>
			<point x="369" y="382"/>
			<point x="265" y="382" type="curve" smooth="yes"/>
			<point x="108" y="382" type="line"/>
			<point x="98" y="329" type="line"/>
			<point x="295" y="329" type="line" smooth="yes"/>
			<point x="389" y="329"/>
			<point x="450" y="288"/>
			<point x="431" y="191" type="curve" smooth="yes"/>
			<point x="412" y="94"/>
			<point x="335" y="53"/>
			<point x="241" y="53" type="curve" smooth="yes"/>
			<point x="64" y="53" type="line"/>
		</contour>
		<contour>
			<point x="80" y="-100" type="line"/>
			<point x="123" y="-100" type="line"/>
			<point x="148" y="33" type="line"/>
			<point x="105" y="33" type="line"/>
		</contour>
		<contour>
			<point x="223" y="-100" type="line"/>
			<point x="266" y="-100" type="line"/>
			<point x="291" y="33" type="line"/>
			<point x="248" y="33" type="line"/>
		</contour>
		<contour>
			<point x="21" y="0" type="line"/>
			<point x="74" y="0" type="line"/>
			<point x="210" y="700" type="line"/>
			<point x="157" y="700" type="line"/>
		</contour>
		<contour>
			<point x="229" y="667" type="line"/>
			<point x="272" y="667" type="line"/>
			<point x="297" y="800" type="line"/>
			<point x="254" y="800" type="line"/>
		</contour>
		<contour>
			<point x="372" y="667" type="line"/>
			<point x="415" y="667" type="line"/>
			<point x="440" y="800" type="line"/>
			<point x="397" y="800" type="line"/>
		</contour>
	</outline>
</glyph>
<glyph name="literSign" format="2">
	<advance width="656"/>
	<unicode hex="2113"/>
	<outline>
		<contour>
			<point x="275" y="-16" type="curve" smooth="yes"/>
			<point x="365" y="-16"/>
			<point x="435" y="77"/>
			<point x="454" y="152" type="curve"/>
			<point x="397" y="160" type="line"/>
			<point x="380" y="92"/>
			<point x="330" y="41"/>
			<point x="276" y="41" type="curve" smooth="yes"/>
			<point x="155" y="41"/>
			<point x="176" y="262"/>
			<point x="238" y="421" type="curve" smooth="yes"/>
			<point x="294" y="562"/>
			<point x="396" y="658"/>
			<point x="471" y="658" type="curve" smooth="yes"/>
			<point x="559" y="658"/>
			<point x="553" y="551"/>
			<point x="492" y="452" type="curve" smooth="yes"/>
			<point x="411" y="321"/>
			<point x="250" y="233"/>
			<point x="42" y="230" type="curve"/>
			<point x="30" y="172" type="line"/>
			<point x="272" y="175"/>
			<point x="448" y="289"/>
			<point x="536" y="432" type="curve" smooth="yes"/>
			<point x="625" y="577"/>
			<point x="602" y="716"/>
			<point x="482" y="716" type="curve" smooth="yes"/>
			<point x="376" y="716"/>
			<point x="252" y="600"/>
			<point x="179" y="417" type="curve" smooth="yes"/>
			<point x="118" y="261"/>
			<point x="94" y="-16"/>
		</contour>
	</outline>
</glyph>
<glyph name="numero" format="2">
	<advance width="1192"/>
	<unicode hex="2116"/>
	<outline>
		<contour>
			<point x="884" y="173" type="curve" smooth="yes"/>
			<point x="1000" y="173"/>
			<point x="1096" y="262"/>
			<point x="1106" y="378" type="curve" smooth="yes"/>
			<point x="1117" y="494"/>
			<point x="1035" y="583"/>
			<point x="919" y="583" type="curve" smooth="yes"/>
			<point x="804" y="583"/>
			<point x="707" y="494"/>
			<point x="696" y="378" type="curve" smooth="yes"/>
			<point x="686" y="262"/>
			<point x="769" y="173"/>
		</contour>
		<component base="N"/>
		<contour>
			<point x="674" y="0" type="line"/>
			<point x="989" y="0" type="line"/>
			<point x="999" y="53" type="line"/>
			<point x="684" y="53" type="line"/>
		</contour>
		<contour>
			<point x="888" y="226" type="curve" smooth="yes"/>
			<point x="804" y="226"/>
			<point x="742" y="294"/>
			<point x="749" y="378" type="curve" smooth="yes"/>
			<point x="757" y="463"/>
			<point x="831" y="530"/>
			<point x="915" y="530" type="curve" smooth="yes"/>
			<point x="1001" y="530"/>
			<point x="1061" y="463"/>
			<point x="1053" y="378" type="curve" smooth="yes"/>
			<point x="1046" y="294"/>
			<point x="974" y="226"/>
		</contour>
	</outline>
</glyph>
<glyph name="published" format="2">
	<advance width="540"/>
	<unicode hex="2117"/>
	<outline>
		<contour>
			<point x="258" y="286" type="curve" smooth="yes"/>
			<point x="378" y="286"/>
			<point x="491" y="381"/>
			<point x="514" y="501" type="curve" smooth="yes"/>
			<point x="538" y="621"/>
			<point x="461" y="716"/>
			<point x="341" y="716" type="curve" smooth="yes"/>
			<point x="222" y="716"/>
			<point x="108" y="621"/>
			<point x="84" y="501" type="curve" smooth="yes"/>
			<point x="61" y="381"/>
			<point x="139" y="286"/>
		</contour>
		<contour>
			<point x="224" y="393" type="line"/>
			<point x="251" y="393" type="line"/>
			<point x="294" y="611" type="line"/>
			<point x="267" y="611" type="line"/>
		</contour>
		<contour>
			<point x="263" y="313" type="curve" smooth="yes"/>
			<point x="158" y="313"/>
			<point x="91" y="396"/>
			<point x="111" y="501" type="curve" smooth="yes"/>
			<point x="132" y="607"/>
			<point x="231" y="689"/>
			<point x="336" y="689" type="curve" smooth="yes"/>
			<point x="443" y="689"/>
			<point x="508" y="607"/>
			<point x="487" y="501" type="curve" smooth="yes"/>
			<point x="467" y="396"/>
			<point x="370" y="313"/>
		</contour>
		<contour>
			<point x="253" y="490" type="line"/>
			<point x="311" y="490" type="line" smooth="yes"/>
			<point x="351" y="490"/>
			<point x="386" y="512"/>
			<point x="394" y="550" type="curve" smooth="yes"/>
			<point x="402" y="592"/>
			<point x="375" y="611"/>
			<point x="335" y="611" type="curve" smooth="yes"/>
			<point x="277" y="611" type="line"/>
			<point x="272" y="585" type="line"/>
			<point x="330" y="585" type="line" smooth="yes"/>
			<point x="357" y="585"/>
			<point x="372" y="576"/>
			<point x="367" y="550" type="curve" smooth="yes"/>
			<point x="362" y="524"/>
			<point x="343" y="516"/>
			<point x="316" y="516" type="curve" smooth="yes"/>
			<point x="258" y="516" type="line"/>
		</contour>
	</outline>
</glyph>
<glyph name="trademark" format="2">
	<advance width="779"/>
	<unicode hex="2122"/>
	<outline>
		<contour>
			<point x="377" y="336" type="line"/>
			<point x="416" y="336" type="line"/>
			<point x="471" y="617" type="line"/>
			<point x="469" y="617" type="line"/>
			<point x="512" y="336" type="line"/>
			<point x="555" y="336" type="line"/>
			<point x="708" y="617" type="line"/>
			<point x="706" y="617" type="line"/>
			<point x="651" y="336" type="line"/>
			<point x="690" y="336" type="line"/>
			<point x="761" y="700" type="line"/>
			<point x="719" y="700" type="line"/>
			<point x="540" y="373" type="line"/>
			<point x="542" y="373" type="line"/>
			<point x="490" y="700" type="line"/>
			<point x="448" y="700" type="line"/>
		</contour>
		<contour>
			<point x="140" y="336" type="line"/>
			<point x="179" y="336" type="line"/>
			<point x="245" y="675" type="line"/>
			<point x="206" y="675" type="line"/>
		</contour>
		<contour>
			<point x="76" y="666" type="line"/>
			<point x="371" y="666" type="line"/>
			<point x="378" y="700" type="line"/>
			<point x="83" y="700" type="line"/>
		</contour>
	</outline>
</glyph>
<glyph name="estimated" format="2">
	<advance width="686"/>
	<unicode hex="212E"/>
	<outline>
		<contour>
			<point x="328" y="-16" type="curve" smooth="yes"/>
			<point x="425" y="-16"/>
			<point x="519" y="45"/>
			<point x="563" y="134" type="curve"/>
			<point x="524" y="134" type="line"/>
			<point x="484" y="65"/>
			<point x="406" y="19"/>
			<point x="328" y="19" type="curve" smooth="yes"/>
			<point x="205" y="19"/>
			<point x="106" y="133"/>
			<point x="106" y="274" type="curve" smooth="yes"/>
			<point x="106" y="415"/>
			<point x="205" y="529"/>
			<point x="328" y="529" type="curve" smooth="yes"/>
			<point x="451" y="529"/>
			<point x="550" y="415"/>
			<point x="550" y="274" type="curve"/>
			<point x="585" y="274" type="line"/>
			<point x="585" y="434"/>
			<point x="470" y="564"/>
			<point x="328" y="564" type="curve" smooth="yes"/>
			<point x="186" y="564"/>
			<point x="71" y="434"/>
			<point x="71" y="274" type="curve" smooth="yes"/>
			<point x="71" y="114"/>
			<point x="186" y="-16"/>
		</contour>
		<contour>
			<point x="171" y="59" type="line"/>
			<point x="171" y="489" type="line"/>
			<point x="91" y="351" type="line"/>
			<point x="91" y="198" type="line"/>
		</contour>
		<contour>
			<point x="91" y="274" type="line"/>
			<point x="564" y="274" type="line"/>
			<point x="564" y="309" type="line"/>
			<point x="91" y="309" type="line"/>
		</contour>
		<contour>
			<point x="483" y="296" type="line"/>
			<point x="568" y="303" type="line"/>
			<point x="531" y="405" type="line"/>
			<point x="483" y="498" type="line"/>
		</contour>
	</outline>
</glyph>
<glyph name="upArrow" format="2">
	<advance width="661"/>
	<unicode hex="2191"/>
	<outline>
		<contour>
			<point x="94" y="396" type="line"/>
			<point x="254" y="396"/>
			<point x="347" y="507"/>
			<point x="360" y="577" type="curve"/>
			<point x="388" y="577" type="line"/>
			<point x="375" y="507"/>
			<point x="424" y="396"/>
			<point x="584" y="396" type="curve"/>
			<point x="593" y="444" type="line"/>
			<point x="443" y="444"/>
			<point x="396" y="569"/>
			<point x="409" y="639" type="curve"/>
			<point x="363" y="639" type="line"/>
			<point x="350" y="569"/>
			<point x="253" y="444"/>
			<point x="103" y="444" type="curve"/>
		</contour>
		<contour>
			<point x="234" y="-24" type="line"/>
			<point x="280" y="-24" type="line"/>
			<point x="403" y="607" type="line"/>
			<point x="357" y="607" type="line"/>
		</contour>
	</outline>
</glyph>
<glyph name="rightArrow" format="2">
	<advance width="833"/>
	<unicode hex="2192"/>
	<outline>
		<contour>
			<point x="448" y="58" type="curve"/>
			<point x="496" y="58" type="line"/>
			<point x="525" y="208"/>
			<point x="664" y="280"/>
			<point x="734" y="280" type="curve"/>
			<point x="743" y="326" type="line"/>
			<point x="673" y="326"/>
			<point x="562" y="398"/>
			<point x="591" y="548" type="curve"/>
			<point x="543" y="548" type="line"/>
			<point x="512" y="388"/>
			<point x="610" y="317"/>
			<point x="680" y="317" type="curve"/>
			<point x="674" y="289" type="line"/>
			<point x="604" y="289"/>
			<point x="479" y="218"/>
		</contour>
		<contour>
			<point x="71" y="280" type="line"/>
			<point x="702" y="280" type="line"/>
			<point x="711" y="326" type="line"/>
			<point x="80" y="326" type="line"/>
		</contour>
	</outline>
</glyph>
<glyph name="downArrow" format="2">
	<advance width="661"/>
	<unicode hex="2193"/>
	<outline>
		<contour>
			<point x="232" y="-34" type="curve"/>
			<point x="278" y="-34" type="line"/>
			<point x="292" y="36"/>
			<point x="388" y="161"/>
			<point x="538" y="161" type="curve"/>
			<point x="548" y="209" type="line"/>
			<point x="388" y="209"/>
			<point x="295" y="98"/>
			<point x="281" y="28" type="curve"/>
			<point x="253" y="28" type="line"/>
			<point x="267" y="98"/>
			<point x="218" y="209"/>
			<point x="58" y="209" type="curve"/>
			<point x="48" y="161" type="line"/>
			<point x="198" y="161"/>
			<point x="246" y="36"/>
		</contour>
		<contour>
			<point x="239" y="-2" type="line"/>
			<point x="285" y="-2" type="line"/>
			<point x="407" y="629" type="line"/>
			<point x="361" y="629" type="line"/>
		</contour>
	</outline>
</glyph>
<glyph name="leftRightArrow" format="2">
	<advance width="905"/>
	<unicode hex="2194"/>
	<outline>
		<contour>
			<point x="520" y="58" type="curve"/>
			<point x="568" y="58" type="line"/>
			<point x="597" y="208"/>
			<point x="736" y="280"/>
			<point x="806" y="280" type="curve"/>
			<point x="815" y="326" type="line"/>
			<point x="745" y="326"/>
			<point x="634" y="398"/>
			<point x="663" y="548" type="curve"/>
			<point x="615" y="548" type="line"/>
			<point x="584" y="388"/>
			<point x="682" y="317"/>
			<point x="752" y="317" type="curve"/>
			<point x="746" y="289" type="line"/>
			<point x="676" y="289"/>
			<point x="551" y="218"/>
		</contour>
		<contour>
			<point x="223" y="58" type="curve"/>
			<point x="271" y="58" type="line"/>
			<point x="302" y="218"/>
			<point x="205" y="289"/>
			<point x="135" y="289" type="curve"/>
			<point x="141" y="317" type="line"/>
			<point x="211" y="317"/>
			<point x="335" y="388"/>
			<point x="366" y="548" type="curve"/>
			<point x="318" y="548" type="line"/>
			<point x="289" y="398"/>
			<point x="150" y="326"/>
			<point x="80" y="326" type="curve"/>
			<point x="71" y="280" type="line"/>
			<point x="141" y="280"/>
			<point x="252" y="208"/>
		</contour>
		<contour>
			<point x="103" y="280" type="line"/>
			<point x="774" y="280" type="line"/>
			<point x="783" y="326" type="line"/>
			<point x="112" y="326" type="line"/>
		</contour>
	</outline>
</glyph>
<glyph name="upDownArrow" format="2">
	<advance width="661"/>
	<unicode hex="2195"/>
	<outline>
		<contour>
			<point x="101" y="431" type="line"/>
			<point x="261" y="431"/>
			<point x="353" y="542"/>
			<point x="367" y="612" type="curve"/>
			<point x="395" y="612" type="line"/>
			<point x="381" y="542"/>
			<point x="431" y="431"/>
			<point x="591" y="431" type="curve"/>
			<point x="600" y="479" type="line"/>
			<point x="450" y="479"/>
			<point x="402" y="604"/>
			<point x="416" y="674" type="curve"/>
			<point x="370" y="674" type="line"/>
			<point x="356" y="604"/>
			<point x="260" y="479"/>
			<point x="110" y="479" type="curve"/>
		</contour>
		<contour>
			<point x="227" y="-61" type="curve"/>
			<point x="273" y="-61" type="line"/>
			<point x="287" y="9"/>
			<point x="383" y="134"/>
			<point x="533" y="134" type="curve"/>
			<point x="542" y="182" type="line"/>
			<point x="382" y="182"/>
			<point x="290" y="71"/>
			<point x="276" y="1" type="curve"/>
			<point x="248" y="1" type="line"/>
			<point x="262" y="71"/>
			<point x="212" y="182"/>
			<point x="52" y="182" type="curve"/>
			<point x="43" y="134" type="line"/>
			<point x="193" y="134"/>
			<point x="241" y="9"/>
		</contour>
		<contour>
			<point x="233" y="-29" type="line"/>
			<point x="279" y="-29" type="line"/>
			<point x="410" y="642" type="line"/>
			<point x="364" y="642" type="line"/>
		</contour>
	</outline>
</glyph>
<glyph name="northWestArrow" format="2">
	<advance width="689"/>
	<unicode hex="2196"/>
	<outline>
		<contour>
			<point x="515" y="56" type="line"/>
			<point x="553" y="88" type="line"/>
			<point x="194" y="535" type="line"/>
			<point x="156" y="502" type="line"/>
		</contour>
		<contour>
			<point x="88" y="196" type="line"/>
			<point x="223" y="309"/>
			<point x="220" y="438"/>
			<point x="180" y="487" type="curve"/>
			<point x="204" y="507" type="line"/>
			<point x="243" y="457"/>
			<point x="366" y="429"/>
			<point x="501" y="542" type="curve"/>
			<point x="474" y="576" type="line"/>
			<point x="347" y="470"/>
			<point x="216" y="508"/>
			<point x="175" y="557" type="curve"/>
			<point x="137" y="525" type="line"/>
			<point x="176" y="475"/>
			<point x="187" y="336"/>
			<point x="61" y="230" type="curve"/>
		</contour>
	</outline>
</glyph>
<glyph name="northEastArrow" format="2">
	<advance width="691"/>
	<unicode hex="2197"/>
	<outline>
		<contour>
			<point x="60" y="56" type="line"/>
			<point x="593" y="502" type="line"/>
			<point x="567" y="535" type="line"/>
			<point x="34" y="88" type="line"/>
		</contour>
		<contour>
			<point x="541" y="196" type="curve"/>
			<point x="582" y="230" type="line"/>
			<point x="496" y="336"/>
			<point x="561" y="475"/>
			<point x="620" y="525" type="curve"/>
			<point x="594" y="557" type="line"/>
			<point x="535" y="508"/>
			<point x="388" y="470"/>
			<point x="303" y="576" type="curve"/>
			<point x="262" y="542" type="line"/>
			<point x="353" y="429"/>
			<point x="488" y="457"/>
			<point x="547" y="507" type="curve"/>
			<point x="563" y="487" type="line"/>
			<point x="503" y="438"/>
			<point x="450" y="309"/>
		</contour>
	</outline>
</glyph>
<glyph name="southEastArrow" format="2">
	<advance width="691"/>
	<unicode hex="2198"/>
	<outline>
		<contour>
			<point x="479" y="85" type="line"/>
			<point x="518" y="118" type="line"/>
			<point x="159" y="564" type="line"/>
			<point x="120" y="532" type="line"/>
		</contour>
		<contour>
			<point x="200" y="44" type="line"/>
			<point x="326" y="150"/>
			<point x="458" y="112"/>
			<point x="498" y="63" type="curve"/>
			<point x="536" y="95" type="line"/>
			<point x="497" y="145"/>
			<point x="486" y="284"/>
			<point x="613" y="390" type="curve"/>
			<point x="585" y="424" type="line"/>
			<point x="450" y="311"/>
			<point x="453" y="182"/>
			<point x="494" y="133" type="curve"/>
			<point x="470" y="113" type="line"/>
			<point x="431" y="163"/>
			<point x="307" y="191"/>
			<point x="172" y="78" type="curve"/>
		</contour>
	</outline>
</glyph>
<glyph name="southWestArrow" format="2">
	<advance width="689"/>
	<unicode hex="2199"/>
	<outline>
		<contour>
			<point x="106" y="85" type="line"/>
			<point x="639" y="532" type="line"/>
			<point x="614" y="564" type="line"/>
			<point x="81" y="118" type="line"/>
		</contour>
		<contour>
			<point x="371" y="44" type="curve"/>
			<point x="411" y="78" type="line"/>
			<point x="320" y="191"/>
			<point x="186" y="163"/>
			<point x="127" y="113" type="curve"/>
			<point x="111" y="133" type="line"/>
			<point x="170" y="182"/>
			<point x="223" y="311"/>
			<point x="132" y="424" type="curve"/>
			<point x="92" y="390" type="line"/>
			<point x="177" y="284"/>
			<point x="112" y="145"/>
			<point x="53" y="95" type="curve"/>
			<point x="79" y="63" type="line"/>
			<point x="139" y="112"/>
			<point x="285" y="150"/>
		</contour>
	</outline>
</glyph>
<glyph name="leftHookArrow" format="2">
	<advance width="1054"/>
	<unicode hex="21A9"/>
	<outline>
		<contour>
			<point x="103" y="280" type="line"/>
			<point x="744" y="280" type="line" smooth="yes"/>
			<point x="863" y="280"/>
			<point x="973" y="372"/>
			<point x="996" y="490" type="curve" smooth="yes"/>
			<point x="1019" y="608"/>
			<point x="945" y="700"/>
			<point x="826" y="700" type="curve" smooth="yes"/>
			<point x="666" y="700" type="line"/>
			<point x="657" y="654" type="line"/>
			<point x="817" y="654" type="line" smooth="yes"/>
			<point x="908" y="654"/>
			<point x="968" y="580"/>
			<point x="950" y="490" type="curve" smooth="yes"/>
			<point x="933" y="400"/>
			<point x="844" y="326"/>
			<point x="753" y="326" type="curve" smooth="yes"/>
			<point x="112" y="326" type="line"/>
		</contour>
		<contour>
			<point x="223" y="58" type="curve"/>
			<point x="271" y="58" type="line"/>
			<point x="302" y="218"/>
			<point x="205" y="289"/>
			<point x="135" y="289" type="curve"/>
			<point x="141" y="317" type="line"/>
			<point x="211" y="317"/>
			<point x="335" y="388"/>
			<point x="366" y="548" type="curve"/>
			<point x="318" y="548" type="line"/>
			<point x="289" y="398"/>
			<point x="150" y="326"/>
			<point x="80" y="326" type="curve"/>
			<point x="71" y="280" type="line"/>
			<point x="141" y="280"/>
			<point x="252" y="208"/>
		</contour>
	</outline>
</glyph>
<glyph name="rightHookArrow" format="2">
	<advance width="1054"/>
	<unicode hex="21AA"/>
	<outline>
		<contour>
			<point x="282" y="280" type="curve" smooth="yes"/>
			<point x="923" y="280" type="line"/>
			<point x="932" y="326" type="line"/>
			<point x="291" y="326" type="line" smooth="yes"/>
			<point x="200" y="326"/>
			<point x="141" y="400"/>
			<point x="158" y="490" type="curve" smooth="yes"/>
			<point x="176" y="580"/>
			<point x="264" y="654"/>
			<point x="355" y="654" type="curve" smooth="yes"/>
			<point x="515" y="654" type="line"/>
			<point x="524" y="700" type="line"/>
			<point x="364" y="700" type="line" smooth="yes"/>
			<point x="245" y="700"/>
			<point x="135" y="608"/>
			<point x="112" y="490" type="curve" smooth="yes"/>
			<point x="89" y="372"/>
			<point x="163" y="280"/>
		</contour>
		<contour>
			<point x="669" y="58" type="curve"/>
			<point x="717" y="58" type="line"/>
			<point x="746" y="208"/>
			<point x="885" y="280"/>
			<point x="955" y="280" type="curve"/>
			<point x="964" y="326" type="line"/>
			<point x="894" y="326"/>
			<point x="783" y="398"/>
			<point x="812" y="548" type="curve"/>
			<point x="764" y="548" type="line"/>
			<point x="733" y="388"/>
			<point x="831" y="317"/>
			<point x="901" y="317" type="curve"/>
			<point x="895" y="289" type="line"/>
			<point x="825" y="289"/>
			<point x="700" y="218"/>
		</contour>
	</outline>
</glyph>
<glyph name="upTipLeftArrow" format="2">
	<advance width="774"/>
	<unicode hex="21B0"/>
	<outline>
		<contour>
			<point x="223" y="58" type="curve"/>
			<point x="271" y="58" type="line"/>
			<point x="302" y="218"/>
			<point x="205" y="289"/>
			<point x="135" y="289" type="curve"/>
			<point x="141" y="317" type="line"/>
			<point x="211" y="317"/>
			<point x="335" y="388"/>
			<point x="366" y="548" type="curve"/>
			<point x="318" y="548" type="line"/>
			<point x="289" y="398"/>
			<point x="150" y="326"/>
			<point x="80" y="326" type="curve"/>
			<point x="71" y="280" type="line"/>
			<point x="141" y="280"/>
			<point x="252" y="208"/>
		</contour>
		<contour>
			<point x="103" y="280" type="line"/>
			<point x="674" y="280" type="line"/>
			<point x="683" y="326" type="line"/>
			<point x="112" y="326" type="line"/>
		</contour>
		<contour>
			<point x="558" y="-84" type="line"/>
			<point x="604" y="-84" type="line"/>
			<point x="683" y="326" type="line"/>
			<point x="637" y="326" type="line"/>
		</contour>
	</outline>
</glyph>
<glyph name="upTipRightArrow" format="2">
	<advance width="773"/>
	<unicode hex="21B1"/>
	<outline>
		<contour>
			<point x="388" y="58" type="curve"/>
			<point x="436" y="58" type="line"/>
			<point x="465" y="208"/>
			<point x="604" y="280"/>
			<point x="674" y="280" type="curve"/>
			<point x="683" y="326" type="line"/>
			<point x="613" y="326"/>
			<point x="502" y="398"/>
			<point x="531" y="548" type="curve"/>
			<point x="483" y="548" type="line"/>
			<point x="452" y="388"/>
			<point x="550" y="317"/>
			<point x="620" y="317" type="curve"/>
			<point x="614" y="289" type="line"/>
			<point x="544" y="289"/>
			<point x="419" y="218"/>
		</contour>
		<contour>
			<point x="1" y="-84" type="line"/>
			<point x="47" y="-84" type="line"/>
			<point x="126" y="326" type="line"/>
			<point x="80" y="326" type="line"/>
		</contour>
		<contour>
			<point x="71" y="280" type="line"/>
			<point x="642" y="280" type="line"/>
			<point x="651" y="326" type="line"/>
			<point x="80" y="326" type="line"/>
		</contour>
	</outline>
</glyph>
<glyph name="partialdiff" format="2">
	<advance width="684"/>
	<unicode hex="2202"/>
	<outline>
		<contour>
			<point x="270" y="-16" type="curve" smooth="yes"/>
			<point x="420" y="-16"/>
			<point x="527" y="109"/>
			<point x="556" y="256" type="curve" smooth="yes"/>
			<point x="606" y="517"/>
			<point x="512" y="709"/>
			<point x="353" y="716" type="curve"/>
			<point x="353" y="668" type="line"/>
			<point x="463" y="660"/>
			<point x="547" y="521"/>
			<point x="511" y="285" type="curve"/>
			<point x="526" y="289" type="line"/>
			<point x="517" y="386"/>
			<point x="466" y="465"/>
			<point x="363" y="465" type="curve" smooth="yes"/>
			<point x="234" y="465"/>
			<point x="111" y="353"/>
			<point x="86" y="224" type="curve" smooth="yes"/>
			<point x="61" y="96"/>
			<point x="141" y="-16"/>
		</contour>
		<contour>
			<point x="280" y="37" type="curve" smooth="yes"/>
			<point x="182" y="37"/>
			<point x="125" y="129"/>
			<point x="144" y="226" type="curve" smooth="yes"/>
			<point x="163" y="323"/>
			<point x="256" y="412"/>
			<point x="353" y="412" type="curve" smooth="yes"/>
			<point x="450" y="412"/>
			<point x="512" y="323"/>
			<point x="493" y="226" type="curve" smooth="yes"/>
			<point x="474" y="129"/>
			<point x="377" y="37"/>
		</contour>
	</outline>
</glyph>
<glyph name="emptyset" format="2">
	<advance width="932"/>
	<unicode hex="2205"/>
	<outline>
		<contour>
			<point x="159" y="14" type="line"/>
			<point x="803" y="654" type="line"/>
			<point x="773" y="686" type="line"/>
			<point x="129" y="46" type="line"/>
		</contour>
		<contour>
			<point x="434" y="-16" type="curve" smooth="yes"/>
			<point x="636" y="-16"/>
			<point x="814" y="148"/>
			<point x="832" y="350" type="curve" smooth="yes"/>
			<point x="850" y="552"/>
			<point x="700" y="716"/>
			<point x="498" y="716" type="curve" smooth="yes"/>
			<point x="296" y="716"/>
			<point x="118" y="552"/>
			<point x="100" y="350" type="curve" smooth="yes"/>
			<point x="82" y="148"/>
			<point x="232" y="-16"/>
		</contour>
		<contour>
			<point x="439" y="42" type="curve" smooth="yes"/>
			<point x="269" y="42"/>
			<point x="143" y="180"/>
			<point x="158" y="350" type="curve" smooth="yes"/>
			<point x="173" y="520"/>
			<point x="323" y="658"/>
			<point x="493" y="658" type="curve" smooth="yes"/>
			<point x="661" y="658"/>
			<point x="789" y="520"/>
			<point x="774" y="350" type="curve" smooth="yes"/>
			<point x="759" y="180"/>
			<point x="607" y="42"/>
		</contour>
	</outline>
</glyph>
<glyph name="increment" format="2">
	<advance width="778"/>
	<unicode hex="2206"/>
	<outline>
		<contour>
			<point x="46" y="0" type="line"/>
			<point x="596" y="0" type="line"/>
			<point x="496" y="700" type="line"/>
			<point x="428" y="700" type="line"/>
		</contour>
		<contour>
			<point x="128" y="42" type="line"/>
			<point x="468" y="664" type="line"/>
			<point x="446" y="664" type="line"/>
			<point x="535" y="42" type="line"/>
			<point x="543" y="53" type="line"/>
			<point x="119" y="53" type="line"/>
		</contour>
	</outline>
</glyph>
<glyph name="product" format="2">
	<advance width="696"/>
	<unicode hex="220F"/>
	<outline>
		<contour>
			<point x="423" y="-216" type="line"/>
			<point x="481" y="-216" type="line"/>
			<point x="659" y="700" type="line"/>
			<point x="601" y="700" type="line"/>
		</contour>
		<contour>
			<point x="-5" y="-216" type="line"/>
			<point x="53" y="-216" type="line"/>
			<point x="231" y="700" type="line"/>
			<point x="173" y="700" type="line"/>
		</contour>
		<contour>
			<point x="163" y="647" type="line"/>
			<point x="649" y="647" type="line"/>
			<point x="659" y="700" type="line"/>
			<point x="173" y="700" type="line"/>
		</contour>
	</outline>
</glyph>
<glyph name="summation" format="2">
	<advance width="672"/>
	<unicode hex="2211"/>
	<outline>
		<contour>
			<point x="-5" y="-216" type="line"/>
			<point x="457" y="-216" type="line"/>
			<point x="467" y="-163" type="line"/>
			<point x="52" y="-163" type="line"/>
			<point x="60" y="-171" type="line"/>
			<point x="422" y="242" type="line"/>
			<point x="215" y="655" type="line"/>
			<point x="210" y="647" type="line"/>
			<point x="625" y="647" type="line"/>
			<point x="635" y="700" type="line"/>
			<point x="173" y="700" type="line"/>
			<point x="161" y="640" type="line"/>
			<point x="358" y="237" type="line"/>
			<point x="360" y="247" type="line"/>
			<point x="7" y="-156" type="line"/>
		</contour>
	</outline>
</glyph>
<glyph name="minus" format="2">
	<advance width="589"/>
	<unicode hex="2212"/>
	<outline>
		<contour>
			<point x="69" y="269" type="line"/>
			<point x="488" y="269" type="line"/>
			<point x="499" y="322" type="line"/>
			<point x="80" y="322" type="line"/>
		</contour>
	</outline>
</glyph>
<glyph name="radical" format="2">
	<advance width="638"/>
	<unicode hex="221A"/>
	<outline>
		<contour>
			<point x="159" y="-216" type="line"/>
			<point x="240" y="-216" type="line"/>
			<point x="646" y="700" type="line"/>
			<point x="589" y="700" type="line"/>
			<point x="209" y="-157" type="line"/>
			<point x="210" y="-157" type="line"/>
			<point x="183" y="288" type="line"/>
			<point x="43" y="288" type="line"/>
			<point x="34" y="240" type="line"/>
			<point x="138" y="240" type="line"/>
			<point x="128" y="248" type="line"/>
		</contour>
	</outline>
</glyph>
<glyph name="infinity" format="2">
	<advance width="919"/>
	<unicode hex="221E"/>
	<outline>
		<contour>
			<point x="611" y="55" type="curve" smooth="yes"/>
			<point x="711" y="55"/>
			<point x="804" y="135"/>
			<point x="815" y="261" type="curve" smooth="yes"/>
			<point x="826" y="385"/>
			<point x="747" y="467"/>
			<point x="647" y="467" type="curve" smooth="yes"/>
			<point x="417" y="467"/>
			<point x="432" y="108"/>
			<point x="242" y="108" type="curve" smooth="yes"/>
			<point x="152" y="108"/>
			<point x="121" y="191"/>
			<point x="127" y="261" type="curve" smooth="yes"/>
			<point x="133" y="331"/>
			<point x="179" y="414"/>
			<point x="269" y="414" type="curve" smooth="yes"/>
			<point x="459" y="414"/>
			<point x="381" y="55"/>
		</contour>
		<contour>
			<point x="237" y="55" type="curve" smooth="yes"/>
			<point x="467" y="55"/>
			<point x="453" y="414"/>
			<point x="643" y="414" type="curve" smooth="yes"/>
			<point x="723" y="414"/>
			<point x="763" y="331"/>
			<point x="757" y="261" type="curve" smooth="yes"/>
			<point x="751" y="191"/>
			<point x="696" y="108"/>
			<point x="616" y="108" type="curve" smooth="yes"/>
			<point x="426" y="108"/>
			<point x="503" y="467"/>
			<point x="273" y="467" type="curve" smooth="yes"/>
			<point x="173" y="467"/>
			<point x="80" y="385"/>
			<point x="69" y="261" type="curve" smooth="yes"/>
			<point x="58" y="135"/>
			<point x="137" y="55"/>
		</contour>
	</outline>
</glyph>
<glyph name="integral" format="2">
	<advance width="598"/>
	<unicode hex="222B"/>
	<outline>
		<contour>
			<point x="2" y="-206" type="line"/>
			<point x="61" y="-206" type="line" smooth="yes"/>
			<point x="143" y="-206"/>
			<point x="184" y="-174"/>
			<point x="218" y="-61" type="curve" smooth="yes"/>
			<point x="394" y="536" type="line" smooth="yes"/>
			<point x="423" y="634"/>
			<point x="440" y="647"/>
			<point x="499" y="647" type="curve" smooth="yes"/>
			<point x="546" y="647" type="line"/>
			<point x="556" y="700" type="line"/>
			<point x="497" y="700" type="line" smooth="yes"/>
			<point x="415" y="700"/>
			<point x="374" y="668"/>
			<point x="340" y="555" type="curve" smooth="yes"/>
			<point x="164" y="-42" type="line" smooth="yes"/>
			<point x="135" y="-140"/>
			<point x="118" y="-153"/>
			<point x="59" y="-153" type="curve" smooth="yes"/>
			<point x="12" y="-153" type="line"/>
		</contour>
	</outline>
</glyph>
<glyph name="approxequal" format="2">
	<advance width="589"/>
	<unicode hex="2248"/>
	<outline>
		<contour>
			<point x="89" y="371" type="line"/>
			<point x="111" y="384"/>
			<point x="147" y="399"/>
			<point x="205" y="399" type="curve" smooth="yes"/>
			<point x="290" y="399"/>
			<point x="317" y="339"/>
			<point x="392" y="339" type="curve" smooth="yes"/>
			<point x="461" y="339"/>
			<point x="494" y="362"/>
			<point x="508" y="373" type="curve"/>
			<point x="518" y="420" type="line"/>
			<point x="496" y="407"/>
			<point x="460" y="392"/>
			<point x="402" y="392" type="curve" smooth="yes"/>
			<point x="317" y="392"/>
			<point x="290" y="452"/>
			<point x="215" y="452" type="curve" smooth="yes"/>
			<point x="146" y="452"/>
			<point x="112" y="429"/>
			<point x="98" y="418" type="curve"/>
		</contour>
		<contour>
			<point x="48" y="158" type="line"/>
			<point x="69" y="171"/>
			<point x="105" y="186"/>
			<point x="163" y="186" type="curve" smooth="yes"/>
			<point x="248" y="186"/>
			<point x="275" y="126"/>
			<point x="350" y="126" type="curve" smooth="yes"/>
			<point x="419" y="126"/>
			<point x="453" y="149"/>
			<point x="467" y="160" type="curve"/>
			<point x="476" y="207" type="line"/>
			<point x="455" y="194"/>
			<point x="419" y="179"/>
			<point x="361" y="179" type="curve" smooth="yes"/>
			<point x="276" y="179"/>
			<point x="248" y="239"/>
			<point x="173" y="239" type="curve" smooth="yes"/>
			<point x="104" y="239"/>
			<point x="71" y="216"/>
			<point x="57" y="205" type="curve"/>
		</contour>
	</outline>
</glyph>
<glyph name="notequal" format="2">
	<advance width="589"/>
	<unicode hex="2260"/>
	<outline>
		<contour>
			<point x="106" y="32" type="line"/>
			<point x="154" y="32" type="line"/>
			<point x="463" y="569" type="line"/>
			<point x="416" y="569" type="line"/>
		</contour>
		<contour>
			<point x="47" y="153" type="line"/>
			<point x="466" y="153" type="line"/>
			<point x="476" y="206" type="line"/>
			<point x="57" y="206" type="line"/>
		</contour>
		<contour>
			<point x="92" y="386" type="line"/>
			<point x="511" y="386" type="line"/>
			<point x="521" y="439" type="line"/>
			<point x="102" y="439" type="line"/>
		</contour>
	</outline>
</glyph>
<glyph name="lessequal" format="2">
	<advance width="590"/>
	<unicode hex="2264"/>
	<outline>
		<contour>
			<point x="471" y="181" type="line"/>
			<point x="483" y="238" type="line"/>
			<point x="156" y="375" type="line"/>
			<point x="155" y="373" type="line"/>
			<point x="536" y="509" type="line"/>
			<point x="548" y="574" type="line"/>
			<point x="97" y="412" type="line"/>
			<point x="84" y="343" type="line"/>
		</contour>
		<contour>
			<point x="436" y="-1" type="line"/>
			<point x="446" y="52" type="line"/>
			<point x="27" y="52" type="line"/>
			<point x="17" y="-1" type="line"/>
		</contour>
	</outline>
</glyph>
<glyph name="greaterequal" format="2">
	<advance width="589"/>
	<unicode hex="2265"/>
	<outline>
		<contour>
			<point x="52" y="181" type="line"/>
			<point x="503" y="343" type="line"/>
			<point x="516" y="412" type="line"/>
			<point x="129" y="574" type="line"/>
			<point x="117" y="516" type="line"/>
			<point x="444" y="380" type="line"/>
			<point x="445" y="382" type="line"/>
			<point x="64" y="245" type="line"/>
		</contour>
		<contour>
			<point x="17" y="-1" type="line"/>
			<point x="436" y="-1" type="line"/>
			<point x="446" y="52" type="line"/>
			<point x="27" y="52" type="line"/>
		</contour>
	</outline>
</glyph>
<glyph name="one.circled" format="2">
	<advance width="905"/>
	<unicode hex="2460"/>
	<outline>
		<contour>
			<point x="412" y="204" type="line"/>
			<point x="455" y="204" type="line"/>
			<point x="517" y="520" type="line"/>
			<point x="474" y="520" type="line"/>
			<point x="464" y="455"/>
			<point x="430" y="430"/>
			<point x="395" y="430" type="curve" smooth="yes"/>
			<point x="365" y="430" type="line"/>
			<point x="358" y="391" type="line"/>
			<point x="391" y="391" type="line" smooth="yes"/>
			<point x="424" y="391"/>
			<point x="462" y="408"/>
			<point x="475" y="497" type="curve"/>
			<point x="464" y="470" type="line"/>
		</contour>
		<contour>
			<point x="319" y="190" type="line"/>
			<point x="544" y="190" type="line"/>
			<point x="551" y="230" type="line"/>
			<point x="326" y="230" type="line"/>
		</contour>
		<component base="whiteCircle"/>
	</outline>
</glyph>
<glyph name="two.circled" format="2">
	<advance width="905"/>
	<unicode hex="2461"/>
	<outline>
		<contour>
			<point x="311" y="189" type="line"/>
			<point x="534" y="189" type="line"/>
			<point x="542" y="229" type="line"/>
			<point x="351" y="229" type="line"/>
			<point x="358" y="213" type="line"/>
			<point x="444" y="249"/>
			<point x="553" y="322"/>
			<point x="571" y="415" type="curve" smooth="yes"/>
			<point x="583" y="478"/>
			<point x="543" y="527"/>
			<point x="480" y="527" type="curve" smooth="yes"/>
			<point x="404" y="527"/>
			<point x="363" y="476"/>
			<point x="356" y="419" type="curve"/>
			<point x="397" y="414" type="line"/>
			<point x="404" y="461"/>
			<point x="431" y="487"/>
			<point x="480" y="487" type="curve" smooth="yes"/>
			<point x="521" y="487"/>
			<point x="538" y="459"/>
			<point x="530" y="419" type="curve" smooth="yes"/>
			<point x="514" y="340"/>
			<point x="416" y="273"/>
			<point x="318" y="226" type="curve"/>
		</contour>
		<component base="whiteCircle"/>
	</outline>
</glyph>
<glyph name="three.circled" format="2">
	<advance width="905"/>
	<unicode hex="2462"/>
	<outline>
		<contour>
			<point x="418" y="182" type="curve" smooth="yes"/>
			<point x="494" y="182"/>
			<point x="541" y="224"/>
			<point x="552" y="276" type="curve" smooth="yes"/>
			<point x="562" y="325"/>
			<point x="523" y="370"/>
			<point x="451" y="370" type="curve"/>
			<point x="487" y="352" type="line"/>
			<point x="518" y="350"/>
			<point x="563" y="388"/>
			<point x="572" y="434" type="curve" smooth="yes"/>
			<point x="581" y="483"/>
			<point x="541" y="528"/>
			<point x="482" y="528" type="curve" smooth="yes"/>
			<point x="404" y="528"/>
			<point x="365" y="470"/>
			<point x="360" y="439" type="curve"/>
			<point x="401" y="434" type="line"/>
			<point x="408" y="467"/>
			<point x="437" y="488"/>
			<point x="478" y="488" type="curve" smooth="yes"/>
			<point x="515" y="488"/>
			<point x="535" y="466"/>
			<point x="529" y="436" type="curve" smooth="yes"/>
			<point x="524" y="404"/>
			<point x="493" y="381"/>
			<point x="449" y="381" type="curve" smooth="yes"/>
			<point x="415" y="381" type="line"/>
			<point x="408" y="342" type="line"/>
			<point x="445" y="342" type="line" smooth="yes"/>
			<point x="485" y="342"/>
			<point x="519" y="322"/>
			<point x="510" y="280" type="curve" smooth="yes"/>
			<point x="503" y="244"/>
			<point x="466" y="223"/>
			<point x="423" y="223" type="curve" smooth="yes"/>
			<point x="382" y="223"/>
			<point x="351" y="242"/>
			<point x="362" y="292" type="curve"/>
			<point x="319" y="287" type="line"/>
			<point x="305" y="236"/>
			<point x="344" y="182"/>
		</contour>
		<component base="whiteCircle"/>
	</outline>
</glyph>
<glyph name="four.circled" format="2">
	<advance width="905"/>
	<unicode hex="2463"/>
	<outline>
		<contour>
			<point x="282" y="281" type="line"/>
			<point x="571" y="281" type="line"/>
			<point x="579" y="321" type="line"/>
			<point x="314" y="321" type="line"/>
			<point x="317" y="298" type="line"/>
			<point x="434" y="368"/>
			<point x="445" y="441"/>
			<point x="461" y="521" type="curve"/>
			<point x="418" y="521" type="line"/>
			<point x="403" y="441"/>
			<point x="385" y="374"/>
			<point x="290" y="318" type="curve"/>
		</contour>
		<component base="whiteCircle"/>
		<contour>
			<point x="456" y="190" type="line"/>
			<point x="499" y="190" type="line"/>
			<point x="564" y="521" type="line"/>
			<point x="520" y="521" type="line"/>
		</contour>
	</outline>
</glyph>
<glyph name="five.circled" format="2">
	<advance width="905"/>
	<unicode hex="2464"/>
	<outline>
		<contour>
			<point x="423" y="183" type="curve" smooth="yes"/>
			<point x="490" y="183"/>
			<point x="540" y="228"/>
			<point x="554" y="299" type="curve" smooth="yes"/>
			<point x="566" y="368"/>
			<point x="531" y="417"/>
			<point x="461" y="417" type="curve" smooth="yes"/>
			<point x="415" y="417"/>
			<point x="382" y="391"/>
			<point x="371" y="354" type="curve"/>
			<point x="388" y="363" type="line"/>
			<point x="419" y="481" type="line"/>
			<point x="566" y="481" type="line"/>
			<point x="572" y="521" type="line"/>
			<point x="389" y="521" type="line"/>
			<point x="338" y="335" type="line"/>
			<point x="381" y="335" type="line"/>
			<point x="388" y="346"/>
			<point x="416" y="379"/>
			<point x="461" y="379" type="curve" smooth="yes"/>
			<point x="501" y="379"/>
			<point x="520" y="342"/>
			<point x="512" y="303" type="curve" smooth="yes"/>
			<point x="502" y="254"/>
			<point x="473" y="222"/>
			<point x="423" y="222" type="curve" smooth="yes"/>
			<point x="362" y="222"/>
			<point x="363" y="269"/>
			<point x="369" y="292" type="curve"/>
			<point x="325" y="287" type="line"/>
			<point x="312" y="242"/>
			<point x="343" y="183"/>
		</contour>
		<component base="whiteCircle"/>
	</outline>
</glyph>
<glyph name="six.circled" format="2">
	<advance width="905"/>
	<unicode hex="2465"/>
	<outline>
		<contour>
			<point x="422" y="182" type="curve" smooth="yes"/>
			<point x="479" y="182"/>
			<point x="535" y="220"/>
			<point x="550" y="295" type="curve" smooth="yes"/>
			<point x="563" y="362"/>
			<point x="522" y="410"/>
			<point x="454" y="410" type="curve" smooth="yes"/>
			<point x="399" y="410"/>
			<point x="361" y="369"/>
			<point x="348" y="311" type="curve"/>
			<point x="357" y="292" type="line"/>
			<point x="371" y="424"/>
			<point x="427" y="488"/>
			<point x="481" y="488" type="curve" smooth="yes"/>
			<point x="528" y="488"/>
			<point x="531" y="449"/>
			<point x="537" y="427" type="curve"/>
			<point x="580" y="432" type="line"/>
			<point x="577" y="471"/>
			<point x="554" y="528"/>
			<point x="481" y="528" type="curve" smooth="yes"/>
			<point x="414" y="528"/>
			<point x="349" y="468"/>
			<point x="328" y="357" type="curve" smooth="yes"/>
			<point x="311" y="268"/>
			<point x="332" y="182"/>
		</contour>
		<contour>
			<point x="422" y="222" type="curve" smooth="yes"/>
			<point x="380" y="222"/>
			<point x="358" y="252"/>
			<point x="367" y="296" type="curve" smooth="yes"/>
			<point x="374" y="338"/>
			<point x="412" y="370"/>
			<point x="454" y="370" type="curve" smooth="yes"/>
			<point x="495" y="370"/>
			<point x="516" y="340"/>
			<point x="508" y="298" type="curve" smooth="yes"/>
			<point x="500" y="256"/>
			<point x="466" y="222"/>
		</contour>
		<component base="whiteCircle"/>
	</outline>
</glyph>
<glyph name="seven.circled" format="2">
	<advance width="905"/>
	<unicode hex="2466"/>
	<outline>
		<contour>
			<point x="370" y="190" type="curve"/>
			<point x="413" y="190" type="line"/>
			<point x="437" y="320"/>
			<point x="465" y="418"/>
			<point x="582" y="484" type="curve"/>
			<point x="590" y="521" type="line"/>
			<point x="366" y="521" type="line"/>
			<point x="358" y="481" type="line"/>
			<point x="562" y="481" type="line"/>
			<point x="582" y="517" type="line"/>
			<point x="438" y="451"/>
			<point x="394" y="320"/>
		</contour>
		<component base="whiteCircle"/>
	</outline>
</glyph>
<glyph name="eight.circled" format="2">
	<advance width="905"/>
	<unicode hex="2467"/>
	<outline>
		<contour>
			<point x="423" y="182" type="curve" smooth="yes"/>
			<point x="485" y="182"/>
			<point x="544" y="219"/>
			<point x="557" y="280" type="curve" smooth="yes"/>
			<point x="566" y="329"/>
			<point x="530" y="370"/>
			<point x="484" y="370" type="curve"/>
			<point x="484" y="354" type="line"/>
			<point x="515" y="346"/>
			<point x="566" y="386"/>
			<point x="574" y="434" type="curve" smooth="yes"/>
			<point x="583" y="477"/>
			<point x="551" y="528"/>
			<point x="478" y="528" type="curve" smooth="yes"/>
			<point x="411" y="528"/>
			<point x="368" y="484"/>
			<point x="358" y="437" type="curve" smooth="yes"/>
			<point x="350" y="397"/>
			<point x="378" y="353"/>
			<point x="419" y="353" type="curve"/>
			<point x="419" y="369" type="line"/>
			<point x="385" y="375"/>
			<point x="329" y="345"/>
			<point x="317" y="284" type="curve" smooth="yes"/>
			<point x="306" y="230"/>
			<point x="352" y="182"/>
		</contour>
		<contour>
			<point x="423" y="222" type="curve" smooth="yes"/>
			<point x="377" y="222"/>
			<point x="352" y="249"/>
			<point x="359" y="280" type="curve" smooth="yes"/>
			<point x="365" y="318"/>
			<point x="399" y="342"/>
			<point x="450" y="342" type="curve" smooth="yes"/>
			<point x="496" y="342"/>
			<point x="522" y="323"/>
			<point x="515" y="284" type="curve" smooth="yes"/>
			<point x="507" y="247"/>
			<point x="471" y="222"/>
		</contour>
		<component base="whiteCircle"/>
		<contour>
			<point x="454" y="381" type="curve" smooth="yes"/>
			<point x="409" y="381"/>
			<point x="394" y="405"/>
			<point x="400" y="434" type="curve" smooth="yes"/>
			<point x="405" y="462"/>
			<point x="432" y="488"/>
			<point x="478" y="488" type="curve" smooth="yes"/>
			<point x="523" y="488"/>
			<point x="538" y="465"/>
			<point x="532" y="436" type="curve" smooth="yes"/>
			<point x="527" y="407"/>
			<point x="501" y="381"/>
		</contour>
	</outline>
</glyph>
<glyph name="nine.circled" format="2">
	<advance width="905"/>
	<unicode hex="2468"/>
	<outline>
		<contour>
			<point x="422" y="181" type="curve" smooth="yes"/>
			<point x="489" y="181"/>
			<point x="554" y="241"/>
			<point x="575" y="352" type="curve" smooth="yes"/>
			<point x="592" y="441"/>
			<point x="571" y="527"/>
			<point x="481" y="527" type="curve" smooth="yes"/>
			<point x="424" y="527"/>
			<point x="368" y="489"/>
			<point x="353" y="414" type="curve" smooth="yes"/>
			<point x="340" y="347"/>
			<point x="381" y="299"/>
			<point x="449" y="299" type="curve" smooth="yes"/>
			<point x="504" y="299"/>
			<point x="542" y="340"/>
			<point x="555" y="398" type="curve"/>
			<point x="546" y="417" type="line"/>
			<point x="532" y="285"/>
			<point x="476" y="221"/>
			<point x="422" y="221" type="curve" smooth="yes"/>
			<point x="375" y="221"/>
			<point x="372" y="260"/>
			<point x="366" y="282" type="curve"/>
			<point x="323" y="277" type="line"/>
			<point x="326" y="238"/>
			<point x="349" y="181"/>
		</contour>
		<component base="whiteCircle"/>
		<contour>
			<point x="449" y="339" type="curve" smooth="yes"/>
			<point x="408" y="339"/>
			<point x="387" y="369"/>
			<point x="395" y="411" type="curve" smooth="yes"/>
			<point x="403" y="453"/>
			<point x="437" y="487"/>
			<point x="481" y="487" type="curve" smooth="yes"/>
			<point x="523" y="487"/>
			<point x="545" y="457"/>
			<point x="536" y="413" type="curve" smooth="yes"/>
			<point x="529" y="371"/>
			<point x="491" y="339"/>
		</contour>
	</outline>
</glyph>
<glyph name="zero.circled" format="2">
	<advance width="905"/>
	<unicode hex="24EA"/>
	<outline>
		<contour>
			<point x="419" y="182" type="curve" smooth="yes"/>
			<point x="500" y="182"/>
			<point x="557" y="249"/>
			<point x="577" y="353" type="curve" smooth="yes"/>
			<point x="598" y="456"/>
			<point x="565" y="528"/>
			<point x="483" y="528" type="curve" smooth="yes"/>
			<point x="402" y="528"/>
			<point x="345" y="461"/>
			<point x="325" y="357" type="curve" smooth="yes"/>
			<point x="304" y="254"/>
			<point x="337" y="182"/>
		</contour>
		<component base="whiteCircle"/>
		<contour>
			<point x="419" y="222" type="curve" smooth="yes"/>
			<point x="363" y="222"/>
			<point x="352" y="279"/>
			<point x="367" y="353" type="curve" smooth="yes"/>
			<point x="381" y="427"/>
			<point x="419" y="488"/>
			<point x="483" y="488" type="curve" smooth="yes"/>
			<point x="539" y="488"/>
			<point x="550" y="431"/>
			<point x="535" y="357" type="curve" smooth="yes"/>
			<point x="521" y="283"/>
			<point x="483" y="222"/>
		</contour>
	</outline>
</glyph>
<glyph name="zero.blackCircled" format="2">
	<advance width="905"/>
	<unicode hex="24FF"/>
	<outline>
		<contour>
			<point x="421" y="-16" type="curve" smooth="yes"/>
			<point x="621" y="-16"/>
			<point x="818" y="130"/>
			<point x="818" y="390" type="curve" smooth="yes"/>
			<point x="818" y="560"/>
			<point x="695" y="716"/>
			<point x="485" y="716" type="curve" smooth="yes"/>
			<point x="285" y="716"/>
			<point x="86" y="570"/>
			<point x="86" y="310" type="curve" smooth="yes"/>
			<point x="86" y="140"/>
			<point x="211" y="-16"/>
		</contour>
		<contour>
			<point x="419" y="182" type="curve" smooth="yes"/>
			<point x="337" y="182"/>
			<point x="304" y="254"/>
			<point x="325" y="357" type="curve" smooth="yes"/>
			<point x="345" y="461"/>
			<point x="402" y="528"/>
			<point x="483" y="528" type="curve" smooth="yes"/>
			<point x="565" y="528"/>
			<point x="598" y="456"/>
			<point x="577" y="353" type="curve" smooth="yes"/>
			<point x="557" y="249"/>
			<point x="500" y="182"/>
		</contour>
		<contour>
			<point x="419" y="222" type="curve" smooth="yes"/>
			<point x="483" y="222"/>
			<point x="521" y="283"/>
			<point x="535" y="357" type="curve" smooth="yes"/>
			<point x="550" y="431"/>
			<point x="539" y="488"/>
			<point x="483" y="488" type="curve" smooth="yes"/>
			<point x="419" y="488"/>
			<point x="381" y="427"/>
			<point x="367" y="353" type="curve" smooth="yes"/>
			<point x="352" y="279"/>
			<point x="363" y="222"/>
		</contour>
	</outline>
</glyph>
<glyph name="lozenge" format="2">
	<advance width="568"/>
	<unicode hex="25CA"/>
	<outline>
		<contour>
			<point x="174" y="0" type="line"/>
			<point x="246" y="0" type="line"/>
			<point x="482" y="350" type="line"/>
			<point x="382" y="700" type="line"/>
			<point x="310" y="700" type="line"/>
			<point x="84" y="350" type="line"/>
		</contour>
		<contour>
			<point x="219" y="24" type="line"/>
			<point x="131" y="365" type="line"/>
			<point x="127" y="332" type="line"/>
			<point x="348" y="676" type="line"/>
			<point x="338" y="675" type="line"/>
			<point x="439" y="324" type="line"/>
			<point x="444" y="374" type="line"/>
			<point x="209" y="25" type="line"/>
		</contour>
	</outline>
</glyph>
<glyph name="whiteCircle" format="2">
	<advance width="905"/>
	<unicode hex="25CB"/>
	<outline>
		<contour>
			<point x="421" y="-16" type="curve" smooth="yes"/>
			<point x="621" y="-16"/>
			<point x="818" y="130"/>
			<point x="818" y="390" type="curve" smooth="yes"/>
			<point x="818" y="560"/>
			<point x="695" y="716"/>
			<point x="485" y="716" type="curve" smooth="yes"/>
			<point x="285" y="716"/>
			<point x="86" y="570"/>
			<point x="86" y="310" type="curve" smooth="yes"/>
			<point x="86" y="140"/>
			<point x="211" y="-16"/>
		</contour>
		<contour>
			<point x="421" y="23" type="curve"/>
			<point x="231" y="23"/>
			<point x="125" y="169"/>
			<point x="125" y="309" type="curve" smooth="yes"/>
			<point x="125" y="549"/>
			<point x="305" y="677"/>
			<point x="485" y="677" type="curve"/>
			<point x="685" y="677"/>
			<point x="779" y="531"/>
			<point x="779" y="391" type="curve" smooth="yes"/>
			<point x="779" y="151"/>
			<point x="611" y="23"/>
		</contour>
	</outline>
</glyph>
<glyph name="blackCircle" format="2">
	<advance width="905"/>
	<unicode hex="25CF"/>
	<outline>
		<contour>
			<point x="421" y="-16" type="curve" smooth="yes"/>
			<point x="621" y="-16"/>
			<point x="818" y="130"/>
			<point x="818" y="390" type="curve" smooth="yes"/>
			<point x="818" y="560"/>
			<point x="695" y="716"/>
			<point x="485" y="716" type="curve" smooth="yes"/>
			<point x="285" y="716"/>
			<point x="86" y="570"/>
			<point x="86" y="310" type="curve" smooth="yes"/>
			<point x="86" y="140"/>
			<point x="211" y="-16"/>
		</contour>
	</outline>
</glyph>
<glyph name="one.blackCircled" format="2">
	<advance width="905"/>
	<unicode hex="2776"/>
	<outline>
		<contour>
			<point x="421" y="-16" type="curve" smooth="yes"/>
			<point x="621" y="-16"/>
			<point x="818" y="130"/>
			<point x="818" y="390" type="curve" smooth="yes"/>
			<point x="818" y="560"/>
			<point x="695" y="716"/>
			<point x="485" y="716" type="curve" smooth="yes"/>
			<point x="285" y="716"/>
			<point x="86" y="570"/>
			<point x="86" y="310" type="curve" smooth="yes"/>
			<point x="86" y="140"/>
			<point x="211" y="-16"/>
		</contour>
		<contour>
			<point x="319" y="190" type="line"/>
			<point x="326" y="230" type="line"/>
			<point x="417" y="230" type="line"/>
			<point x="457" y="434" type="line"/>
			<point x="439" y="399"/>
			<point x="414" y="391"/>
			<point x="391" y="391" type="curve" smooth="yes"/>
			<point x="358" y="391" type="line"/>
			<point x="365" y="430" type="line"/>
			<point x="395" y="430" type="line" smooth="yes"/>
			<point x="430" y="430"/>
			<point x="464" y="455"/>
			<point x="474" y="520" type="curve"/>
			<point x="517" y="520" type="line"/>
			<point x="460" y="230" type="line"/>
			<point x="551" y="230" type="line"/>
			<point x="544" y="190" type="line"/>
		</contour>
	</outline>
</glyph>
<glyph name="two.blackCircled" format="2">
	<advance width="905"/>
	<unicode hex="2777"/>
	<outline>
		<contour>
			<point x="421" y="-16" type="curve" smooth="yes"/>
			<point x="621" y="-16"/>
			<point x="818" y="130"/>
			<point x="818" y="390" type="curve" smooth="yes"/>
			<point x="818" y="560"/>
			<point x="695" y="716"/>
			<point x="485" y="716" type="curve" smooth="yes"/>
			<point x="285" y="716"/>
			<point x="86" y="570"/>
			<point x="86" y="310" type="curve" smooth="yes"/>
			<point x="86" y="140"/>
			<point x="211" y="-16"/>
		</contour>
		<contour>
			<point x="311" y="189" type="line"/>
			<point x="318" y="226" type="line"/>
			<point x="416" y="273"/>
			<point x="514" y="340"/>
			<point x="530" y="419" type="curve" smooth="yes"/>
			<point x="538" y="459"/>
			<point x="521" y="487"/>
			<point x="480" y="487" type="curve" smooth="yes"/>
			<point x="431" y="487"/>
			<point x="404" y="461"/>
			<point x="397" y="414" type="curve"/>
			<point x="356" y="419" type="line"/>
			<point x="363" y="476"/>
			<point x="404" y="527"/>
			<point x="480" y="527" type="curve" smooth="yes"/>
			<point x="543" y="527"/>
			<point x="583" y="478"/>
			<point x="571" y="415" type="curve" smooth="yes"/>
			<point x="553" y="322"/>
			<point x="444" y="249"/>
			<point x="358" y="213" type="curve"/>
			<point x="351" y="229" type="line"/>
			<point x="542" y="229" type="line"/>
			<point x="534" y="189" type="line"/>
		</contour>
	</outline>
</glyph>
<glyph name="three.blackCircled" format="2">
	<advance width="905"/>
	<unicode hex="2778"/>
	<outline>
		<contour>
			<point x="421" y="-16" type="curve" smooth="yes"/>
			<point x="621" y="-16"/>
			<point x="818" y="130"/>
			<point x="818" y="390" type="curve" smooth="yes"/>
			<point x="818" y="560"/>
			<point x="695" y="716"/>
			<point x="485" y="716" type="curve" smooth="yes"/>
			<point x="285" y="716"/>
			<point x="86" y="570"/>
			<point x="86" y="310" type="curve" smooth="yes"/>
			<point x="86" y="140"/>
			<point x="211" y="-16"/>
		</contour>
		<contour>
			<point x="418" y="182" type="curve" smooth="yes"/>
			<point x="344" y="182"/>
			<point x="305" y="236"/>
			<point x="319" y="287" type="curve"/>
			<point x="362" y="292" type="line"/>
			<point x="351" y="242"/>
			<point x="382" y="223"/>
			<point x="423" y="223" type="curve" smooth="yes"/>
			<point x="466" y="223"/>
			<point x="503" y="244"/>
			<point x="510" y="280" type="curve" smooth="yes"/>
			<point x="519" y="322"/>
			<point x="485" y="342"/>
			<point x="445" y="342" type="curve" smooth="yes"/>
			<point x="408" y="342" type="line"/>
			<point x="415" y="381" type="line"/>
			<point x="449" y="381" type="line" smooth="yes"/>
			<point x="493" y="381"/>
			<point x="524" y="404"/>
			<point x="529" y="436" type="curve" smooth="yes"/>
			<point x="535" y="466"/>
			<point x="515" y="488"/>
			<point x="478" y="488" type="curve" smooth="yes"/>
			<point x="437" y="488"/>
			<point x="408" y="467"/>
			<point x="401" y="434" type="curve"/>
			<point x="360" y="439" type="line"/>
			<point x="365" y="470"/>
			<point x="404" y="528"/>
			<point x="482" y="528" type="curve" smooth="yes"/>
			<point x="541" y="528"/>
			<point x="581" y="483"/>
			<point x="572" y="434" type="curve" smooth="yes"/>
			<point x="563" y="388"/>
			<point x="518" y="350"/>
			<point x="487" y="352" type="curve"/>
			<point x="451" y="370" type="line"/>
			<point x="523" y="370"/>
			<point x="562" y="325"/>
			<point x="552" y="276" type="curve" smooth="yes"/>
			<point x="541" y="224"/>
			<point x="494" y="182"/>
		</contour>
	</outline>
</glyph>
<glyph name="four.blackCircled" format="2">
	<advance width="905"/>
	<unicode hex="2779"/>
	<outline>
		<contour>
			<point x="421" y="-16" type="curve" smooth="yes"/>
			<point x="621" y="-16"/>
			<point x="818" y="130"/>
			<point x="818" y="390" type="curve" smooth="yes"/>
			<point x="818" y="560"/>
			<point x="695" y="716"/>
			<point x="485" y="716" type="curve" smooth="yes"/>
			<point x="285" y="716"/>
			<point x="86" y="570"/>
			<point x="86" y="310" type="curve" smooth="yes"/>
			<point x="86" y="140"/>
			<point x="211" y="-16"/>
		</contour>
		<contour>
			<point x="456" y="190" type="line"/>
			<point x="474" y="281" type="line"/>
			<point x="282" y="281" type="line"/>
			<point x="290" y="318" type="line"/>
			<point x="385" y="374"/>
			<point x="403" y="441"/>
			<point x="418" y="521" type="curve"/>
			<point x="461" y="521" type="line"/>
			<point x="447" y="450"/>
			<point x="436" y="384"/>
			<point x="352" y="321" type="curve"/>
			<point x="481" y="321" type="line"/>
			<point x="520" y="521" type="line"/>
			<point x="564" y="521" type="line"/>
			<point x="525" y="321" type="line"/>
			<point x="579" y="321" type="line"/>
			<point x="571" y="281" type="line"/>
			<point x="517" y="281" type="line"/>
			<point x="499" y="190" type="line"/>
		</contour>
	</outline>
</glyph>
<glyph name="seven.blackCircled" format="2">
	<advance width="905"/>
	<unicode hex="277C"/>
	<outline>
		<contour>
			<point x="421" y="-16" type="curve" smooth="yes"/>
			<point x="621" y="-16"/>
			<point x="818" y="130"/>
			<point x="818" y="390" type="curve" smooth="yes"/>
			<point x="818" y="560"/>
			<point x="695" y="716"/>
			<point x="485" y="716" type="curve" smooth="yes"/>
			<point x="285" y="716"/>
			<point x="86" y="570"/>
			<point x="86" y="310" type="curve" smooth="yes"/>
			<point x="86" y="140"/>
			<point x="211" y="-16"/>
		</contour>
		<contour>
			<point x="370" y="190" type="line"/>
			<point x="390" y="299"/>
			<point x="425" y="410"/>
			<point x="521" y="481" type="curve"/>
			<point x="358" y="481" type="line"/>
			<point x="366" y="521" type="line"/>
			<point x="590" y="521" type="line"/>
			<point x="582" y="484" type="line"/>
			<point x="465" y="418"/>
			<point x="437" y="320"/>
			<point x="413" y="190" type="curve"/>
		</contour>
	</outline>
</glyph>
<glyph name="nine.blackCircled" format="2">
	<advance width="905"/>
	<unicode hex="277E"/>
	<outline>
		<contour>
			<point x="421" y="-16" type="curve" smooth="yes"/>
			<point x="621" y="-16"/>
			<point x="818" y="130"/>
			<point x="818" y="390" type="curve" smooth="yes"/>
			<point x="818" y="560"/>
			<point x="695" y="716"/>
			<point x="485" y="716" type="curve" smooth="yes"/>
			<point x="285" y="716"/>
			<point x="86" y="570"/>
			<point x="86" y="310" type="curve" smooth="yes"/>
			<point x="86" y="140"/>
			<point x="211" y="-16"/>
		</contour>
		<contour>
			<point x="422" y="181" type="curve" smooth="yes"/>
			<point x="349" y="181"/>
			<point x="326" y="238"/>
			<point x="323" y="277" type="curve"/>
			<point x="366" y="282" type="line"/>
			<point x="372" y="260"/>
			<point x="375" y="221"/>
			<point x="422" y="221" type="curve" smooth="yes"/>
			<point x="476" y="221"/>
			<point x="532" y="285"/>
			<point x="546" y="417" type="curve"/>
			<point x="555" y="398" type="line"/>
			<point x="542" y="340"/>
			<point x="504" y="299"/>
			<point x="449" y="299" type="curve" smooth="yes"/>
			<point x="381" y="299"/>
			<point x="340" y="347"/>
			<point x="353" y="414" type="curve" smooth="yes"/>
			<point x="368" y="489"/>
			<point x="424" y="527"/>
			<point x="481" y="527" type="curve" smooth="yes"/>
			<point x="571" y="527"/>
			<point x="592" y="441"/>
			<point x="575" y="352" type="curve" smooth="yes"/>
			<point x="554" y="241"/>
			<point x="489" y="181"/>
		</contour>
		<contour>
			<point x="449" y="339" type="curve" smooth="yes"/>
			<point x="491" y="339"/>
			<point x="529" y="371"/>
			<point x="536" y="413" type="curve" smooth="yes"/>
			<point x="545" y="457"/>
			<point x="523" y="487"/>
			<point x="481" y="487" type="curve" smooth="yes"/>
			<point x="437" y="487"/>
			<point x="403" y="453"/>
			<point x="395" y="411" type="curve" smooth="yes"/>
			<point x="387" y="369"/>
			<point x="408" y="339"/>
		</contour>
	</outline>
</glyph>
<glyph name="Oslash.ss03" format="2">
	<advance width="727"/>
	<outline>
		<contour>
			<point x="-54" y="0" type="line"/>
			<point x="7" y="0" type="line"/>
			<point x="779" y="700" type="line"/>
			<point x="718" y="700" type="line"/>
		</contour>
		<component base="O" xOffset="-14"/>
	</outline>
</glyph>
<glyph name="Q.ss03" format="2">
	<advance width="749"/>
	<outline>
		<contour>
			<point x="556" y="0" type="line"/>
			<point x="617" y="0" type="line"/>
			<point x="400" y="346" type="line"/>
			<point x="339" y="346" type="line"/>
		</contour>
		<component base="O"/>
	</outline>
</glyph>
<glyph name="R.ss01" format="2">
	<advance width="578"/>
	<outline>
		<contour>
			<point x="118" y="329" type="line"/>
			<point x="295" y="329" type="line" smooth="yes"/>
			<point x="425" y="329"/>
			<point x="529" y="395"/>
			<point x="552" y="514" type="curve" smooth="yes"/>
			<point x="573" y="622"/>
			<point x="497" y="700"/>
			<point x="367" y="700" type="curve" smooth="yes"/>
			<point x="190" y="700" type="line"/>
			<point x="180" y="647" type="line"/>
			<point x="357" y="647" type="line" smooth="yes"/>
			<point x="451" y="647"/>
			<point x="513" y="611"/>
			<point x="494" y="514" type="curve" smooth="yes"/>
			<point x="477" y="426"/>
			<point x="399" y="382"/>
			<point x="305" y="382" type="curve" smooth="yes"/>
			<point x="128" y="382" type="line"/>
		</contour>
		<contour>
			<point x="21" y="0" type="line"/>
			<point x="79" y="0" type="line"/>
			<point x="215" y="700" type="line"/>
			<point x="157" y="700" type="line"/>
		</contour>
		<contour>
			<point x="391" y="0" type="line"/>
			<point x="459" y="0" type="line"/>
			<point x="354" y="349" type="line"/>
			<point x="289" y="344" type="line"/>
		</contour>
	</outline>
</glyph>
<glyph name="Y.ss02" format="2">
	<advance width="562"/>
	<outline>
		<contour>
			<point x="279" y="260" type="line"/>
			<point x="624" y="700" type="line"/>
			<point x="560" y="700" type="line"/>
			<point x="261" y="319" type="line"/>
		</contour>
		<contour>
			<point x="183" y="0" type="line"/>
			<point x="241" y="0" type="line"/>
			<point x="304" y="324" type="line"/>
			<point x="246" y="324" type="line"/>
		</contour>
		<contour>
			<point x="247" y="260" type="line"/>
			<point x="287" y="319" type="line"/>
			<point x="136" y="700" type="line"/>
			<point x="72" y="700" type="line"/>
		</contour>
	</outline>
</glyph>
<glyph name="asterisk.ss06" format="2">
	<advance width="484"/>
	<outline>
		<contour>
			<point x="316" y="365" type="line"/>
			<point x="357" y="389" type="line"/>
			<point x="284" y="533" type="line"/>
			<point x="244" y="508" type="line"/>
		</contour>
		<contour>
			<point x="134" y="365" type="line"/>
			<point x="262" y="508" type="line"/>
			<point x="232" y="533" type="line"/>
			<point x="103" y="389" type="line"/>
		</contour>
		<contour>
			<point x="233" y="507" type="line"/>
			<point x="258" y="546" type="line"/>
			<point x="114" y="619" type="line"/>
			<point x="89" y="580" type="line"/>
		</contour>
		<contour>
			<point x="230" y="509" type="line"/>
			<point x="274" y="509" type="line"/>
			<point x="313" y="708" type="line"/>
			<point x="269" y="708" type="line"/>
		</contour>
		<contour>
			<point x="271" y="507" type="line"/>
			<point x="443" y="580" type="line"/>
			<point x="432" y="619" type="line"/>
			<point x="260" y="546" type="line"/>
		</contour>
	</outline>
</glyph>
<glyph name="comma.ss07" format="2">
	<advance width="220"/>
	<outline>
		<contour>
			<point x="-38" y="-123" type="line"/>
			<point x="42" y="-123"/>
			<point x="76" y="-57"/>
			<point x="89" y="13" type="curve" smooth="yes"/>
			<point x="98" y="57"/>
			<point x="84" y="81"/>
			<point x="54" y="81" type="curve" smooth="yes"/>
			<point x="30" y="81"/>
			<point x="10" y="62"/>
			<point x="8" y="38" type="curve" smooth="yes"/>
			<point x="6" y="14"/>
			<point x="23" y="-5"/>
			<point x="47" y="-5" type="curve" smooth="yes"/>
			<point x="53" y="-5" type="line"/>
			<point x="44" y="-49"/>
			<point x="17" y="-100"/>
			<point x="-33" y="-100" type="curve"/>
		</contour>
	</outline>
</glyph>
<glyph name="commaaccentcomb.ss07" format="2">
	<advance width="381"/>
	<outline>
		<contour>
			<point x="28" y="-228" type="line"/>
			<point x="88" y="-228"/>
			<point x="138" y="-181"/>
			<point x="147" y="-131" type="curve" smooth="yes"/>
			<point x="155" y="-87"/>
			<point x="136" y="-61"/>
			<point x="106" y="-61" type="curve" smooth="yes"/>
			<point x="81" y="-61"/>
			<point x="67" y="-75"/>
			<point x="64" y="-95" type="curve" smooth="yes"/>
			<point x="60" y="-120"/>
			<point x="78" y="-141"/>
			<point x="108" y="-141" type="curve" smooth="yes"/>
			<point x="113" y="-141" type="line"/>
			<point x="105" y="-181"/>
			<point x="62" y="-205"/>
			<point x="32" y="-205" type="curve"/>
		</contour>
	</outline>
</glyph>
<glyph name="dieresis.ss07" format="2">
	<advance width="494"/>
	<outline>
		<contour>
			<point x="226" y="579" type="curve" smooth="yes"/>
			<point x="249" y="579"/>
			<point x="270" y="597"/>
			<point x="274" y="620" type="curve" smooth="yes"/>
			<point x="279" y="643"/>
			<point x="264" y="661"/>
			<point x="241" y="661" type="curve" smooth="yes"/>
			<point x="218" y="661"/>
			<point x="197" y="643"/>
			<point x="192" y="620" type="curve" smooth="yes"/>
			<point x="188" y="597"/>
			<point x="203" y="579"/>
		</contour>
		<contour>
			<point x="358" y="579" type="curve" smooth="yes"/>
			<point x="381" y="579"/>
			<point x="402" y="597"/>
			<point x="406" y="620" type="curve" smooth="yes"/>
			<point x="411" y="643"/>
			<point x="396" y="661"/>
			<point x="373" y="661" type="curve" smooth="yes"/>
			<point x="350" y="661"/>
			<point x="329" y="643"/>
			<point x="324" y="620" type="curve" smooth="yes"/>
			<point x="320" y="597"/>
			<point x="335" y="579"/>
		</contour>
	</outline>
</glyph>
<glyph name="dotaccent.ss07" format="2">
	<advance width="366"/>
	<outline>
		<contour>
			<point x="227" y="584" type="curve" smooth="yes"/>
			<point x="251" y="584"/>
			<point x="274" y="603"/>
			<point x="279" y="627" type="curve" smooth="yes"/>
			<point x="284" y="651"/>
			<point x="268" y="670"/>
			<point x="244" y="670" type="curve" smooth="yes"/>
			<point x="220" y="670"/>
			<point x="198" y="651"/>
			<point x="193" y="627" type="curve" smooth="yes"/>
			<point x="188" y="603"/>
			<point x="203" y="584"/>
		</contour>
	</outline>
</glyph>
<glyph name="downArrow.ss08" format="2">
	<advance width="693"/>
	<outline>
		<contour>
			<point x="266" y="-63" type="line"/>
			<point x="578" y="199" type="line"/>
			<point x="553" y="230" type="line"/>
			<point x="269" y="-8" type="line"/>
			<point x="283" y="-8" type="line"/>
			<point x="92" y="230" type="line"/>
			<point x="55" y="199" type="line"/>
		</contour>
		<contour>
			<point x="250" y="-20" type="line"/>
			<point x="297" y="-20" type="line"/>
			<point x="423" y="629" type="line"/>
			<point x="376" y="629" type="line"/>
		</contour>
	</outline>
</glyph>
<glyph name="downTipLeftArrow.ss08" format="2">
	<advance width="803"/>
	<outline>
		<contour>
			<point x="286" y="41" type="line"/>
			<point x="323" y="72" type="line"/>
			<point x="130" y="311" type="line"/>
			<point x="127" y="295" type="line"/>
			<point x="413" y="533" type="line"/>
			<point x="388" y="565" type="line"/>
			<point x="75" y="303" type="line"/>
		</contour>
		<contour>
			<point x="112" y="280" type="line"/>
			<point x="703" y="280" type="line"/>
			<point x="712" y="326" type="line"/>
			<point x="121" y="326" type="line"/>
		</contour>
		<contour>
			<point x="662" y="306" type="line"/>
			<point x="708" y="306" type="line"/>
			<point x="785" y="700" type="line"/>
			<point x="739" y="700" type="line"/>
		</contour>
	</outline>
</glyph>
<glyph name="downTipRightArrow.ss08" format="2">
	<advance width="804"/>
	<outline>
		<contour>
			<point x="396" y="41" type="line"/>
			<point x="709" y="303" type="line"/>
			<point x="498" y="565" type="line"/>
			<point x="461" y="533" type="line"/>
			<point x="653" y="295" type="line"/>
			<point x="656" y="311" type="line"/>
			<point x="371" y="72" type="line"/>
		</contour>
		<contour>
			<point x="76" y="306" type="line"/>
			<point x="122" y="306" type="line"/>
			<point x="199" y="700" type="line"/>
			<point x="153" y="700" type="line"/>
		</contour>
		<contour>
			<point x="71" y="280" type="line"/>
			<point x="662" y="280" type="line"/>
			<point x="671" y="326" type="line"/>
			<point x="80" y="326" type="line"/>
		</contour>
	</outline>
</glyph>
